<svg width="397" height="140" viewBox="0 0 397 140" fill="none" xmlns="http://www.w3.org/2000/svg">
<path d="M340.274 26.4249C340.176 26.4249 340.091 26.4669 340.035 26.5369C340.218 26.5369 340.274 26.4809 340.274 26.4249Z" fill="#AD96DC"/>
<path d="M387.706 75.2695L387.86 74.4713C387.706 74.9754 387.678 75.1855 387.706 75.2695Z" fill="#AD96DC"/>
<path d="M295.331 13.0374C295.331 13.0374 295.401 13.0374 295.443 13.0234C294.74 12.8554 293.77 12.6593 292.21 12.3232C293.25 12.5613 294.29 12.7713 295.331 13.0374Z" fill="#AD96DC"/>
<path d="M239.815 126.565L240.856 126.481C240.378 126.509 240.083 126.523 239.815 126.565Z" fill="#AD96DC"/>
<path d="M337.308 112.337C337.041 112.491 336.563 112.701 336.099 112.855C336.703 112.687 337.181 112.505 337.308 112.337Z" fill="#AD96DC"/>
<path d="M271.432 4.81727L272.739 5.26539C272.739 5.15336 272.275 4.95731 271.432 4.81727Z" fill="#AD96DC"/>
<path d="M223.382 1.96053C223.382 1.96053 223.424 2.00254 223.508 2.03055C223.579 2.00254 223.508 1.98854 223.382 1.96053Z" fill="#AD96DC"/>
<path d="M242.079 3.87903C242.487 3.87903 242.95 3.86502 243.428 3.85102C242.852 3.82301 242.135 3.767 242.079 3.87903Z" fill="#AD96DC"/>
<path d="M244.075 3.83702C243.864 3.83702 243.653 3.85102 243.428 3.86502C243.78 3.87903 244.075 3.89303 244.075 3.83702Z" fill="#AD96DC"/>
<path d="M337.701 14.5078C339.079 14.5638 340.26 14.4098 341.511 14.2837L337.701 14.5078Z" fill="#AD96DC"/>
<path d="M88.6779 123.316L88.9871 123.246C88.706 123.246 88.6498 123.274 88.6779 123.316Z" fill="#AD96DC"/>
<path d="M339.501 12.2532L340.471 12.3372C340.119 12.2812 339.796 12.2532 339.501 12.2532Z" fill="#AD96DC"/>
<path d="M296.722 8.55624C298.142 8.59825 300.869 9.52249 300.912 9.27042C299.464 8.99035 297.453 8.36019 296.722 8.55624Z" fill="#AD96DC"/>
<path d="M55.1636 127.097L54.2498 126.873C54.6856 126.985 54.9527 127.055 55.1636 127.097Z" fill="#AD96DC"/>
<path d="M339.501 12.2532L338.376 12.1552C338.475 12.2112 338.601 12.2532 338.714 12.2952C338.967 12.2672 339.234 12.2532 339.501 12.2532Z" fill="#AD96DC"/>
<path d="M42.7363 46.9962C42.7363 46.9962 42.7082 46.9962 42.6941 47.0102C42.5957 47.0662 42.5254 47.1082 42.427 47.1642L42.7504 46.9962H42.7363Z" fill="#AD96DC"/>
<path d="M50.5526 44.6856C50.0183 44.8956 49.5123 45.0917 48.9359 45.3158C49.8215 45.0497 50.2573 44.8536 50.5526 44.6856Z" fill="#AD96DC"/>
<path d="M341.511 14.2837L343.69 14.1577C342.903 14.1577 342.2 14.2137 341.511 14.2837Z" fill="#AD96DC"/>
<path d="M138.12 24.9265C137.839 24.9825 137.572 25.0385 137.305 25.0805C137.656 25.0245 137.923 24.9825 138.12 24.9265Z" fill="#AD96DC"/>
<path d="M343.296 110.517C343.493 110.461 343.76 110.391 343.985 110.335C344.042 110.251 343.985 110.223 343.296 110.517Z" fill="#AD96DC"/>
<path d="M287.064 129.52C286.01 129.59 284.549 129.968 283.776 130.276C284.83 130.136 285.799 129.954 287.064 129.52Z" fill="#AD96DC"/>
<path d="M276.591 131.004C276.718 131.004 276.83 131.004 276.985 130.99C276.844 130.99 276.718 130.99 276.591 131.004Z" fill="#AD96DC"/>
<path d="M343.311 118.289V118.261C343.297 118.275 343.282 118.289 343.282 118.303H343.325L343.311 118.289Z" fill="#AD96DC"/>
<path d="M330.307 122.182C330.068 122.182 329.731 122.238 329.379 122.308C329.618 122.308 329.927 122.266 330.307 122.182Z" fill="#AD96DC"/>
<path d="M243.486 134.911C243.457 134.911 243.443 134.911 243.414 134.911C243.443 134.911 243.457 134.911 243.472 134.911H243.486Z" fill="#AD96DC"/>
<path d="M117.244 136.731C129.98 137.418 146.274 137.642 158.884 138.188C161.639 137.726 165.617 137.824 169.638 137.754L170.046 138.482L173.391 138.314C174.755 138.552 170.819 138.412 173.223 138.72L174.488 138.286C174.741 138.538 183.077 138.524 177.468 138.986C181.798 139.042 186.142 139 190.472 138.986C193.354 138.972 192.145 138.37 195.322 138.496C195.969 138.692 194.183 138.65 194.45 138.902C204.01 139.28 205.444 137.306 214.342 137.334L213.597 137.46C215.102 137.236 217.983 137.11 218.012 137.012C216.845 136.339 216.437 137.488 213.71 137.152C213.921 136.549 217.07 136.689 216.873 136.241C218.953 136.367 220.162 135.975 221.976 135.849C225.083 136.087 229.497 135.555 231.845 135.919C233.349 135.625 234.994 134.925 238.241 134.687C240.603 135.009 237.721 135.177 240.898 135.135L241.376 134.743C243.977 134.603 243.569 134.743 243.499 134.897C246.282 134.701 245.776 134.253 249.263 134.197L247.351 134.687C249.909 134.365 250.964 134.309 254.548 134.043C254.492 134.253 253.044 134.365 251.99 134.393C253.986 134.743 255.307 133.875 256.362 133.847C256.053 133.721 253.564 133.861 254.745 133.413C256.531 133.329 258.485 132.6 259.792 132.88L257.88 133.413C261.563 132.782 259.82 132.782 264.08 132.502C263.855 132.544 263.967 132.628 263.883 132.712C266.526 131.998 270.068 132.012 274.047 131.62L273.302 131.802C274.89 131.494 275.734 131.074 276.591 131.004C274.314 131.074 274.918 130.892 274.665 130.584C277.716 130.794 279.15 129.394 284.056 129.113C284 129.324 282.861 129.716 281.498 129.674C279.909 130.458 279.754 130.99 276.816 131.62C278.644 131.27 280.823 130.92 280.387 131.228L280.893 130.612C282.018 130.486 282.903 130.374 283.747 130.276C284.183 129.87 281.413 129.996 283.972 129.436C286.868 128.875 285.602 129.8 286.024 129.492C290.017 128.749 287.613 128.679 291.507 128.329C291.127 128.427 290.382 128.623 290.045 128.623C292.842 128.483 296.835 127.531 297.749 128.077C297.355 128.287 297.313 128.497 296.258 128.595L296.287 128.483C293.306 129.422 298.817 127.965 297.945 128.707C297.678 128.399 301.586 127.853 303.358 127.629L302.739 127.321C308.376 125.136 302.556 128.189 308.306 127.013C311.919 126.089 306.9 127.153 309.093 126.467C311.582 126.103 312.566 126.243 316.151 125.36C317.191 125.318 319.285 125.08 319.553 125.487C321.718 124.87 326.272 124.156 327.411 123.428C323.573 123.932 323.798 124.828 319.271 125.192L320.41 124.492C323.447 123.848 327.27 122.714 329.379 122.308C328.929 122.336 328.718 122.266 328.957 122.112C333.203 120.837 334.299 120.039 338.475 118.961C339.135 119.199 336.703 119.829 334.946 120.389C337.701 119.913 337.758 119.633 341.905 118.429C342.228 118.695 339.121 119.297 338.756 119.787L343.297 118.205C343.297 118.205 343.311 118.247 343.325 118.275C343.789 117.504 346.797 117.126 349.51 115.936C352.758 114.662 354.557 113.723 355.921 112.799C357.298 111.903 358.296 111.147 359.913 110.055C360.911 109.746 361.263 109.746 360.925 110.069C359.266 110.587 359.632 110.643 359.168 111.049C361.249 109.957 364.06 109.284 362.992 110.083C366.253 108.178 361.656 110.447 363.596 109.214C365.101 108.388 366.619 107.59 368.123 106.736C367.434 106.778 365.832 107.618 368.025 106.077C369.88 104.789 370.892 104.355 373.296 102.619C373.029 102.997 374.337 102.451 372.495 103.725C373.718 102.983 375.602 101.722 376.066 100.91C373.367 102.731 380.044 97.3532 377.851 98.5155C378.737 97.8994 379.566 97.2132 380.438 96.555C379.89 97.0452 379.974 97.2552 379.116 97.9554C380.1 97.6613 381 96.0789 381.759 95.2387C382.603 94.4545 384.711 92.3539 384.964 92.2279C385.513 91.3177 387.228 89.4692 387.65 89.1611C388.465 87.8168 387.467 88.881 387.607 88.4189L389.112 86.2624L390.433 83.9658C390.799 83.8397 391.656 83.7697 391.347 84.5399C392.134 82.6214 391.08 83.5737 392.345 80.7729C392.218 81.6832 392.71 80.7729 393.188 79.9747C393.638 79.1485 393.962 78.3503 393.849 79.7227C394.074 79.3166 394.341 78.7004 394.622 77.9442C394.889 77.188 395.255 76.3338 395.41 75.3675C395.606 74.4153 395.789 73.421 395.93 72.4968C395.986 71.5445 396 70.6483 396.014 69.9061C395.705 68.0576 395.663 73.099 395.157 72.8329C395.311 71.8386 395.255 70.9144 395.269 70.1162C395.269 69.304 395.269 68.6038 395.128 67.9596C394.904 66.6853 394.707 65.691 394.44 64.7948C393.751 63.0163 393.315 61.532 392.275 58.8293L392.696 60.2716C391.951 58.6332 391.656 57.905 391.277 57.4149C390.939 56.9108 390.672 56.5747 390.025 55.7625C390.967 56.3926 389.28 51.4353 385.203 47.3043C384.726 47.0942 386.933 50.049 386.019 49.6009L384.768 48.2005C384.346 47.7384 383.868 47.3323 383.432 46.8982C383.263 46.6741 383.615 46.8982 384.009 47.2062C381.562 44.9096 379.875 42.487 378.765 42.291C378.076 41.3527 377.289 40.5265 376.544 39.6303L377.415 40.6946C376.895 40.6105 373.887 38.398 373.156 38.1039C369.88 36.1714 368.798 35.3592 367.209 33.9868C367.659 34.505 368.812 35.7653 366.239 34.2809C366.689 33.5947 360.982 30.976 361.235 30.696C360.166 30.1638 358.381 28.9735 358.114 29.2116L358.521 28.8475C357.959 29.3236 354.065 27.4191 350.958 26.2148C352.027 25.6547 347.598 24.8004 346.544 23.4841C345.729 23.8342 340.963 21.5516 340.204 21.8877C337.8 21.0335 338.25 20.5433 337.701 20.1232L336.492 19.9552C335.93 19.6051 334.524 19.0169 332.922 18.3868C331.319 17.7846 329.52 17.1265 328.184 16.5943L325.471 16.3703L324.613 15.8381C324.164 15.8521 322.027 15.292 323.278 15.8941L321.914 15.46C321.619 16.0342 319.932 15.0819 317.107 14.5498C316.502 14.2697 316.713 14.1717 317.331 14.2697C315.954 13.8776 316.643 13.7236 315.94 13.3175C316.868 13.7236 310.682 13.1074 314.323 14.3537C314.506 14.6618 312.299 14.2837 310.977 13.8216L310.288 13.0654L308.517 13.2194C306.366 12.7853 305.551 12.2252 303.836 11.7491C305.607 12.1412 308.025 11.637 303.442 10.5588C305.86 11.0629 307.125 11.0349 308.391 11.2309C307.449 10.9789 306.985 10.8108 308.517 10.9369C304.89 10.2507 307.238 10.9929 303.681 10.2087C303.99 9.77455 303.048 9.34044 299.97 8.50022L302.219 9.36845C302.093 9.41046 301.924 9.41046 301.741 9.41046C302.613 9.64852 302.838 9.80256 302.978 10.0266C302.275 9.84457 298.719 9.73254 298.198 9.29843C301.6 10.8388 291.83 8.55624 294.023 9.52249C293.587 9.59251 291.099 9.11638 290.888 8.82231C293.939 9.04637 288.766 7.81405 289.314 7.56198C288.175 7.47796 291.591 8.4022 290.045 8.29017C288.274 7.95408 287.022 7.43595 286.052 7.09986L286.811 7.14187L284.098 6.42769C283.606 6.59573 286.685 7.32392 284.126 7.00184C283.48 6.77778 280.921 6.45569 281.034 6.27365C282.299 6.13361 281.498 5.53146 283.677 5.83953C281.877 5.51745 276.127 4.69124 278.363 5.51745L276.212 5.15336C277.533 5.57347 281.23 6.56772 276.915 5.93756L276.971 5.83953L273.92 5.74151L272.655 5.29339C272.669 5.41943 272.191 5.47544 271.081 5.3074C270.813 5.11135 269.773 4.91529 269.886 4.71924C266.652 4.28513 266.877 4.57921 266.441 4.67723C264.628 4.49519 263.967 4.29914 264.853 4.11709C262.379 3.73899 258.049 3.29087 256.39 2.87077C253.044 2.75874 257.065 3.05281 255.083 3.19285C252.299 1.97453 244.117 1.8485 238.677 1.63845C240.111 2.50667 237.187 1.62444 236.146 2.29662C237.341 2.11457 231.015 1.4424 235.795 1.4564L232.885 1.40038C230.917 0.882251 237.707 1.31636 234.741 0.588174C231.465 0.434134 229.3 1.20433 225.462 0.812232C226.77 0.308102 222.496 0.910258 223.466 0.336109C224.267 0.168066 225.336 0.252087 226.432 0.238084L225.758 0.112051C218.588 -0.224036 223.663 0.700204 219.909 1.00828C215.551 1.02229 216.479 0.53216 216.226 0.280095C215.551 0.154062 213.344 0.280095 212.206 0.420131C214.877 0.0560366 217.126 0.756218 215.903 1.0923C213.991 0.476145 209.436 1.09231 208.255 1.33037C214.483 1.97453 212.571 1.28836 218.405 2.05856C219.207 1.87651 219.08 1.31636 222.58 1.58243C220.373 1.8345 222.721 1.89051 223.34 2.00254C222.679 1.66645 225.772 1.94653 226.84 1.8345C227.81 2.12857 224.717 2.52068 228.26 2.74473L228.949 2.00254C230.326 2.17058 228.344 2.52067 231.296 2.46466C229.694 2.78674 231.746 3.08082 227.754 3.08082C232.477 3.87903 235.064 3.03881 238.775 2.96879C238.396 2.9968 238.339 3.09482 237.974 3.10883C238.775 2.96879 240.209 3.06682 241.306 3.10883C243.738 3.44491 239.352 3.31888 239.97 3.57095L243.92 3.80901C244.005 3.83702 244.019 3.85102 244.019 3.86502C245.059 3.82301 246.057 3.86502 246.409 4.06107C245.214 4.20111 244.736 4.41116 243.935 4.5652C245.326 4.46718 246.718 4.43917 248.11 4.36915C247.632 4.57921 251.484 5.08334 248.532 5.01332C250.57 5.15336 252.608 5.27939 254.647 5.47544L255.111 6.03559C256.573 6.0916 256.629 5.99358 254.886 5.75551C256.952 6.04959 264.234 5.89555 263.011 6.77778C267.847 6.93182 269.534 7.36593 275.34 7.96809C270.842 7.73002 280.317 9.36845 275.593 8.83631C278.292 9.49448 278.953 9.03236 281.132 9.31243C283.114 9.90059 282.13 10.2087 279.909 10.0266C280.781 10.0826 281.638 10.1667 282.51 10.2507L282.439 10.3487L284.717 10.4607C287.022 11.1469 285.125 11.0489 287.542 11.553L288.161 11.2169L289.75 11.8051C289.173 11.483 290.621 11.679 292.393 11.9871L292.336 12.0852L294.501 12.4212C292.322 12.2532 296.427 12.9254 295.387 13.0514C297.2 13.4715 297.243 13.4715 300.56 14.1157L300.054 13.6816C304.412 14.3958 300.138 14.1577 303.597 14.9979L303.47 14.6058C308.32 16.3563 312.003 16.3703 315.56 17.7286C313.437 17.2385 313.859 17.7846 313.929 17.7006C317.107 18.4288 322.195 19.9692 325.541 20.5714C326.568 21.4116 326.792 21.6636 330.012 22.952C332.416 23.6942 332.767 23.8062 333.639 23.7782C335.874 24.7304 340.246 26.0748 340.232 26.4669C340.879 26.3689 342.242 27.3071 343.578 27.5732L343.789 27.8252L343.732 27.4191C345.588 28.5674 347.303 29.1836 349.018 29.7997C350.747 30.3879 352.462 31.0461 354.276 32.2784L353.559 32.0543L355.274 32.6985C355.471 32.9646 354.754 32.7265 354.585 32.8805C357.102 34.1409 359.618 35.4152 362.036 36.8296L360.714 35.7933C362.261 36.6335 363.526 36.8576 365.143 38.1179C361.994 36.8156 367.519 39.5883 367.758 40.2184L366.155 39.4062C368.278 40.6526 368.25 40.6806 368.278 40.2605C370.977 41.9689 369.726 42.0109 372.312 43.4113C371.778 42.9772 371.202 42.5851 370.625 42.193C370.218 41.6888 371.68 42.235 372.762 43.1172C372.987 43.3693 373.676 44.0834 372.804 43.4813C374.927 44.8256 377.612 47.4303 378.526 48.0325C379.412 49.0547 378.905 48.9287 378.343 48.4806C382.265 51.9675 380.058 50.119 383.685 53.858L383.474 53.914C383.924 54.3201 384.29 54.7682 384.711 55.2023C385.063 55.9725 385.485 56.7287 385.78 57.4989C385.738 57.1908 385.611 56.9108 385.513 56.6167C386.061 57.2749 386.314 57.877 386.694 58.4652C386.862 58.7732 387.045 59.0813 387.242 59.4174C387.326 59.5855 387.425 59.7675 387.523 59.9636C387.593 60.1596 387.65 60.3837 387.734 60.6077C387.551 60.4117 387.382 60.2016 387.186 60.0196C387.636 61.0558 387.931 61.8961 388.184 62.6242C388.423 63.3524 388.423 64.0106 388.549 64.6268C388.802 65.8731 388.802 67.0774 389.098 69.1919C389.013 69.486 389.013 68.8138 388.901 68.4918C389.196 72.4688 388.338 71.3765 388.001 75.3675C387.973 75.1015 387.72 75.4936 387.692 75.3115L387.34 77.118L387.003 76.8519C387.073 77.3981 387.017 77.9162 387.003 78.4623L386.159 79.3446L386.047 80.0868C385.26 80.8149 384.599 81.8092 383.966 82.9295C383.207 83.9798 382.462 85.1701 381.38 86.0803L382.097 86.0243C380.382 89.1331 377.415 92.0739 374.013 94.6645C370.611 97.3112 366.703 99.4958 363.006 101.876L362.95 101.442C361.966 102.156 360.996 102.899 359.983 103.613C358.086 104.201 360.883 102.787 360.222 102.857C356.834 104.789 359.056 104.145 354.979 106.204C352.715 106.89 355.625 105.643 356.525 104.999C352.772 107.002 346.966 109.634 343.985 110.377C343.943 110.447 343.789 110.587 343.943 110.545C342.622 111.119 341.047 111.679 339.402 112.169C337.772 112.673 336.099 113.177 334.567 113.611C334.595 113.415 335.34 113.163 336.085 112.911C334.974 113.205 333.442 113.513 332.556 113.976L333.611 113.303C331.277 113.962 326.778 115.404 326.16 115.166C326.483 115.236 326.441 115.586 324.374 116.048C323.728 115.88 322.35 116.286 320.705 116.776C319.047 117.252 317.121 117.799 315.434 117.995C315.799 117.771 318.231 117.21 317.542 117.35C315.841 117.56 314.407 118.163 312.973 118.625L313.381 118.289C310.809 118.919 308.236 119.535 305.635 120.095C304.384 119.731 298.255 121.425 298.719 120.893C295.907 121.327 301.123 120.781 297.58 121.425C296.596 121.313 294.389 122.028 294.473 121.608L294.839 121.509L292.364 121.916L293.869 121.285C291.746 121.706 290.228 122.294 290.157 122.616C288.091 122.686 285.223 123.246 284.253 123.008L284.998 122.812C279.29 123.722 275.382 122.896 270.954 124.072C270.617 124.058 270.645 123.946 271.348 123.876L267.805 124.226L268.62 123.834L262.8 124.898L262.857 124.688C258.977 124.996 252.918 125.655 247.927 126.131L248.672 125.977C243.246 126.719 243.386 126.187 239.422 126.705C239.563 126.649 239.689 126.621 239.844 126.593L236.245 126.831L237.018 126.579C234.389 127.195 229.385 126.495 231.043 126.761C229.553 127.041 226.967 127.405 226.531 127.685C222.609 127.923 225.561 127.475 223.115 127.433C220.275 127.531 219.797 127.909 215.945 127.895L216.015 127.685C214.216 127.811 213.105 127.965 210.603 128.091L211.348 127.965C207.271 128.525 206.231 127.545 203.04 128.497C201.325 128.371 198.063 128.581 198.218 128.161C193.129 128.497 189.165 128.679 184.104 128.833C183.288 128.161 183.021 128.889 179.943 128.497L180.167 128.861C172.998 128.889 164.802 127.853 156.915 127.755L156.705 127.391L155.116 127.727C146.611 127.237 135.618 126.607 128.842 126.229C126.606 126.313 123.233 126.523 119.718 126.187L120.084 126.159C113.954 125.963 107.473 125.641 100.866 124.772C101.288 124.66 100.641 124.492 101.4 124.464C99.7838 124.702 97.5064 124.1 96.1006 123.946L97.7313 124.38C95.8053 124.548 93.1484 123.876 92.2346 123.512L89.2121 123.54C89.0294 123.484 88.7201 123.386 88.692 123.33L88.1437 123.442L86.6395 122.756C85.8944 122.756 81.9723 122.336 80.6789 122.588C80.4118 122.392 77.6986 121.818 79.8354 122.084L74.4793 121.131L69.1654 120.053L70.7961 120.543C70.9367 120.921 67.6753 120.543 66.0726 120.039C68.2938 120.221 66.3538 119.591 65.4963 119.115C64.0202 118.975 66.6771 119.703 65.8758 119.731C64.0202 119.549 60.1683 118.821 59.2686 118.415C59.6341 118.471 59.9996 118.513 60.3792 118.541C57.919 118.065 56.9631 117.14 54.5873 116.538C52.3661 116.272 50.9181 115.446 51.1712 116.188C48.0925 115.362 50.1309 115.432 49.1609 115.054C47.6145 114.956 43.5236 113.233 43.1159 112.743C41.1056 113.093 35.4262 109.214 34.5546 109.648L32.5302 108.122C32.3756 108.248 31.6868 108.472 29.8733 107.548C28.3691 106.344 28.9454 106.288 28.5659 105.811L27.0757 105.769C22.7599 102.409 17.9802 98.2355 14.775 93.0261C14.044 91.6958 13.1724 90.4214 12.6803 89.0211C12.4132 88.3349 12.0337 87.6627 11.8509 86.9625C11.6541 86.2624 11.4573 85.5622 11.2605 84.862C11.0074 84.1758 11.0074 83.4476 10.8809 82.7615C10.8247 82.0613 10.6138 81.3751 10.67 80.6749C10.7122 79.3026 10.6419 77.9442 10.9793 76.6699C11.0496 76.0957 11.0355 75.4936 11.134 74.8774C11.2745 74.2753 11.4151 73.6451 11.5557 73.0149C11.626 72.6928 11.6822 72.3708 11.7525 72.0487C11.879 71.7406 11.9915 71.4185 12.118 71.0964C12.357 70.4523 12.596 69.8081 12.849 69.1499C13.1442 68.5058 13.5379 67.8896 13.8753 67.2594C14.2408 66.6293 14.5219 65.9571 15.014 65.397C15.9418 64.2347 16.729 62.9883 17.8677 61.9801L17.4741 62.5262L19.6109 60.4677L21.9586 58.5912C20.8059 59.4734 19.5266 60.2576 18.5003 61.2519C19.3017 60.2296 20.0327 59.4874 21.0167 58.6472C22.2819 57.5689 23.8986 56.6447 25.4731 55.5524C27.1882 54.6002 28.8892 53.4939 30.8152 52.5696C34.5405 50.5811 38.7158 48.8027 42.7223 47.0382C47.7551 44.2235 46.518 46.4501 51.5085 44.1115C51.0868 44.3215 50.9462 44.4895 50.5807 44.7136C56.1336 42.6691 59.2123 41.6328 64.8918 39.6163C64.4279 40.6105 68.6874 38.636 68.2798 39.2102L68.6874 38.7481C70.037 38.622 73.1298 37.9499 72.7502 38.2999L75.2385 37.2497L75.5477 37.5437C78.9779 36.7595 86.3865 34.729 88.3546 35.0371C96.7613 32.5304 110.341 29.8418 121.166 28.0493C122.628 27.4751 125.791 26.887 128.265 26.4389L130.978 26.4109C133.467 25.8787 136.053 24.8845 138.443 24.8004C138.443 24.8565 138.345 24.8985 138.19 24.9545C140.735 24.4784 143.209 24.3103 145.543 23.5821C148.354 23.19 151.124 23.022 150.308 23.5401C150.491 22.7979 156.283 22.8259 156.283 22.8259C156.283 22.8259 158.546 22.5599 162.567 22.0977C166.601 21.6496 172.393 21.0055 179.465 20.3613C193.607 19.059 212.923 17.6866 233.377 16.8744C253.831 16.0062 275.439 15.6701 294.178 15.474C312.917 15.264 328.775 15.18 337.744 14.5218C338.953 14.2137 342.284 14.1157 341.033 13.6536C343.606 13.6115 344.759 14.2837 345.265 13.9476C341.778 13.5835 346.389 13.0794 342.987 12.5193H345.18C345.644 12.2812 342.186 12.6873 342.748 12.2532L342.102 12.8834C340.33 12.7153 339.36 12.5473 338.742 12.3092C337.069 12.5053 335.972 13.3455 331.994 12.8413H333.09C329.843 12.7573 331.122 12.3512 330.448 12.2252L331.165 12.2532L328.437 11.8331C330.504 12.1132 333.934 11.6931 332.149 11.679C328.283 11.371 333.147 11.8751 330.237 11.8611C328.437 11.8331 328.957 11.511 329.042 11.3009L325.808 11.2169C325.921 10.9229 327.945 11.301 326.652 10.9509L322.561 11.1609C321.816 10.3767 318.119 11.413 316.263 10.6428C319.201 10.5448 316.01 10.3767 316.474 10.1386L309.276 10.0266C308.601 9.90059 311.174 9.83057 310.077 9.84457C308.728 9.60651 307.856 9.98461 307.125 9.9706C306.507 9.73254 301.755 9.90059 301.966 9.39646C297.088 8.99035 299.9 10.0126 295.359 9.66253C294.768 9.34044 298.972 9.63452 296.961 9.28443L292.238 9.35445C292.674 9.21441 293.166 8.86432 294.923 8.93434C282.172 8.4022 275.27 6.81979 263.602 7.36593C261.943 7.01584 264.783 7.09986 265.949 6.8478C257.501 7.44995 254.028 6.23164 246.816 6.45569L246.69 6.76377C236.61 6.0916 224.535 7.15588 213.148 7.43595L214.511 7.56198C212.965 7.95408 210.448 8.12213 208.593 8.37419C208.298 8.24816 209.9 7.632 206.611 7.98209C207.299 8.0381 208.691 8.06611 208.298 8.23416C198.499 8.03811 177.918 9.85858 161.906 11.497C151.124 12.9394 139.891 14.4658 128.729 16.2442C117.581 18.0367 106.503 20.0532 96.0724 22.3918C99.2495 21.6916 98.0546 22.6999 95.6226 23.05C88.7904 23.218 84.2918 25.7947 77.4737 26.4949C65.5103 29.7157 54.292 31.3261 43.369 36.1294L43.0316 35.8633C41.3024 36.2974 40.9369 36.7315 39.1937 37.4037V37.2917C37.0991 37.9639 34.8639 39.0421 32.8255 39.9384C30.8152 40.9606 29.0157 41.8008 27.8349 42.347L27.877 42.7811C25.5294 44.0834 26.4994 43.1592 24.1938 44.6716L24.1657 44.4615L21.6072 46.4921C21.5509 46.114 19.8921 47.0662 18.0927 48.4666C16.237 49.7549 14.3532 51.5614 13.3973 52.1775C12.7084 52.7657 11.9493 53.5919 11.1199 54.5301C10.2905 55.4684 9.32047 56.4486 8.47699 57.681C6.64945 59.9776 4.9906 62.7363 3.68321 65.2989C3.50045 65.509 3.17712 66.0831 2.78349 66.8813C2.40393 67.6936 1.86972 68.7018 1.56045 69.9341C1.23711 71.1525 0.745083 72.4548 0.562329 73.7851C0.365517 75.1295 0.182762 76.4458 0.0140663 77.5941C-0.0983977 82.1313 0.801315 87.6207 3.10683 92.76C5.35611 97.9134 8.80032 102.647 12.5398 106.47L12.7366 106.007C13.3692 106.68 14.1002 107.24 14.775 107.87C14.6766 107.912 14.9156 108.206 14.5782 107.968C15.7731 109.9 19.5828 111.875 21.1854 113.401C20.2857 112.281 19.6672 112.211 18.416 111.273C16.7572 109.746 18.7393 110.699 21.0167 112.673L20.9043 112.715C21.5088 113.037 22.1414 113.317 22.7599 113.611C22.7599 114.032 24.2501 115.166 24.2782 115.6C25.2341 116.216 26.1901 116.678 27.132 117.126C28.0739 117.574 28.9736 118.009 29.8733 118.429C31.6586 119.241 33.3737 119.815 35.0888 120.501C36.7898 121.201 38.5471 121.748 40.3605 122.378C42.1881 123.022 44.0859 123.708 46.1806 124.38C45.1965 124.492 52.2536 126.173 50.3699 126.313C55.5432 127.419 49.681 125.543 52.1412 125.697C53.561 126.089 55.0933 126.299 55.2902 126.621C54.5732 126.607 56.3445 127.335 55.1636 127.097C56.3023 127.377 57.441 127.685 58.5797 127.909C58.889 128.035 58.1158 127.951 57.7222 127.909C61.2508 128.483 64.3154 129.38 67.3098 130.024C68.7999 130.374 70.276 130.71 71.7802 131.018C73.2844 131.298 74.8027 131.522 76.3912 131.676C76.8973 131.508 73.903 131.2 74.409 131.018C80.8054 131.564 79.9338 132.376 85.8944 132.838L84.6292 133.006C86.5692 133.034 87.4408 132.866 90.5476 133.497C91.0537 133.959 87.8344 133.539 86.3021 133.497C88.4671 133.805 93.9356 134.323 92.3189 133.763C94.9197 133.945 95.8194 134.393 97.1971 134.645C97.2533 134.547 94.8072 134.127 96.3395 134.099C98.0827 134.393 100.318 134.673 102.652 134.925C104.985 135.135 107.417 135.359 109.568 135.569C109.526 135.667 109.807 135.849 109.428 135.863C112.928 135.611 112.492 136.465 117.244 136.703V136.731Z" fill="#AD96DC"/>
<path d="M345.012 117.771C344.449 117.953 343.887 118.135 343.325 118.289C343.353 118.373 343.311 118.499 342.565 118.849C343.381 118.513 344.21 118.163 345.012 117.785V117.771Z" fill="#AD96DC"/>
<path d="M263.883 132.726C263.672 132.782 263.461 132.824 263.278 132.894C263.7 132.838 263.827 132.782 263.883 132.726Z" fill="#AD96DC"/>
<path d="M244.047 135.177C245.467 134.981 244.188 134.967 243.485 134.911C243.456 134.995 243.485 135.093 244.047 135.177Z" fill="#AD96DC"/>
<path d="M384.95 92.2279C384.782 92.494 384.697 92.69 384.796 92.704C385.007 92.3259 385.021 92.2139 384.95 92.2279Z" fill="#AD96DC"/>
<path d="M310.64 11.8051C310.794 11.8611 310.935 11.9171 311.118 12.0011C311.033 11.9451 310.865 11.8891 310.64 11.8051Z" fill="#AD96DC"/>
<path d="M317.374 14.2557C317.711 14.3537 318.147 14.4658 318.793 14.5918C318.189 14.3958 317.739 14.2977 317.374 14.2557Z" fill="#AD96DC"/>
<path d="M359.154 111.035C358.732 111.273 358.31 111.497 357.959 111.735C358.648 111.427 358.957 111.203 359.154 111.035Z" fill="#AD96DC"/>
<path d="M320.255 14.9139L321.97 15.446C321.97 15.446 322.013 15.404 322.027 15.376L320.255 14.9139Z" fill="#AD96DC"/>
<path d="M308.447 11.2029C309.136 11.371 310.049 11.609 310.64 11.8051C309.796 11.469 309.107 11.2869 308.447 11.2029Z" fill="#AD96DC"/>
<path d="M384.023 47.1922C384.023 47.1922 384.121 47.2763 384.163 47.3183C385.316 48.2145 384.613 47.6264 384.023 47.1922Z" fill="#AD96DC"/>
<path d="M328.015 16.4963C328.015 16.4963 328.17 16.5523 328.24 16.5803L328.775 16.6363L328.015 16.4963Z" fill="#AD96DC"/>
<path d="M300.898 9.27042C301.235 9.34044 301.544 9.38245 301.797 9.39646C301.53 9.32644 301.207 9.24242 300.813 9.13039C300.898 9.2004 300.912 9.24241 300.912 9.27042L300.898 9.27042Z" fill="#AD96DC"/>
<path d="M362.078 30.71C361.544 30.6119 361.333 30.6119 361.277 30.668C361.811 30.934 362.19 31.0461 362.078 30.71Z" fill="#AD96DC"/>
</svg>
