<svg width="227" height="85" viewBox="0 0 227 85" fill="none" xmlns="http://www.w3.org/2000/svg">
<path d="M195.049 16.1378C194.992 16.1378 194.944 16.1635 194.912 16.2064C195.017 16.2064 195.049 16.1721 195.049 16.1378Z" fill="#AD96DC"/>
<path d="M222.238 46.0123L222.326 45.5241C222.237 45.8324 222.221 45.9609 222.238 46.0123Z" fill="#AD96DC"/>
<path d="M169.286 7.94977C169.286 7.94977 169.327 7.94977 169.351 7.9412C168.948 7.83842 168.392 7.71851 167.497 7.51296C168.094 7.65856 168.69 7.78703 169.286 7.94977Z" fill="#AD96DC"/>
<path d="M137.464 77.3856L138.06 77.3342C137.786 77.3513 137.617 77.3599 137.464 77.3856Z" fill="#AD96DC"/>
<path d="M193.348 68.6836C193.195 68.7778 192.921 68.9063 192.655 69.0005C193.002 68.8978 193.276 68.7864 193.348 68.6836Z" fill="#AD96DC"/>
<path d="M155.587 2.92216L156.337 3.19623C156.337 3.12772 156.071 3.00781 155.587 2.92216Z" fill="#AD96DC"/>
<path d="M128.044 1.17491C128.044 1.17491 128.068 1.20061 128.116 1.21774C128.157 1.20061 128.116 1.19204 128.044 1.17491Z" fill="#AD96DC"/>
<path d="M138.761 2.34831C138.995 2.34831 139.261 2.33974 139.535 2.33118C139.205 2.31405 138.794 2.27979 138.761 2.34831Z" fill="#AD96DC"/>
<path d="M139.906 2.32261C139.785 2.32261 139.664 2.33118 139.535 2.33974C139.736 2.34831 139.906 2.35687 139.906 2.32261Z" fill="#AD96DC"/>
<path d="M193.574 8.84908C194.364 8.88334 195.041 8.78913 195.758 8.71204L193.574 8.84908Z" fill="#AD96DC"/>
<path d="M50.8291 75.3985L51.0064 75.3557C50.8452 75.3557 50.813 75.3728 50.8291 75.3985Z" fill="#AD96DC"/>
<path d="M194.606 7.47013L195.162 7.52152C194.96 7.48726 194.775 7.47013 194.606 7.47013Z" fill="#AD96DC"/>
<path d="M170.084 5.20899C170.898 5.23469 172.461 5.79997 172.485 5.6458C171.655 5.4745 170.503 5.08908 170.084 5.20899Z" fill="#AD96DC"/>
<path d="M31.6181 77.7111L31.0943 77.574C31.3441 77.6425 31.4972 77.6854 31.6181 77.7111Z" fill="#AD96DC"/>
<path d="M194.606 7.47013L193.961 7.41018C194.017 7.44444 194.09 7.47013 194.154 7.49583C194.299 7.4787 194.452 7.47013 194.606 7.47013Z" fill="#AD96DC"/>
<path d="M24.4945 28.7197C24.4945 28.7197 24.4784 28.7197 24.4704 28.7283C24.4139 28.7625 24.3737 28.7882 24.3172 28.8225L24.5026 28.7197H24.4945Z" fill="#AD96DC"/>
<path d="M28.9749 27.3065C28.6687 27.435 28.3786 27.5549 28.0482 27.6919C28.5559 27.5292 28.8057 27.4093 28.9749 27.3065Z" fill="#AD96DC"/>
<path d="M195.758 8.71204L197.007 8.63496C196.556 8.63496 196.153 8.66922 195.758 8.71204Z" fill="#AD96DC"/>
<path d="M79.1702 15.2214C79.009 15.2556 78.8559 15.2899 78.7028 15.3156C78.9043 15.2813 79.0574 15.2556 79.1702 15.2214Z" fill="#AD96DC"/>
<path d="M196.781 67.5702C196.894 67.5359 197.047 67.4931 197.176 67.4588C197.208 67.4075 197.176 67.3903 196.781 67.5702Z" fill="#AD96DC"/>
<path d="M164.548 79.1928C163.944 79.2356 163.106 79.4669 162.663 79.6553C163.267 79.5697 163.823 79.4583 164.548 79.1928Z" fill="#AD96DC"/>
<path d="M158.545 80.1007C158.617 80.1007 158.682 80.1007 158.77 80.0921C158.69 80.0921 158.617 80.0921 158.545 80.1007Z" fill="#AD96DC"/>
<path d="M196.789 72.3237V72.3066C196.781 72.3152 196.773 72.3237 196.773 72.3323H196.797L196.789 72.3237Z" fill="#AD96DC"/>
<path d="M189.335 74.7048C189.198 74.7048 189.005 74.739 188.804 74.7819C188.941 74.7819 189.118 74.7562 189.335 74.7048Z" fill="#AD96DC"/>
<path d="M139.568 82.4903C139.552 82.4903 139.543 82.4903 139.527 82.4903C139.543 82.4903 139.552 82.4903 139.56 82.4903H139.568Z" fill="#AD96DC"/>
<path d="M67.2036 83.6037C74.5045 84.0234 83.844 84.1605 91.0723 84.4945C92.6518 84.2119 94.9323 84.2718 97.237 84.229L97.4706 84.6744L99.3885 84.5716C100.17 84.7172 97.9139 84.6315 99.2918 84.82L100.017 84.5544C100.162 84.7086 104.941 84.7001 101.725 84.9827C104.207 85.017 106.697 84.9913 109.179 84.9827C110.831 84.9741 110.138 84.6058 111.959 84.6829C112.33 84.8028 111.307 84.7771 111.46 84.9313C116.94 85.1626 117.761 83.9549 122.862 83.972L122.435 84.0491C123.298 83.9121 124.95 83.835 124.966 83.775C124.297 83.3639 124.063 84.0662 122.5 83.8607C122.621 83.4924 124.426 83.578 124.313 83.304C125.506 83.3811 126.199 83.1412 127.238 83.0641C129.019 83.2098 131.549 82.8843 132.895 83.107C133.757 82.9271 134.7 82.4989 136.562 82.3533C137.915 82.5502 136.263 82.653 138.085 82.6273L138.359 82.3875C139.849 82.3019 139.616 82.3875 139.575 82.4817C141.171 82.3618 140.881 82.0877 142.879 82.0535L141.783 82.3533C143.25 82.1563 143.854 82.122 145.909 81.9593C145.877 82.0877 145.047 82.1563 144.443 82.1734C145.587 82.3875 146.344 81.8565 146.949 81.8394C146.771 81.7623 145.345 81.8479 146.022 81.5738C147.045 81.5225 148.166 81.0771 148.915 81.2484L147.819 81.5738C149.93 81.1884 148.931 81.1884 151.373 81.0171C151.244 81.0428 151.308 81.0942 151.26 81.1456C152.775 80.7088 154.806 80.7174 157.086 80.4775L156.659 80.5889C157.57 80.4005 158.053 80.1435 158.545 80.1007C157.239 80.1435 157.586 80.0322 157.441 79.8437C159.189 79.9722 160.011 79.1157 162.824 78.9444C162.791 79.0729 162.139 79.3127 161.357 79.287C160.446 79.7667 160.358 80.0921 158.674 80.4775C159.721 80.2634 160.97 80.0493 160.72 80.2377L161.01 79.8609C161.655 79.7838 162.163 79.7153 162.646 79.6553C162.896 79.4069 161.309 79.484 162.775 79.1414C164.435 78.7988 163.71 79.3641 163.952 79.1757C166.24 78.7217 164.862 78.6789 167.094 78.4648C166.877 78.5247 166.45 78.6446 166.256 78.6446C167.86 78.559 170.149 77.9766 170.672 78.3106C170.447 78.4391 170.423 78.5676 169.818 78.6275L169.834 78.559C168.126 79.1329 171.285 78.2421 170.785 78.696C170.632 78.5076 172.872 78.1736 173.888 78.0365L173.533 77.8481C176.764 76.512 173.428 78.3791 176.724 77.6597C178.795 77.0944 175.918 77.7453 177.175 77.3256C178.602 77.103 179.166 77.1886 181.221 76.649C181.817 76.6233 183.018 76.4777 183.171 76.7261C184.412 76.3493 187.023 75.9124 187.675 75.4671C185.476 75.7754 185.604 76.3236 183.01 76.5462L183.662 76.118C185.403 75.724 187.595 75.0302 188.804 74.7819C188.546 74.799 188.425 74.7562 188.562 74.662C190.995 73.8825 191.624 73.3943 194.017 72.7348C194.396 72.8804 193.002 73.2659 191.995 73.6085C193.574 73.3173 193.606 73.146 195.984 72.4094C196.169 72.5721 194.388 72.9404 194.178 73.2402L196.781 72.2723C196.781 72.2723 196.789 72.298 196.797 72.3152C197.063 71.8441 198.788 71.6128 200.343 70.8848C202.205 70.1054 203.236 69.5316 204.018 68.9663C204.807 68.4181 205.38 67.9556 206.306 67.2876C206.878 67.0991 207.08 67.0991 206.886 67.2961C205.936 67.613 206.145 67.6473 205.879 67.8957C207.072 67.2276 208.683 66.8165 208.071 67.3047C209.941 66.1399 207.305 67.5274 208.418 66.7737C209.28 66.2683 210.15 65.7801 211.012 65.2577C210.617 65.2834 209.699 65.7973 210.956 64.8551C212.02 64.0671 212.6 63.8016 213.978 62.7396C213.825 62.9708 214.574 62.6368 213.518 63.4162C214.22 62.9623 215.299 62.1914 215.565 61.6947C214.018 62.8081 217.846 59.5192 216.589 60.2301C217.096 59.8532 217.572 59.4335 218.071 59.031C217.757 59.3307 217.805 59.4592 217.314 59.8875C217.878 59.7076 218.394 58.7398 218.829 58.2259C219.312 57.7462 220.521 56.4615 220.666 56.3844C220.98 55.8277 221.964 54.6971 222.205 54.5087C222.673 53.6865 222.101 54.3374 222.181 54.0547L223.043 52.7357L223.801 51.3311C224.01 51.254 224.502 51.2112 224.325 51.6823C224.776 50.5089 224.172 51.0913 224.897 49.3783C224.824 49.935 225.106 49.3783 225.38 48.8901C225.638 48.3848 225.823 47.8966 225.759 48.7359C225.888 48.4875 226.041 48.1107 226.202 47.6482C226.355 47.1857 226.565 46.6632 226.653 46.0722C226.766 45.4898 226.871 44.8817 226.952 44.3164C226.984 43.734 226.992 43.1859 227 42.7319C226.823 41.6014 226.799 44.6847 226.508 44.522C226.597 43.9139 226.565 43.3486 226.573 42.8604C226.573 42.3636 226.573 41.9354 226.492 41.5414C226.363 40.762 226.251 40.1539 226.097 39.6057C225.703 38.518 225.453 37.6101 224.856 35.9571L225.098 36.8393C224.671 35.8372 224.502 35.3918 224.284 35.092C224.091 34.7837 223.938 34.5781 223.567 34.0813C224.107 34.4668 223.14 31.4348 220.803 28.9081C220.529 28.7797 221.794 30.5869 221.271 30.3128L220.553 29.4563C220.312 29.1736 220.038 28.9253 219.788 28.6598C219.691 28.5227 219.893 28.6597 220.118 28.8482C218.716 27.4435 217.749 25.9618 217.112 25.8419C216.718 25.268 216.266 24.7627 215.839 24.2146L216.339 24.8655C216.041 24.8141 214.316 23.4608 213.897 23.281C212.02 22.099 211.399 21.6023 210.489 20.7629C210.746 21.0798 211.407 21.8506 209.932 20.9428C210.19 20.5231 206.919 18.9214 207.064 18.7501C206.451 18.4247 205.428 17.6967 205.275 17.8423L205.508 17.6196C205.186 17.9108 202.954 16.7459 201.173 16.0094C201.786 15.6668 199.247 15.1443 198.643 14.3392C198.175 14.5533 195.444 13.1572 195.008 13.3628C193.631 12.8403 193.888 12.5406 193.574 12.2836L192.881 12.1808C192.559 11.9667 191.753 11.607 190.834 11.2216C189.916 10.8533 188.884 10.4507 188.119 10.1253L186.563 9.98822L186.072 9.66275C185.814 9.67132 184.589 9.32872 185.306 9.69701L184.525 9.4315C184.355 9.78266 183.388 9.20025 181.769 8.87478C181.422 8.70348 181.543 8.64353 181.898 8.70348C181.108 8.46366 181.503 8.36945 181.1 8.12107C181.632 8.36945 178.086 7.99259 180.173 8.75487C180.278 8.9433 179.013 8.71205 178.255 8.4294L177.86 7.9669L176.845 8.06111C175.612 7.7956 175.145 7.453 174.162 7.16179C175.177 7.40161 176.563 7.09327 173.936 6.43378C175.322 6.74211 176.047 6.72498 176.773 6.84489C176.233 6.69072 175.967 6.58794 176.845 6.66503C174.766 6.24535 176.112 6.69929 174.073 6.21965C174.25 5.95414 173.71 5.68863 171.946 5.17473L173.235 5.70576C173.162 5.73145 173.066 5.73145 172.961 5.73145C173.461 5.87706 173.59 5.97127 173.67 6.10831C173.267 5.99696 171.228 5.92845 170.93 5.66293C172.88 6.60507 167.28 5.20899 168.537 5.79997C168.287 5.8428 166.861 5.55159 166.74 5.37173C168.489 5.50876 165.523 4.75505 165.837 4.60088C165.185 4.54949 167.143 5.11478 166.256 5.04626C165.241 4.8407 164.524 4.5238 163.968 4.31824L164.403 4.34393L162.848 3.90712C162.566 4.0099 164.33 4.45528 162.864 4.25829C162.493 4.12125 161.027 3.92425 161.091 3.81291C161.816 3.72726 161.357 3.35897 162.606 3.5474C161.575 3.3504 158.279 2.84507 159.56 3.3504L158.327 3.12772C159.085 3.38466 161.204 3.99277 158.73 3.60735L158.762 3.5474L157.014 3.48744L156.288 3.21336C156.296 3.29045 156.022 3.32471 155.386 3.22193C155.233 3.10202 154.636 2.98211 154.701 2.8622C152.847 2.59669 152.976 2.77655 152.727 2.83651C151.687 2.72516 151.308 2.60525 151.816 2.49391C150.398 2.26266 147.916 1.98858 146.965 1.73163C145.047 1.66311 147.352 1.84298 146.215 1.92863C144.62 1.18348 139.93 1.10639 136.811 0.977919C137.633 1.50894 135.957 0.969355 135.361 1.38047C136.046 1.26913 132.42 0.858011 135.159 0.866575L133.491 0.832316C132.363 0.515414 136.255 0.780926 134.555 0.33555C132.677 0.241336 131.436 0.712407 129.237 0.472589C129.986 0.164252 127.536 0.532543 128.092 0.181382C128.552 0.0786025 129.164 0.129992 129.793 0.121427L129.406 0.0443428C125.296 -0.161215 128.205 0.40407 126.053 0.592498C123.555 0.601063 124.087 0.30129 123.942 0.147122C123.555 0.0700375 122.29 0.147122 121.638 0.232771C123.169 0.0100831 124.458 0.438329 123.757 0.643887C122.661 0.267031 120.05 0.643887 119.373 0.789491C122.943 1.18348 121.847 0.763796 125.191 1.23487C125.651 1.12352 125.578 0.780926 127.585 0.94366C126.319 1.09783 127.665 1.13209 128.02 1.20061C127.641 0.995049 129.414 1.16635 130.026 1.09783C130.582 1.27769 128.809 1.51751 130.84 1.65455L131.235 1.20061C132.025 1.30339 130.888 1.51751 132.581 1.48325C131.662 1.68024 132.839 1.86011 130.55 1.86011C133.258 2.34831 134.74 1.83441 136.868 1.79159C136.65 1.80872 136.618 1.86867 136.408 1.87724C136.868 1.79159 137.69 1.85154 138.318 1.87724C139.712 2.08279 137.198 2.00571 137.553 2.15988L139.817 2.30548C139.865 2.32261 139.874 2.33118 139.874 2.33974C140.47 2.31405 141.042 2.33974 141.243 2.45965C140.558 2.5453 140.284 2.67377 139.825 2.76799C140.623 2.70803 141.421 2.6909 142.218 2.64808C141.944 2.77655 144.152 3.08489 142.46 3.04207C143.629 3.12772 144.797 3.2048 145.966 3.32471L146.232 3.66731C147.07 3.70157 147.102 3.64161 146.103 3.49601C147.287 3.67587 151.461 3.58166 150.76 4.12125C153.532 4.21546 154.499 4.48097 157.827 4.84927C155.249 4.70366 160.68 5.70576 157.972 5.38029C159.52 5.78284 159.898 5.5002 161.147 5.6715C162.284 6.03122 161.72 6.21965 160.446 6.10831C160.946 6.14257 161.438 6.19396 161.937 6.24535L161.897 6.3053L163.202 6.37382C164.524 6.7935 163.436 6.73355 164.822 7.04188L165.177 6.83633L166.087 7.19605C165.757 6.99906 166.587 7.11897 167.602 7.3074L167.57 7.36735L168.811 7.57291C167.562 7.47013 169.915 7.88125 169.319 7.95833C170.358 8.21528 170.382 8.21528 172.284 8.60927L171.994 8.34375C174.492 8.78057 172.042 8.63496 174.025 9.14886L173.952 8.90904C176.732 9.97965 178.844 9.98822 180.882 10.819C179.665 10.5192 179.907 10.8533 179.947 10.8019C181.769 11.2473 184.686 12.1894 186.604 12.5577C187.192 13.0716 187.321 13.2258 189.166 14.0137C190.544 14.4677 190.746 14.5362 191.245 14.5191C192.527 15.1015 195.033 15.9237 195.025 16.1635C195.395 16.1036 196.177 16.6774 196.942 16.8402L197.063 16.9943L197.031 16.7459C198.095 17.4483 199.078 17.8251 200.061 18.202C201.052 18.5617 202.035 18.9643 203.075 19.718L202.664 19.5809L203.647 19.9749C203.76 20.1377 203.349 19.9921 203.252 20.0863C204.695 20.8571 206.137 21.6365 207.523 22.5016L206.766 21.8678C207.652 22.3817 208.377 22.5187 209.304 23.2895C207.499 22.493 210.666 24.1889 210.803 24.5743L209.884 24.0775C211.101 24.8398 211.085 24.8569 211.101 24.6C212.648 25.6449 211.931 25.6706 213.414 26.5271C213.107 26.2616 212.777 26.0218 212.447 25.7819C212.213 25.4736 213.051 25.8076 213.672 26.3472C213.8 26.5014 214.195 26.9382 213.696 26.5699C214.913 27.3921 216.452 28.9852 216.975 29.3535C217.483 29.9787 217.193 29.9017 216.871 29.6276C219.119 31.7603 217.854 30.6297 219.933 32.9165L219.812 32.9508C220.07 33.1992 220.279 33.4732 220.521 33.7388C220.723 34.2098 220.964 34.6723 221.134 35.1434C221.109 34.955 221.037 34.7837 220.98 34.6038C221.295 35.0064 221.44 35.3747 221.657 35.7344C221.754 35.9228 221.859 36.1112 221.972 36.3168C222.02 36.4196 222.076 36.5309 222.133 36.6508C222.173 36.7707 222.205 36.9078 222.254 37.0448C222.149 36.9249 222.052 36.7964 221.939 36.6851C222.197 37.3189 222.366 37.8328 222.512 38.2782C222.649 38.7235 222.649 39.1261 222.721 39.5029C222.866 40.2652 222.866 41.0018 223.035 42.2951C222.987 42.475 222.987 42.0639 222.923 41.8669C223.092 44.2993 222.6 43.6312 222.407 46.0722C222.391 45.9095 222.246 46.1493 222.229 46.038L222.028 47.1429L221.835 46.9801C221.875 47.3142 221.843 47.6311 221.835 47.9651L221.351 48.5047L221.287 48.9586C220.835 49.404 220.457 50.0121 220.094 50.6973C219.659 51.3397 219.232 52.0677 218.611 52.6244L219.022 52.5901C218.039 54.4916 216.339 56.2902 214.389 57.8747C212.439 59.4935 210.198 60.8296 208.079 62.2856L208.047 62.0201C207.483 62.4569 206.927 62.9109 206.347 63.3477C205.259 63.7074 206.862 62.8424 206.484 62.8852C204.541 64.0671 205.815 63.6732 203.478 64.9322C202.18 65.3519 203.848 64.5896 204.364 64.1956C202.213 65.4204 198.885 67.0306 197.176 67.4846C197.152 67.5274 197.063 67.613 197.152 67.5873C196.395 67.9385 195.492 68.2811 194.549 68.5809C193.614 68.8892 192.655 69.1975 191.777 69.463C191.793 69.3431 192.22 69.189 192.647 69.0348C192.011 69.2147 191.132 69.4031 190.625 69.6857L191.229 69.2746C189.891 69.6772 187.313 70.5594 186.958 70.4137C187.144 70.4566 187.119 70.6707 185.935 70.9533C185.564 70.8506 184.774 71.0989 183.832 71.3987C182.881 71.6899 181.777 72.024 180.81 72.1439C181.019 72.0068 182.413 71.6642 182.018 71.7499C181.043 71.8784 180.221 72.2467 179.4 72.5293L179.633 72.3237C178.159 72.7092 176.684 73.086 175.193 73.4286C174.476 73.2059 170.962 74.2423 171.228 73.9168C169.617 74.1823 172.606 73.8483 170.576 74.2423C170.012 74.1738 168.746 74.6106 168.795 74.3536L169.004 74.2937L167.586 74.542L168.448 74.1566C167.231 74.4136 166.361 74.7733 166.321 74.9703C165.136 75.0131 163.492 75.3557 162.936 75.2101L163.363 75.0902C160.092 75.6469 157.852 75.1416 155.313 75.861C155.12 75.8525 155.136 75.784 155.539 75.7411L153.508 75.9553L153.976 75.7154L150.639 76.3664L150.672 76.2379C148.448 76.4263 144.974 76.8289 142.114 77.1201L142.541 77.0259C139.43 77.4798 139.511 77.1544 137.238 77.4713C137.319 77.437 137.392 77.4199 137.48 77.4027L135.417 77.5483L135.86 77.3942C134.354 77.771 131.485 77.3428 132.436 77.5055C131.581 77.6768 130.099 77.8995 129.849 78.0708C127.601 78.2164 129.293 77.9423 127.891 77.9166C126.263 77.9766 125.989 78.2078 123.781 78.1993L123.821 78.0708C122.79 78.1479 122.153 78.2421 120.719 78.3192L121.146 78.2421C118.809 78.5847 118.213 77.9852 116.384 78.5676C115.4 78.4905 113.531 78.6189 113.62 78.362C110.702 78.5676 108.43 78.6789 105.529 78.7731C105.062 78.362 104.908 78.8074 103.144 78.5676L103.273 78.7902C99.1629 78.8074 94.4649 78.1736 89.9442 78.1136L89.8233 77.8909L88.9127 78.0965C84.0374 77.7967 77.7358 77.4113 73.8517 77.18C72.5705 77.2314 70.6365 77.3599 68.6219 77.1544L68.8314 77.1372C65.318 77.0173 61.6031 76.8203 57.8157 76.2893C58.0574 76.2208 57.6868 76.118 58.1219 76.1009C57.1952 76.2465 55.8898 75.8782 55.0839 75.784L56.0187 76.0495C54.9147 76.1523 53.3917 75.7411 52.8679 75.5184L51.1353 75.5356C51.0306 75.5013 50.8533 75.4414 50.8372 75.4071L50.5229 75.4756L49.6607 75.0559C49.2336 75.0559 46.9853 74.799 46.2439 74.9532C46.0908 74.8333 44.5356 74.4821 45.7604 74.6448L42.6902 74.0624L39.6442 73.4029L40.579 73.7027C40.6595 73.9339 38.79 73.7027 37.8714 73.3943C39.1446 73.5057 38.0325 73.1203 37.541 72.8291C36.6948 72.7434 38.2179 73.1888 37.7585 73.2059C36.6948 73.0946 34.4869 72.6492 33.9711 72.4008C34.1806 72.4351 34.3902 72.4608 34.6077 72.4779C33.1975 72.1867 32.6496 71.6214 31.2877 71.2531C30.0145 71.0904 29.1845 70.5851 29.3295 71.039C27.5648 70.5337 28.7332 70.5765 28.1772 70.3452C27.2908 70.2853 24.9458 69.2318 24.7121 68.932C23.5598 69.1461 20.3042 66.7737 19.8046 67.0392L18.6442 66.1056C18.5556 66.1827 18.1607 66.3197 17.1212 65.7544C16.259 65.0179 16.5893 64.9836 16.3718 64.6924L15.5176 64.6667C13.0437 62.6111 10.3039 60.0588 8.46657 56.8726C8.04753 56.0589 7.54792 55.2795 7.26588 54.423C7.11277 54.0034 6.89519 53.5922 6.79044 53.164C6.67762 52.7358 6.5648 52.3075 6.45199 51.8793C6.30694 51.4596 6.30694 51.0142 6.23441 50.5945C6.20218 50.1663 6.0813 49.7466 6.11354 49.3183C6.13771 48.479 6.09742 47.6482 6.29082 46.8688C6.33111 46.5176 6.32305 46.1493 6.37946 45.7725C6.46004 45.4042 6.54063 45.0188 6.62121 44.6333C6.6615 44.4363 6.69374 44.2393 6.73403 44.0424C6.80655 43.8539 6.87102 43.6569 6.94354 43.4599C7.08053 43.066 7.21753 42.672 7.36258 42.2694C7.5318 41.8754 7.75743 41.4986 7.95083 41.1131C8.16035 40.7277 8.32152 40.3166 8.60356 39.974C9.1354 39.2631 9.58667 38.5008 10.2394 37.8842L10.0138 38.2182L11.2386 36.9592L12.5844 35.8115C11.9236 36.3511 11.1903 36.8307 10.602 37.4388C11.0613 36.8136 11.4804 36.3596 12.0445 35.8457C12.7697 35.1862 13.6964 34.6209 14.5989 33.9529C15.5821 33.3705 16.5571 32.6938 17.6611 32.1285C19.7966 30.9123 22.1899 29.8246 24.4865 28.7454C27.3714 27.0239 26.6622 28.3857 29.5229 26.9553C29.2812 27.0838 29.2006 27.1866 28.9911 27.3236C32.1741 26.0731 33.9389 25.4393 37.1945 24.206C36.9285 24.8141 39.3702 23.6064 39.1365 23.9576L39.3702 23.675C40.1438 23.5979 41.9166 23.1868 41.6991 23.4009L43.1254 22.7585L43.3027 22.9384C45.2689 22.4587 49.5156 21.2168 50.6438 21.4053C55.4627 19.8721 63.247 18.2277 69.4519 17.1314C70.29 16.7802 72.1031 16.4205 73.5213 16.1464L75.0766 16.1293C76.5029 15.8038 77.9857 15.1957 79.3556 15.1443C79.3556 15.1786 79.2992 15.2043 79.2105 15.2385C80.6691 14.9473 82.0873 14.8445 83.425 14.3992C85.0367 14.1593 86.6242 14.0566 86.1568 14.3735C86.2615 13.9195 89.5816 13.9366 89.5816 13.9366C89.5816 13.9366 90.879 13.7739 93.1836 13.4913C95.4964 13.2172 98.8164 12.8232 102.87 12.4292C110.976 11.6327 122.049 10.7933 133.773 10.2966C145.498 9.76553 157.884 9.55997 168.626 9.44006C179.367 9.31159 188.457 9.2602 193.598 8.85765C194.291 8.66922 196.201 8.60927 195.484 8.32662C196.959 8.30093 197.619 8.71205 197.909 8.50649C195.911 8.2838 198.554 7.97546 196.604 7.63286H197.861C198.127 7.48726 196.145 7.73564 196.467 7.47013L196.096 7.85555C195.081 7.75277 194.525 7.64999 194.17 7.50439C193.211 7.6243 192.583 8.1382 190.302 7.82986H190.931C189.07 7.77847 189.803 7.53009 189.416 7.453L189.827 7.47013L188.264 7.21318C189.448 7.38448 191.414 7.12753 190.391 7.11897C188.175 6.93054 190.963 7.23888 189.295 7.23031C188.264 7.21318 188.562 7.01619 188.61 6.88772L186.757 6.83633C186.821 6.65646 187.982 6.88772 187.24 6.67359L184.895 6.80207C184.468 6.32243 182.349 6.95624 181.285 6.48517C182.969 6.42521 181.14 6.32243 181.406 6.17683L177.28 6.10831C176.893 6.03122 178.368 5.9884 177.74 5.99697C176.966 5.85136 176.466 6.08261 176.047 6.07405C175.693 5.92845 172.969 6.03122 173.09 5.72289C170.294 5.4745 171.905 6.09974 169.302 5.88562C168.964 5.68863 171.373 5.86849 170.221 5.65437L167.514 5.69719C167.763 5.61154 168.045 5.39742 169.053 5.44025C161.744 5.11478 157.787 4.14694 151.099 4.48097C150.148 4.26685 151.776 4.31824 152.444 4.16407C147.601 4.53236 145.611 3.78721 141.477 3.92425L141.405 4.11268C135.627 3.70157 128.705 4.3525 122.177 4.5238L122.959 4.60088C122.073 4.8407 120.63 4.94348 119.567 5.09765C119.397 5.02056 120.316 4.64371 118.43 4.85783C118.825 4.89209 119.623 4.90922 119.397 5.012C113.781 4.89209 101.983 6.00553 92.8049 7.00763C86.6242 7.88981 80.1856 8.82339 73.7873 9.91113C67.397 11.0074 61.0471 12.2408 55.0678 13.6711C56.889 13.2429 56.204 13.8596 54.8099 14.0737C50.8936 14.1765 48.3149 15.7524 44.4067 16.1807C37.549 18.1506 31.1185 19.1356 24.8572 22.0733L24.6638 21.9106C23.6726 22.1761 23.4631 22.4416 22.4639 22.8527V22.7842C21.2632 23.1953 19.9819 23.8548 18.8134 24.403C17.6611 25.0282 16.6296 25.5421 15.9527 25.8762L15.9769 26.1417C14.6312 26.9382 15.1872 26.3729 13.8656 27.2979L13.8495 27.1695L12.3829 28.4114C12.3507 28.1801 11.3998 28.7625 10.3683 29.619C9.30463 30.407 8.22481 31.5119 7.67685 31.8887C7.28199 32.2485 6.84684 32.7538 6.3714 33.3276C5.89596 33.9015 5.33994 34.501 4.85644 35.2547C3.80886 36.6594 2.85798 38.3467 2.10855 39.9141C2.0038 40.0425 1.81845 40.3937 1.59282 40.8819C1.37525 41.3787 1.06903 41.9953 0.891749 42.7491C0.706408 43.4942 0.424367 44.2907 0.319608 45.1044C0.206792 45.9266 0.102034 46.7317 0.00533413 47.4341C-0.0591324 50.2091 0.4566 53.5666 1.77816 56.7099C3.06749 59.8618 5.04178 62.7567 7.18529 65.0949L7.29811 64.8123C7.66073 65.2234 8.07977 65.566 8.46657 65.9514C8.41016 65.9771 8.54715 66.157 8.35375 66.0114C9.0387 67.1933 11.2225 68.401 12.1412 69.3346C11.6254 68.6494 11.2709 68.6066 10.5537 68.0327C9.60279 67.0991 10.739 67.6815 12.0445 68.8892L11.98 68.9149C12.3265 69.1119 12.6891 69.2832 13.0437 69.463C13.0437 69.72 13.8979 70.4138 13.914 70.6793C14.462 71.0561 15.0099 71.3388 15.5498 71.6128C16.0897 71.8869 16.6055 72.1524 17.1212 72.4094C18.1446 72.9062 19.1277 73.2573 20.1108 73.677C21.0859 74.1052 22.0932 74.4393 23.1327 74.8247C24.1803 75.2187 25.2682 75.6384 26.4688 76.0495C25.9048 76.118 29.95 77.1458 28.8702 77.2314C31.8357 77.9081 28.4754 76.7604 29.8856 76.8546C30.6995 77.0944 31.5778 77.2229 31.6906 77.4199C31.2797 77.4113 32.295 77.8567 31.6181 77.7111C32.2708 77.8824 32.9235 78.0708 33.5763 78.2078C33.7536 78.2849 33.3104 78.2335 33.0847 78.2078C35.1074 78.559 36.8641 79.1071 38.5805 79.5011C39.4347 79.7153 40.2808 79.9208 41.143 80.1093C42.0053 80.2805 42.8756 80.4176 43.7862 80.5118C44.0763 80.409 42.3598 80.2206 42.6499 80.1093C46.3165 80.4433 45.8169 80.94 49.2336 81.2227L48.5083 81.3255C49.6204 81.3426 50.12 81.2398 51.9009 81.6252C52.191 81.9079 50.3456 81.6509 49.4673 81.6252C50.7083 81.8137 53.8429 82.1306 52.9162 81.788C54.407 81.8993 54.9227 82.1734 55.7125 82.3276C55.7447 82.2676 54.3426 82.0107 55.2209 81.9935C56.2201 82.1734 57.5014 82.3447 58.8391 82.4989C60.1768 82.6273 61.5709 82.7644 62.8038 82.8929C62.7796 82.9528 62.9408 83.0641 62.7232 83.0727C64.7297 82.9185 64.4799 83.441 67.2036 83.5866V83.6037Z" fill="#AD96DC"/>
<path d="M197.764 72.0068C197.442 72.1182 197.12 72.2295 196.797 72.3237C196.814 72.3751 196.789 72.4522 196.362 72.6663C196.83 72.4608 197.305 72.2467 197.764 72.0154V72.0068Z" fill="#AD96DC"/>
<path d="M151.26 81.1542C151.139 81.1884 151.018 81.2141 150.913 81.257C151.155 81.2227 151.228 81.1884 151.26 81.1542Z" fill="#AD96DC"/>
<path d="M139.89 82.653C140.703 82.5331 139.97 82.5245 139.567 82.4903C139.551 82.5417 139.567 82.6016 139.89 82.653Z" fill="#AD96DC"/>
<path d="M220.658 56.3844C220.561 56.5471 220.513 56.667 220.569 56.6756C220.69 56.4444 220.698 56.3758 220.658 56.3844Z" fill="#AD96DC"/>
<path d="M178.062 7.19605C178.15 7.23031 178.231 7.26457 178.336 7.31596C178.287 7.2817 178.191 7.24744 178.062 7.19605Z" fill="#AD96DC"/>
<path d="M181.922 8.69492C182.115 8.75487 182.365 8.82339 182.736 8.90047C182.389 8.78057 182.131 8.72061 181.922 8.69492Z" fill="#AD96DC"/>
<path d="M205.871 67.8871C205.629 68.0327 205.388 68.1697 205.186 68.3153C205.581 68.1269 205.758 67.9899 205.871 67.8871Z" fill="#AD96DC"/>
<path d="M183.574 9.09747L184.557 9.42293C184.557 9.42293 184.581 9.39724 184.589 9.38011L183.574 9.09747Z" fill="#AD96DC"/>
<path d="M176.805 6.82776C177.2 6.93054 177.723 7.07614 178.062 7.19605C177.578 6.9905 177.183 6.87915 176.805 6.82776Z" fill="#AD96DC"/>
<path d="M220.126 28.8396C220.126 28.8396 220.183 28.891 220.207 28.9167C220.868 29.4649 220.465 29.1051 220.126 28.8396Z" fill="#AD96DC"/>
<path d="M188.022 10.0653C188.022 10.0653 188.111 10.0996 188.151 10.1167L188.457 10.151L188.022 10.0653Z" fill="#AD96DC"/>
<path d="M172.477 5.6458C172.671 5.68863 172.848 5.71432 172.993 5.72289C172.84 5.68006 172.655 5.62867 172.429 5.56015C172.477 5.60298 172.485 5.62867 172.485 5.6458L172.477 5.6458Z" fill="#AD96DC"/>
<path d="M207.547 18.7587C207.241 18.6987 207.12 18.6987 207.088 18.733C207.394 18.8957 207.612 18.9643 207.547 18.7587Z" fill="#AD96DC"/>
</svg>
