<svg width="288" height="15" viewBox="0 0 288 15" fill="none" xmlns="http://www.w3.org/2000/svg">
<path d="M22.6064 11.9895L21.7098 12.0541C22.1132 12.0325 22.3768 12.0183 22.6064 11.9895Z" fill="#231F20"/>
<path d="M181.049 0.609349L181.841 0.599652C181.469 0.59498 181.23 0.599616 181.049 0.609349Z" fill="#231F20"/>
<path d="M19.2849 5.87345L19.2772 5.88209C19.3018 5.88076 19.3101 5.88032 19.3348 5.87899C19.3101 5.88032 19.3019 5.88076 19.2854 5.88165L19.2849 5.87345Z" fill="#231F20"/>
<path d="M29.0717 11.8148C29.128 11.7871 29.1513 11.7612 29.1583 11.7361L29.1418 11.737C29.0855 11.7647 29.0538 11.7911 29.0717 11.8148Z" fill="#231F20"/>
<path d="M286.826 4.60654L284.336 4.67459C288.003 4.51869 284.035 4.30454 283.91 4.13047C283.692 4.22435 283.415 4.28036 283.127 4.30404L284.685 5.01741C285.263 4.8549 288.052 4.82008 286.826 4.59834L286.826 4.60654Z" fill="#231F20"/>
<path d="M266.783 8.41155L266.995 8.66312C268.483 8.6982 268.868 8.48851 270.423 8.37213L270.394 8.44764C273.799 8.33867 277.845 7.86657 280.079 7.80403L280.027 4.71708C280.671 4.69896 281.297 4.68172 281.883 4.6667C280.976 4.247 282.125 4.41537 283.144 4.31135L281.797 3.69344C282.126 3.65935 282.163 3.5834 282.491 3.54112C281.887 3.67218 280.88 3.68519 280.006 3.7075L279.994 3.48628C280.511 3.43383 280.987 3.3672 280.769 3.31315L280.001 3.32152L279.947 0.0374817C279.748 0.0317126 279.575 0.0328087 279.426 0.0243852L279.337 0.209952C278.859 0.235611 278.382 0.26127 277.905 0.295123C277.448 0.245714 277.378 0.175511 275.94 0.310286L276.014 0.158378L273.413 0.470684C273.69 -0.0536829 267.296 0.51173 265.574 0.291953C262.766 0.434618 257.419 0.68077 253.171 0.613197C252.397 0.350738 247.172 0.40136 243.853 0.275603C237.367 0.361138 228.099 0.489246 219.843 0.382239L219.969 0.720615L217.815 0.745954C217.852 0.67 217.569 0.635881 217.898 0.593604C216.258 0.213284 212.916 0.713331 211.202 0.476725C212.267 0.781055 212.708 0.527305 213.939 0.535128C215.69 0.695781 213.973 1.0263 211.602 0.857857L211.656 0.781018L210.014 0.959627C209.851 0.697205 208.382 0.570672 208.22 0.308249C201.112 0.361416 196.239 0.812211 188.915 0.679793C189.691 0.383324 183.633 0.749899 185.15 0.241107C180.725 0.429515 185.841 0.655916 183.796 1.01232C182.565 1.0045 181.26 1.14858 181.059 0.953919C181.647 0.831937 180.084 0.644722 181.089 0.598943L178.143 0.633978C177.868 0.591223 178.517 0.523499 178.845 0.489416C172.824 0.780037 168.232 0.163924 162.831 0.462333C162.42 0.648765 164.964 0.512063 164.553 0.698496C159.107 1.08149 159.794 0.362501 154.714 0.651849L155.782 0.389057C154.132 0.576302 153.401 0.796375 150.739 0.602451C150.293 0.297716 153.038 0.347484 154.343 0.195206C152.501 0.187346 147.824 0.290705 149.226 0.560509C147.01 0.671321 146.219 0.401553 145.034 0.325527C144.989 0.401923 147.085 0.519414 145.779 0.663497C142.781 0.5041 138.133 0.54014 134.451 0.557194C134.488 0.48124 134.235 0.37161 134.563 0.329333C131.579 0.75256 131.931 0.0762854 127.858 0.19651C116.977 0.419523 102.856 1.0549 92.0553 1.23252C90.8784 1.46009 89.4322 1.59531 87.8521 1.69664C86.2728 1.81435 84.5514 1.89862 82.8308 1.99928L82.4643 1.48484L79.588 1.74619C78.4171 1.62831 81.8004 1.57803 79.7284 1.44282L78.6414 1.80526C78.4167 1.62012 71.2564 1.92263 76.0749 1.38436L70.4857 1.5696L64.8913 1.81264C62.4187 1.90439 63.4569 2.31701 60.7228 2.30776C60.1627 2.18173 61.6974 2.1568 61.4731 1.97985C57.3598 1.97074 55.0007 2.32757 52.7171 2.705C50.4265 3.10746 48.2197 3.53006 44.3848 3.62926L45.0314 3.52057C43.7383 3.73796 41.267 3.85429 41.2381 3.9298C42.2547 4.4011 42.589 3.5614 44.9445 3.74711C44.7713 4.20837 42.0511 4.14908 42.2262 4.4848C40.4308 4.42513 39.3989 4.73531 37.8443 4.8517C35.1685 4.69963 31.3719 5.19943 29.3454 4.98782C28.0614 5.22115 26.6453 5.75741 23.8573 5.97293C21.823 5.76997 24.2916 5.60447 21.5533 5.66941L21.148 5.96236C18.9082 6.08269 19.2496 5.98218 19.317 5.85529C16.9221 6.00861 17.3712 6.3707 14.3611 6.45025L15.9998 6.05816C14.0727 6.30961 13.1344 6.36824 10.8561 6.53994C10.5583 6.53129 10.2532 6.53947 9.95587 6.539C10.3133 6.42941 11.2594 6.36215 12.0009 6.33053C10.9609 6.18918 10.1446 6.36452 9.45224 6.54141C8.45454 6.57036 7.45947 6.64847 6.42813 6.81892C6.13769 6.79344 6.16666 6.71793 6.77646 6.69338L3.68628 6.81832L4.41584 6.56547L0.804174 6.97316L0.89025 7.79849C0.775857 7.82107 0.669693 7.84321 0.554856 7.8576L1.04396 12.7618C1.15102 12.756 1.27452 12.7494 1.38981 12.7432L1.47811 13.6095L2.92763 13.3837L2.88623 13.5338C6.2268 13.3051 11.4177 12.7796 15.6981 12.3689L15.0689 12.4931C19.7166 11.849 19.5988 12.2662 23.0119 11.8527C22.8989 11.8999 22.7845 11.9224 22.6532 11.9377L25.738 11.7145L25.0712 11.9064C26.255 11.6538 27.9892 11.651 29.1803 11.6857C29.1803 11.6857 29.1885 11.6852 29.1967 11.6848C29.1967 11.6848 29.1967 11.6848 29.1972 11.693C30.2643 11.726 30.8781 11.7752 30.2049 11.6963C30.2868 11.6837 30.3847 11.662 30.4749 11.649C30.725 11.6931 30.934 11.7394 30.7967 11.796L36.9726 11.7683C37.5465 11.8443 35.3384 11.9383 36.2784 11.9124C37.4268 12.0726 38.1953 11.7765 38.8229 11.7757C39.3437 11.9367 43.4302 11.7583 43.2357 12.1303C47.4108 12.3661 45.0346 11.6474 48.9271 11.8492C49.4267 12.0771 45.8256 11.9172 47.5392 12.1456L51.5969 12.0426C51.223 12.1531 50.783 12.4151 49.2694 12.3731C54.7355 12.5067 58.9255 12.8651 63.0109 13.1222C67.0968 13.3875 71.0634 13.5853 76.0818 13.3814C77.483 13.6348 75.0518 13.5764 74.0378 13.7624C81.3223 13.3135 84.2215 14.2342 90.4176 14.1232L90.5374 13.8949C99.1317 14.4521 109.539 13.8766 119.28 13.9449L118.116 13.8102C119.466 13.5651 121.634 13.4979 123.237 13.3625C123.483 13.4726 122.067 13.8609 124.899 13.7087C124.318 13.6414 123.125 13.5822 123.482 13.4644C127.664 13.667 134.176 13.5966 141.364 13.498C148.55 13.3667 156.418 13.174 163.309 13.0914C181.932 12.3292 202.145 11.9418 220.433 10.9428C217.641 11.0928 218.814 10.4874 220.913 10.5143C226.698 11.1896 230.872 9.88889 236.77 10.213C242.091 9.79567 247.137 9.65601 252.09 9.45568C257.042 9.24715 261.903 9.0271 266.83 8.35973L266.783 8.41155ZM13.9421 12.5783L13.9893 12.5347C13.9893 12.5347 13.9742 12.5601 13.9421 12.5783ZM141.965 8.13263C141.916 8.14348 141.85 8.15521 141.752 8.16871C141.817 8.15698 141.891 8.14481 141.965 8.13263Z" fill="#231F20"/>
<path d="M283.919 4.13823C283.959 4.11963 284.008 4.10059 284.04 4.08243C283.934 4.10457 283.901 4.12272 283.919 4.13823Z" fill="#231F20"/>
<path d="M285.236 5.27543L284.694 5.02516C284.482 5.08582 284.561 5.16378 285.236 5.27543Z" fill="#231F20"/>
<path d="M18.7958 5.68608C17.5733 5.83393 18.6803 5.8402 19.2849 5.87345C19.3065 5.81477 19.2779 5.74235 18.7958 5.68608Z" fill="#231F20"/>
</svg>
