<svg width="31" height="112" viewBox="0 0 31 112" fill="none" xmlns="http://www.w3.org/2000/svg">
<path d="M14.2446 83.1209L14.3394 82.7703C14.2614 82.9982 14.2446 83.0858 14.2446 83.1209Z" fill="white"/>
<path d="M22.5833 29.3267L22.4941 29.7342C22.5387 29.5502 22.5722 29.4319 22.5833 29.3267Z" fill="white"/>
<path d="M15.6047 67.9953C15.588 67.8726 15.5991 67.6666 15.6047 67.4694C15.5712 67.7192 15.5601 67.9208 15.6047 67.9953Z" fill="white"/>
<path d="M23.6312 5.89339C23.6312 5.89339 23.6201 5.9153 23.6145 5.94597C23.6312 5.97226 23.6312 5.94597 23.6312 5.89339Z" fill="white"/>
<path d="M10.5993 82.1964C10.5993 82.7397 10.6773 83.2041 10.7442 83.6905L10.5993 82.1964Z" fill="white"/>
<path d="M23.6591 34.4051L23.6312 34.2824C23.6312 34.3964 23.6424 34.4139 23.6591 34.4051Z" fill="white"/>
<path d="M25.5877 47.3487L25.5319 47.708C25.5598 47.5371 25.5765 47.4275 25.5877 47.3487Z" fill="white"/>
<path d="M11.5468 82.4286C11.5245 82.468 11.5134 82.5162 11.4967 82.5644C11.5134 82.6608 11.5245 82.766 11.5245 82.8755L11.5468 82.4286Z" fill="white"/>
<path d="M20.3258 43.0108C20.3258 43.0108 20.3258 43.0239 20.3258 43.0327C20.3314 43.0765 20.337 43.1116 20.3426 43.1598L20.3258 43.0152V43.0108Z" fill="white"/>
<path d="M20.5265 39.7114C20.5321 39.9436 20.5432 40.1671 20.5544 40.4168C20.5711 40.0444 20.5544 39.8472 20.5265 39.7114Z" fill="white"/>
<path d="M10.7442 83.6949L10.8278 84.5493C10.8166 84.2426 10.7832 83.9622 10.7442 83.6949Z" fill="white"/>
<path d="M21.3124 4.07498C21.3292 4.15385 21.3403 4.23711 21.3403 4.31598C21.3403 4.24149 21.3292 4.15824 21.3124 4.07498Z" fill="white"/>
<path d="M21.2567 3.8559C21.279 3.93039 21.3013 4.00488 21.3124 4.0706C21.3013 3.99611 21.279 3.92601 21.2567 3.8559Z" fill="white"/>
<path d="M21.1229 3.53165C21.1731 3.62367 21.2121 3.71568 21.24 3.80332C21.2065 3.7113 21.1675 3.61929 21.1229 3.53165Z" fill="white"/>
<path d="M21.24 3.79894C21.24 3.79894 21.2511 3.83837 21.2567 3.8559C21.2511 3.83837 21.2456 3.81646 21.24 3.79894Z" fill="white"/>
<path d="M20.9111 3.21179C21.0003 3.32133 21.0672 3.42649 21.1229 3.52289C21.0616 3.40896 20.9947 3.3038 20.9111 3.21179Z" fill="white"/>
<path d="M21.1173 3.52289C21.1173 3.52289 21.1173 3.52289 21.1173 3.52758C21.1173 3.52758 21.1173 3.52758 21.1173 3.52289Z" fill="white"/>
<path d="M15.287 70.4928C15.2703 70.5717 15.2535 70.6856 15.2368 70.7776C15.2591 70.8083 15.2758 70.7908 15.287 70.4928Z" fill="white"/>
<path d="M15.8332 47.0858C15.928 46.6783 15.9559 46.0866 15.9336 45.7668C15.8611 46.1786 15.8165 46.5687 15.8332 47.0858Z" fill="white"/>
<path d="M12.4721 69.3227C12.4721 69.3227 12.4777 69.3271 12.4833 69.3227C12.4833 69.3141 12.4833 69.3097 12.4777 69.3054V69.3184L12.4721 69.3227Z" fill="white"/>
<path d="M13.1243 63.7231C13.0908 63.8107 13.063 63.929 13.0351 64.078C13.0685 63.986 13.0964 63.8589 13.1243 63.7231Z" fill="white"/>
<path d="M30.9721 2.55453C30.8941 2.24781 30.7324 1.8929 30.3423 1.5555C30.1973 1.31889 29.9298 1.06475 29.5285 0.871959C29.0937 0.753653 28.5586 0.722981 28.0737 0.832523C27.5776 0.937684 27.1986 1.14801 26.9199 1.37585C26.7972 1.48102 26.6913 1.58618 26.5966 1.70448C26.5241 1.80088 26.4572 1.90166 26.4015 2.00244C26.3513 2.09445 26.3179 2.17771 26.2844 2.26534C26.2398 2.38365 26.251 2.36612 26.2398 2.40117L26.0782 3.04528C25.8274 3.5448 26.3457 2.05502 25.9444 2.94889L25.9611 3.46593C25.8274 3.5448 24.8296 6.72153 25.3257 4.54383C25.0637 5.34568 24.8017 6.14753 24.5453 6.94938V6.73906C24.3781 5.33691 24.2611 5.14412 24.1663 5.11783C24.0716 5.09154 23.9768 5.23175 23.765 4.51315C23.4194 2.82182 23.6814 3.15921 23.765 3.04966C23.7594 2.78238 23.5643 1.93233 23.425 1.49416C23.7538 2.51072 23.6479 3.42211 23.425 2.96203C23.5309 2.18647 22.9735 0.446934 22.7895 0C22.9846 2.44499 23.0905 1.67819 23.241 3.97859C23.3748 4.28092 23.5866 4.20643 23.7538 5.57791C23.4807 4.73662 23.6535 5.64801 23.6424 5.89339C23.7315 5.61734 23.8375 6.83546 23.9489 7.24734C23.9043 7.63731 23.5365 6.45863 23.6869 7.84763L24.027 8.07986C24.0604 8.58814 23.8151 7.97032 23.9712 8.80284C23.9656 8.82913 23.9545 8.85104 23.9489 8.87733C23.7706 8.5487 23.7706 9.07012 23.5197 7.67236C23.5197 8.41287 23.6145 9.0044 23.7427 9.54335C23.4194 10.5862 23.7817 10.205 23.3469 11.388C23.1909 11.6203 23.425 10.9411 23.2968 11.0244C22.6279 12.8252 22.4718 13.9075 22.3213 14.9591C22.1764 16.0107 22.0315 17.0273 21.5075 18.723L21.5465 18.4251C21.4629 19.021 21.1619 20.1252 21.1954 20.1427C21.5911 19.7527 21.2065 19.503 21.6524 18.4908C21.8643 18.6222 21.4351 19.8097 21.6302 19.7746C21.3292 20.5589 21.3403 21.0497 21.1675 21.7508C21.0393 22.0663 20.9223 22.4212 20.8108 22.7936C20.7718 19.3671 20.9724 14.7269 21.1675 10.9367C21.0728 10.3233 21.1118 9.0526 21.1396 8.06233L21.3515 7.00634C21.3515 6.50245 21.3013 5.98102 21.279 5.46836C21.2678 5.21423 21.2567 4.96009 21.2623 4.71033V4.5263L21.2678 4.48248V4.36418C21.2678 4.27654 21.2678 4.20205 21.2456 4.10127C21.1842 3.74197 21.017 3.26437 20.4429 2.84372C20.4875 2.85687 20.6937 2.97518 20.9167 3.22493C20.7104 2.97956 20.4262 2.73856 19.997 2.5633C19.5845 2.38803 19.016 2.29601 18.4864 2.37926C18.2133 2.41432 17.9792 2.49319 17.7507 2.58959C17.55 2.6816 17.3438 2.80867 17.21 2.9226C17.0651 3.0409 16.9424 3.17235 16.8644 3.28189C16.8198 3.33886 16.7808 3.4002 16.7418 3.46154L16.6637 3.61929C16.608 3.72883 16.5746 3.82961 16.5523 3.91724C16.53 4.00049 16.5021 4.13633 16.5021 4.13633L16.4687 4.32036L16.4073 4.68842C16.3293 5.17917 16.268 5.66116 16.2624 6.14753C16.0952 7.13341 15.8611 8.08862 15.744 8.05357C15.7998 8.23322 15.705 8.73273 15.588 9.2191C15.4542 9.7931 15.287 10.354 15.287 10.354C15.287 10.354 14.6683 13.9426 13.86 19.5555C13.0518 25.1685 12.1042 32.8189 11.4075 40.9207C10.6996 49.0269 10.237 57.5843 10.1255 65.0026C10.0084 72.4164 10.2147 78.6866 10.6048 82.2139C10.7442 82.6871 10.8389 84.0016 11.0006 83.4977C11.0563 84.5099 10.8111 84.9743 10.9504 85.1715C11.0396 83.7957 11.3127 85.5965 11.48 84.2514L11.5134 85.1146C11.6137 85.2898 11.3963 83.9403 11.5803 84.1506L11.3183 83.9096C11.3573 83.2085 11.4075 82.8273 11.4967 82.5776C11.3963 81.9203 11.0396 81.4997 11.1901 79.931L11.2068 80.3648C11.2068 79.0854 11.3796 79.5805 11.4242 79.3132V79.598L11.558 78.5201C11.4632 79.3351 11.6639 80.6847 11.6527 79.9792C11.7419 78.4544 11.5859 80.3736 11.5636 79.2299C11.558 78.5201 11.6918 78.7217 11.7754 78.7523V78.06C11.7754 78.06 11.8088 77.9855 11.8311 77.8935C11.8311 78.0031 11.8311 78.0381 11.8924 77.8059L11.8813 77.6832C11.9036 77.6131 11.9259 77.6306 11.9259 77.8848L11.7754 79.8565C11.9147 79.6287 11.9872 78.9364 12.0095 79.9617C11.9872 80.8249 11.9314 81.2368 11.8478 82.3629C11.7977 82.1964 11.6416 82.709 11.7029 81.8677C11.6137 82.4067 11.5636 83.2567 11.6695 83.5897C11.8423 82.3629 11.6695 85.6141 11.9091 84.7027L11.7364 85.9296C11.7531 85.6491 11.675 85.6141 11.7196 85.2022C11.519 85.544 11.7196 86.21 11.7196 86.6394C11.6639 87.0732 11.5914 88.1905 11.5134 88.2913C11.5301 88.4841 11.5357 88.7777 11.8255 89.1282C11.9649 89.2947 12.1878 89.4787 12.539 89.5883C12.879 89.7022 13.364 89.6891 13.6984 89.5445C14.0384 89.4043 14.2279 89.2071 14.3394 89.0493C14.4007 88.9705 14.4342 88.9004 14.4732 88.8302C14.4899 88.7996 14.5066 88.7689 14.5233 88.7382C14.5847 88.6287 14.6404 88.5454 14.6794 88.506C14.8689 87.9408 14.5847 88.4315 14.5902 88.2562L15.365 86.3765C15.5044 86.302 15.8388 86.21 15.7608 86.5036C15.9614 85.7674 15.5768 86.1749 16.0227 85.1014C15.9614 85.7674 16.7418 83.7124 16.608 84.6632C17.0205 84.0849 17.6448 82.2971 17.9458 81.3069C18.0126 80.6671 17.4775 82.3497 17.3493 82.2489C17.812 80.8687 17.9569 80.1107 18.0795 79.449C18.2077 78.7874 18.3192 78.2265 18.6648 77.2144L18.453 77.7314C18.7651 76.4432 18.7373 76.5922 18.8376 75.8254C18.9101 76.2153 19.8353 74.4889 20.4039 72.3901C20.3593 72.1973 19.8855 73.5294 19.8242 73.1569C19.958 72.6924 20.0639 72.2236 20.1865 71.7591C20.2311 71.6627 20.2199 71.8205 20.1976 72.0045C20.2924 71.5663 20.4317 71.1588 20.56 70.7908C20.6101 70.7557 20.6659 70.7207 20.7049 70.6856C20.7773 70.6243 20.8442 70.5629 20.9055 70.5016C20.9557 70.4446 21.0059 70.3877 21.0505 70.3263C21.1508 70.1993 21.2065 70.0941 21.2623 69.9889C21.3236 69.875 21.3515 69.7786 21.3793 69.6866L21.4183 69.542L21.4295 69.485L21.4685 69.3054C21.5688 68.8234 21.6747 68.3414 21.7751 67.855C21.9869 66.8867 22.1931 65.9227 22.3994 64.9894L22.2043 65.0332L22.3882 64.0517C22.4272 64.0692 22.4718 63.9422 22.4607 64.0912C22.7394 63.5172 22.8286 62.4568 22.9846 61.6549C22.9958 61.6549 23.0014 61.6549 23.0181 61.6418C23.0181 61.6067 23.0125 61.5761 23.0069 61.5498C23.0459 61.3657 23.085 61.1949 23.1407 61.0546C23.0627 61.1992 23.0181 61.3219 22.9902 61.4359C22.9791 61.3833 22.9623 61.3526 22.9456 61.3482C22.9177 61.5103 22.9066 61.6286 22.9456 61.6593C22.9233 61.8346 22.9177 62.0274 22.862 62.299C22.6892 62.8424 22.6279 62.6408 22.7059 62.1194C22.8063 61.6856 22.8954 61.3307 22.9456 61.3482C23.0069 61.0108 23.163 60.4894 23.1909 60.209C23.2132 60.1652 23.2355 60.117 23.2578 60.0688L23.3469 60.117C23.3191 60.0994 23.2968 60.0644 23.2856 60.0162C23.3581 59.8672 23.4305 59.7314 23.4974 59.7051C23.8096 58.0137 24.0047 56.5984 24.2109 55.1569C24.2276 55.1262 24.2499 55.0955 24.2666 55.0692C24.2499 55.0517 24.2388 55.0254 24.2332 54.9947C24.4171 53.7328 24.6122 52.4402 24.9132 50.9198C25.008 51.2791 25.2978 48.5186 25.4539 49.2197C25.649 47.5634 25.3368 48.8341 25.1975 48.8209C25.2755 48.3389 25.3536 47.8613 25.426 47.4714V47.4013C25.4873 47.3574 25.61 47.0069 25.571 47.3618L25.7772 46.021C25.8218 45.8939 25.8106 46.1963 25.7995 46.3453C26.1005 43.6023 26.7749 41.5254 26.9867 39.0585C26.9143 38.8657 26.8084 40.0269 26.7359 39.8384C26.9031 37.354 27.2543 37.6783 27.4438 35.3603L27.5107 35.8511C27.5218 35.0974 27.455 34.7644 27.7392 33.5507C27.9343 33.3491 27.7225 34.6023 27.7114 35.1982C27.8396 34.3569 28.1015 32.2318 27.8619 32.8628C27.9566 31.8506 28.1406 31.5001 28.2632 30.9567C28.2242 30.9348 28.0291 31.89 28.0346 31.2897C28.3133 29.927 28.5976 27.8107 28.8206 26.1325C28.8596 26.15 28.9321 26.0405 28.9376 26.1851C28.893 24.8223 29.2498 24.9932 29.4226 23.1354C29.9688 18.1797 30.437 11.743 30.9331 6.82669C30.8718 6.28774 30.8718 5.62611 30.8997 4.90312C30.9164 4.54383 30.9387 4.167 30.9554 3.78141C30.9666 3.58861 30.9777 3.39582 30.9889 3.19864L31 2.98832C31 2.85687 30.9889 2.70789 30.9554 2.55453H30.9721ZM16.2345 63.469C16.1621 63.5259 16.0841 63.3945 16.1788 62.654C16.2067 62.6101 16.2345 62.5532 16.2513 62.4831C16.2457 62.8205 16.2401 63.1535 16.229 63.4646L16.2345 63.469ZM16.2067 43.5585C16.2067 43.5585 16.2067 43.5541 16.2067 43.5497C16.2067 43.5497 16.2067 43.5541 16.2067 43.5585ZM25.5041 18.0219L25.4595 18.3155C25.5041 18.0658 25.5542 17.8467 25.61 17.6495C25.5765 17.9475 25.5431 18.2323 25.5096 18.5039C25.4929 18.4908 25.4706 18.4294 25.4372 18.2936C25.4428 18.2717 25.4483 18.241 25.4539 18.2147C25.4706 18.1534 25.4873 18.092 25.5041 18.0263V18.0219ZM26.1005 35.3735C26.0893 35.4129 26.0782 35.448 26.0726 35.4786C26.0782 35.4348 26.0893 35.3954 26.1005 35.3735ZM24.2443 6.65581C24.5342 7.13779 23.9991 5.5078 24.2945 5.85834C24.4171 6.15191 24.4562 6.55941 24.5286 6.96691C24.4673 7.15094 24.4116 7.33935 24.3558 7.52338C24.3057 7.2561 24.2666 6.97129 24.2443 6.65581ZM21.8029 32.4596L21.7751 32.7576C22.1374 30.6193 22.3213 30.7201 22.5889 29.1558C22.5944 29.2128 22.5889 29.2654 22.5889 29.3224L22.9289 27.929V28.2488C23.0181 27.1928 23.882 25.335 23.581 25.9484C23.6535 25.3525 23.8096 24.336 23.7538 24.1476C24.1384 22.6315 23.9489 23.7926 24.2666 22.8637C24.5063 22.0005 24.5007 21.6807 24.7237 20.8569C24.7794 21.3915 24.7739 21.7464 24.6011 21.5799C24.7627 22.5219 24.7962 23.1661 24.8352 23.8584C24.8631 24.3579 24.8909 24.8837 24.9355 25.5672C24.9188 25.6987 24.9021 25.8301 24.8854 25.966C24.8352 25.9572 24.8129 26.3735 24.7906 26.7109C24.7739 26.8511 24.7572 26.9869 24.7404 27.1227C24.7237 27.0877 24.707 26.9387 24.6791 26.6013C24.6624 26.9519 24.6791 27.2104 24.7014 27.4338C24.6512 27.7844 24.6011 28.1349 24.5453 28.4854C24.5453 28.446 24.5398 28.4022 24.5342 28.3584L24.5453 28.4898C24.4896 28.8491 24.4394 29.204 24.3837 29.5677C24.3503 29.4231 24.2889 29.5853 24.2778 29.4538C24.3168 30.0848 24.066 30.9261 23.9935 31.4606L24.1886 30.8121C24.2221 31.5702 23.9434 32.6305 23.7817 33.003L23.765 34.1992C23.7371 34.2737 23.6981 34.392 23.6758 34.4095L23.7204 34.6242L23.4417 35.2333C23.4417 35.5312 23.2522 37.0955 23.3581 37.5994C23.2801 37.7089 23.0627 38.8044 23.1574 37.9499L22.4328 42.2484L22.6056 41.5824C22.7617 41.5122 22.639 42.8136 22.4718 43.4752C22.4997 42.5858 22.2823 43.3832 22.1207 43.7469C22.1039 44.3384 22.3269 43.2518 22.3548 43.5673C22.338 44.3122 22.1151 45.872 21.9869 46.2576L22.0036 45.8107C21.8866 46.8141 21.5633 47.2479 21.4128 48.2338C21.3738 49.1276 21.1508 49.7674 21.4239 49.614C21.2456 50.8979 21.1731 50.0872 21.0783 50.4991C21.0839 51.1126 20.6993 52.8871 20.5321 53.1018C20.6268 53.4086 20.5098 54.0439 20.3593 54.7012L20.4039 53.0536L20.2701 54.9772C20.2367 54.3988 20.1753 53.9519 20.1753 53.391C20.298 50.486 20.454 46.6169 20.337 43.0371C20.0137 40.7192 20.6547 41.4991 20.4262 39.282C20.454 39.4704 20.5042 39.5405 20.5377 39.7114C20.5209 39.2294 20.5042 38.7912 20.4875 38.3793C20.4875 38.3399 20.4986 38.3005 20.5042 38.261L20.5767 38.3005C20.9334 36.7932 21.3682 34.4139 21.8085 32.4684L21.8029 32.4596ZM16.4575 30.5492C16.4575 30.7333 16.4519 30.9217 16.4464 31.1057C16.385 31.3555 16.3237 31.6184 16.2903 31.4957C16.346 31.2065 16.4018 30.8822 16.4575 30.5448V30.5492ZM13.9604 53.058C14.1499 52.4183 14.0273 53.5269 14.0941 53.987C14.1109 50.67 14.7073 49.3467 14.9079 46.5293L14.7909 46.4723C15.4542 42.5639 15.6604 37.836 16.2847 33.4149L16.1454 33.9363C16.0952 33.3185 16.19 32.337 16.2123 31.6052C16.268 31.5263 16.3516 31.8637 16.4241 31.5132C16.3182 34.8477 16.1231 38.0113 16.3683 41.2756L16.2234 41.3633C16.1509 42.0381 16.2513 42.2221 16.2568 42.9319L16.2178 42.9144C16.2178 43.0152 16.2123 43.1159 16.2067 43.2167C16.1231 43.8827 16.0116 44.5531 15.9559 44.3823L16.1286 44.632C16.0506 45.0702 15.9837 45.4163 15.928 45.7494C16.0004 45.8896 16.1565 45.4207 16.2178 45.4645C16.2178 45.6091 16.2234 45.7537 16.2234 45.8939C16.2234 45.9027 16.2234 45.9071 16.2234 45.9159C16.0952 47.0682 15.8945 46.4986 15.9614 46.6914C15.7719 48.2776 16.0841 47.3706 15.744 48.8779C15.7496 48.7245 15.7663 48.4266 15.8109 48.2951C15.5267 49.373 15.3929 50.9723 15.0863 51.2659C15.0529 51.0994 14.9804 51.06 15.064 50.6481L15.103 50.67C15.103 49.5439 15.0138 51.3535 14.8578 51.3229C14.9079 51.577 14.685 52.8258 14.5679 53.4261L14.763 53.2245C14.8856 55.5687 14.462 53.0712 14.1666 55.3497C14.0718 56.8044 14.2837 54.8063 14.2781 55.7046C14.1164 56.6773 13.9214 57.0322 13.7931 58.465C13.6817 58.8287 13.5033 59.5342 13.3249 59.6832C13.6148 57.5756 13.8823 55.6126 13.9492 53.058H13.9604ZM12.6115 88.2913L12.6226 88.3001L12.5836 88.2913H12.6115ZM12.7397 88.3395C12.7397 88.3395 12.7397 88.3395 12.7452 88.3395C12.7341 88.3395 12.7229 88.3307 12.7118 88.3307C12.7174 88.3307 12.7285 88.3351 12.7341 88.3395H12.7397ZM11.7809 77.5912V77.4641C11.8144 77.4772 11.8255 77.543 11.8311 77.6218C11.8088 77.635 11.7921 77.6262 11.7809 77.5912ZM11.8813 77.5649L11.7809 76.1846C12.0875 75.8867 11.6527 74.4364 11.9593 73.7046C12.0095 74.8614 12.0652 73.6038 12.16 73.7879L12.199 70.9617C12.2492 70.6944 12.277 71.7066 12.2715 71.2771C12.3662 70.747 12.2157 70.4008 12.2213 70.116C12.3105 69.8706 12.2826 68.004 12.4833 68.0873C12.6784 66.1725 12.2492 67.2767 12.422 65.4933C12.5502 65.2611 12.4052 66.913 12.5613 66.1243L12.578 64.2708C12.6338 64.4417 12.7564 64.6345 12.7118 65.3312C12.7843 64.3278 12.8734 63.4251 12.9682 62.5751C12.9682 62.6978 12.9682 62.8029 12.9905 62.8774C13.3249 61.4052 12.9682 61.3789 13.4476 59.6613L13.559 60.1608C13.3751 61.3614 13.3026 62.9125 13.1298 63.7362C13.1856 63.5697 13.2413 63.4996 13.2636 63.6092C13.1298 65.3268 13.2246 65.8351 13.0072 67.5001C12.8233 67.7104 12.9459 66.7333 13.0184 66.0235C12.7675 67.0882 12.8902 67.1496 12.6616 68.8146C12.5111 68.8935 12.7843 67.6885 12.6616 67.487L12.5167 69.3404C12.5167 69.3404 12.5 69.3404 12.4888 69.3404C12.7007 69.6253 12.3216 70.7514 12.277 71.8862C12.0485 74.5678 12.3328 74.9972 12.3997 76.487C12.2993 76.8813 12.2324 76.9997 12.1878 76.8244C12.3495 76.1715 12.2547 76.2854 12.2157 76.0532C12.1767 76.671 12.0095 77.3633 11.8869 77.578L11.8813 77.5649ZM12.0931 88.1642C12.16 88.1818 12.2492 88.2037 12.3718 88.2387L12.0931 88.1642ZM18.2913 71.9782C18.2189 72.2148 18.1576 72.4558 17.8844 73.5118L17.8176 73.4636L17.6838 74.1997L17.1933 75.1944L17.4107 74.8439C17.21 75.5318 17.1264 75.9743 16.831 76.7674L16.8198 76.4213C16.2903 78.3755 15.8778 78.6121 15.3985 80.47C15.3316 80.5883 15.3985 80.2991 15.4319 80.1501C15.0027 81.8809 14.7742 81.3813 14.3784 83.134C14.3784 83.0201 14.2614 83.1954 14.2558 83.1209L14.2391 83.1778C14.3784 81.8502 14.5233 80.505 14.5345 79.1861L14.6906 79.2562L14.6014 77.7664C14.7797 76.9777 14.7073 78.2484 14.8076 78.0074C14.8355 76.4213 14.6181 77.337 14.724 75.4923C14.9135 74.5547 14.8132 75.8254 14.8355 76.2723C14.9079 74.5459 15.0138 71.9914 15.2424 70.7776C15.2257 70.747 15.2034 70.6725 15.1866 70.7338C15.2312 69.577 15.4598 68.0697 15.5824 66.8034C15.6549 66.8385 15.6326 67.154 15.6158 67.4694C15.6716 67.0137 15.7886 66.3959 15.7608 66.0016L15.8444 66.488C15.9837 65.5678 16.0785 63.8326 16.2513 63.4821C16.2513 63.6442 16.2401 63.8064 16.2345 63.9553C16.268 65.4583 16.307 67.281 16.3516 69.2046C16.3739 69.5464 16.4575 69.9933 16.909 70.4753C17.1431 70.7119 17.4553 70.9485 17.9179 71.1106C18.0907 71.172 18.2858 71.2114 18.4864 71.2421C18.3917 71.6496 18.3415 71.8161 18.2969 71.9738L18.2913 71.9782Z" fill="white"/>
<path d="M14.8243 51.2834C14.8355 51.3138 14.8522 51.3225 14.8634 51.3268C14.8578 51.2921 14.8411 51.2747 14.8243 51.2834Z" fill="white"/>
<path d="M24.2666 29.4538C24.2666 29.4231 24.2666 29.3881 24.2666 29.3574C24.2666 29.4012 24.2666 29.4319 24.2666 29.4538Z" fill="white"/>
<path d="M15.7329 8.03604C15.7217 8.00537 15.7106 7.97908 15.6883 7.97032C15.6994 8.01413 15.7162 8.03166 15.7329 8.03604Z" fill="white"/>
<path d="M12.3941 68.968L12.3829 69.9977L12.4777 69.3184C12.4442 69.3184 12.4052 69.2835 12.3941 68.968Z" fill="white"/>
<path d="M11.4632 88.0897C11.4744 88.1686 11.4855 88.2168 11.4967 88.2431C11.5078 88.2694 11.519 88.2957 11.5301 88.265C11.519 88.1379 11.5022 88.0722 11.4688 88.0854L11.4632 88.0897Z" fill="white"/>
<path d="M12.199 75.5055C12.1767 75.7947 12.1878 75.9393 12.2046 76.0357C12.2157 75.8473 12.2213 75.6632 12.199 75.5055Z" fill="white"/>
<path d="M20.2032 71.987C20.2032 71.987 20.1921 72.0352 20.1865 72.0615C20.1085 72.6136 20.1698 72.2718 20.2032 71.987Z" fill="white"/>
<path d="M25.4539 47.3618C25.4539 47.3925 25.4428 47.4232 25.4372 47.4538L25.4595 47.6642V47.3618H25.4539Z" fill="white"/>
<path d="M16.1621 107.058L16.2513 107.023C16.19 107.032 16.1677 107.045 16.1621 107.058Z" fill="white"/>
<path d="M9.21692 106.05C9.1779 106.059 9.12216 106.05 9.072 106.042C9.12774 106.068 9.1779 106.081 9.21692 106.05Z" fill="white"/>
<path d="M12.9905 97.5586C12.9236 97.5673 12.84 97.576 12.84 97.6107C12.8846 97.5977 12.9348 97.5803 12.9905 97.5586Z" fill="white"/>
<path d="M13.063 97.5323L12.9905 97.5586C13.0295 97.5543 13.063 97.5497 13.063 97.5323Z" fill="white"/>
<path d="M18.5255 100.639H18.4753C18.4753 100.639 18.5143 100.648 18.5255 100.639Z" fill="white"/>
<path d="M23.5142 102.216L23.5476 102.308C23.5365 102.265 23.5253 102.238 23.5142 102.216Z" fill="white"/>
<path d="M9.80776 106.296C9.80776 106.296 9.85235 106.322 9.86907 106.335C9.88579 106.317 9.8858 106.304 9.80776 106.296Z" fill="white"/>
<path d="M4.38428 102.961V102.957H4.37871L4.38428 102.961Z" fill="white"/>
<path d="M4.4233 103.325C4.46789 103.22 4.43445 103.053 4.38428 102.961C4.35642 103.071 4.35084 103.176 4.4233 103.325Z" fill="white"/>
<path d="M8.44214 108.338C8.44214 108.338 8.44214 108.333 8.44214 108.329C8.44214 108.329 8.43656 108.329 8.43656 108.333L8.44214 108.338Z" fill="white"/>
<path d="M23.8486 102.655C23.5922 102.155 23.6535 102.777 23.3971 102.576C23.3581 102.431 23.241 102.3 23.3302 102.256C23.4138 102.308 23.4584 102.107 23.5197 102.216C23.4751 102.102 23.4417 101.988 23.386 101.879C23.3915 101.844 23.4584 101.91 23.4919 101.94C23.2745 101.616 23.1964 101.305 23.1128 100.998C23.0125 100.696 22.901 100.407 22.6725 100.131C22.5554 100.118 22.7728 100.376 22.6558 100.363C22.1597 99.8327 22.5108 99.7845 22.0426 99.2938L22.2377 99.3551C22.0371 99.2149 21.8977 99.1798 21.7751 98.8643C21.8754 98.7504 22.0816 99.044 22.2266 99.1579C22.1095 98.952 21.6859 98.4963 21.6747 98.6978C21.4518 98.4919 21.5131 98.3517 21.4518 98.2071C21.4183 98.2202 21.5242 98.4656 21.357 98.3648C21.1898 98.0231 20.7662 97.5674 20.4317 97.2124C20.4652 97.1949 20.4875 97.1423 20.5377 97.1599C20.0806 96.9934 20.3872 96.84 19.9412 96.4851C19.6458 96.2441 19.2947 96.0162 18.9435 95.7709C18.5812 95.5343 18.1743 95.3152 17.7897 95.0873C17.3772 94.8814 16.9703 94.6798 16.5746 94.4826C16.1509 94.303 15.7831 94.1409 15.3873 93.9525C14.7686 93.8911 13.9994 93.6545 13.1912 93.7027L13.0853 93.4792C12.8511 93.5099 12.6226 93.5581 12.3997 93.6282C12.0987 93.6107 12.9236 93.4924 12.3997 93.4968C12.3216 93.5581 12.2547 93.6238 12.1823 93.6852C12.1433 93.6501 11.7085 93.7553 11.4409 93.8604C11.1734 93.9656 11.0117 93.9919 11.5022 93.6764C11.0786 93.8473 10.6884 94.0883 10.3373 94.36L10.0809 94.5659L9.94153 94.6842L9.67956 94.8989C9.44545 95.0873 9.71857 95.1399 9.41201 95.3152C9.30053 95.3152 9.46217 95.2056 9.36741 95.1706C9.29495 95.2144 9.23364 95.2538 9.1779 95.2976C9.13331 95.2976 9.08314 95.2933 9.08314 95.2582C8.83789 95.3677 8.60378 95.4948 8.38082 95.6263C8.29164 95.635 8.50902 95.4641 8.41427 95.5342C8.2359 95.5562 8.24147 95.7008 8.17459 95.7402C8.06311 95.7227 7.68408 96.0469 7.57817 95.9198C7.04864 96.1389 7.56702 96.1959 7.09324 96.4106C6.95389 96.3755 7.38308 96.1696 7.1211 96.2222L6.75322 96.5508C6.74765 96.4895 6.69191 96.3799 6.85913 96.2791C5.67745 97.024 4.67413 97.1204 3.87148 98.045C3.6318 98.0888 3.8882 97.9091 3.9105 97.7777C3.39769 98.4831 2.73439 98.4963 2.21601 99.101L2.30519 99.1667C1.26843 99.8371 0.683167 101.081 0.20938 102.278L0.337581 102.146C0.393321 102.33 0.348729 102.606 0.365451 102.808C0.298563 102.834 0.136918 102.633 0.12577 102.996C0.18151 102.926 0.248398 102.782 0.304137 102.83C0.0477346 103.334 -0.0637448 104.171 0.0365867 105.051C0.12577 105.936 0.410043 106.848 0.666445 107.628C0.794647 107.882 0.917274 108.136 1.04548 108.395C1.18482 108.662 1.3409 108.955 1.56385 109.266C1.78681 109.578 2.07666 109.915 2.47799 110.23C2.87931 110.55 3.38654 110.809 3.86033 110.975C4.81348 111.313 5.644 111.392 6.29058 111.47C6.92602 111.541 7.5503 111.602 8.17459 111.646C7.79556 111.619 7.99064 111.4 8.26934 111.479C8.99396 111.944 9.63497 111.527 10.4153 111.852C11.898 111.817 13.2525 112.202 14.685 111.852L14.7184 111.961C14.9358 112.005 14.9916 111.922 15.2145 111.9V111.931C15.7496 111.952 16.3906 111.782 16.7083 111.804V111.676C17.0261 111.633 16.8923 111.755 17.2044 111.65V111.716C17.327 111.663 17.4441 111.606 17.5667 111.549C17.5779 111.777 18.4697 111.44 18.754 111.479C18.9546 111.427 19.2445 111.335 19.5566 111.234C19.8688 111.142 20.2088 111.05 20.5878 110.958C20.6826 110.989 20.9557 110.94 21.3236 110.809C21.4964 110.748 21.7305 110.647 21.9367 110.537C22.143 110.428 22.338 110.309 22.4997 110.195C22.5387 110.16 22.5777 110.125 22.639 110.077C22.901 109.832 23.1518 109.521 23.3302 109.192C23.4974 108.89 23.6033 108.6 23.6869 108.342C23.7706 108.088 23.8151 107.847 23.8876 107.597C23.9545 107.347 24.027 107.102 24.0604 106.857H23.8765L23.8988 106.594C23.9378 106.602 23.9656 106.567 23.9768 106.607C24.2109 106.418 23.9991 105.998 24.1161 105.792C23.9434 105.919 24.0883 105.976 24.0716 106.125C23.9545 106.335 23.8207 106.125 23.9099 105.84L23.9489 105.849L23.8597 105.652C24.0047 105.634 24.0716 105.454 24.2165 105.433C24.1886 104.556 23.8653 103.995 23.7483 103.123C23.9378 103.185 23.542 102.51 23.8597 102.637L23.8486 102.655ZM12.4164 108.912C12.4275 108.881 12.4275 108.859 12.422 108.841C12.4554 108.846 12.4833 108.85 12.5223 108.855C12.5111 108.863 12.5056 108.877 12.5056 108.89C12.4721 108.898 12.4442 108.903 12.4108 108.907L12.4164 108.912ZM11.636 106.791C11.4577 106.655 11.7921 106.708 11.7475 106.633C11.3239 106.624 11.519 106.791 11.034 106.721C10.8222 106.585 11.1511 106.651 11.2793 106.633C10.8166 106.607 10.1422 106.497 9.86907 106.335C9.85235 106.348 9.82448 106.366 9.83563 106.375C9.52349 106.34 9.1779 106.164 8.87133 106.05C8.91035 106.002 8.98839 106.02 9.07199 106.037C8.96609 105.989 8.84346 105.897 8.71526 105.914L8.88805 105.858C8.65952 105.752 8.20803 105.665 8.25262 105.533C8.24147 105.586 8.16901 105.665 8.01294 105.577C8.06311 105.376 7.53915 105.415 7.46669 105.2C7.528 105.183 7.66178 105.27 7.62834 105.244C7.58374 105.143 7.43882 105.152 7.31619 105.126L7.41095 105.095C7.26603 105.016 7.16012 104.942 7.05979 104.837C7.16012 104.775 7.11553 104.701 7.07651 104.622C7.03749 104.543 6.99848 104.464 7.09324 104.473C7.07651 104.32 7.00405 104.618 6.94831 104.416C7.04307 104.355 6.887 104.219 7.04864 104.228L7.07094 104.249C7.06536 104.201 7.06536 104.149 7.05979 104.096C7.10996 104.131 7.1657 104.166 7.21586 104.197C7.18242 104.074 7.0375 103.956 6.92044 103.938C7.02077 103.807 6.99848 103.588 7.15455 103.544L7.17684 103.605C7.19357 103.395 7.36079 103.242 7.50571 103.093C7.63948 102.944 7.75654 102.808 7.71195 102.606C7.74539 102.589 7.77883 102.602 7.75654 102.65C7.80113 102.562 7.83457 102.479 7.88474 102.392L7.96277 102.488L8.01851 102.006L8.09098 102.037C8.28607 101.769 8.5146 101.322 8.76543 100.963V101.029C8.93265 100.595 9.11659 100.696 9.26151 100.38C9.27266 100.398 9.27266 100.411 9.26151 100.424L9.47332 100.179L9.49004 100.266C9.50119 100.004 10.1422 99.859 9.91924 99.8984C9.95268 99.7626 10.0419 99.5435 9.99727 99.4646C10.2537 99.1974 10.1422 99.4515 10.3596 99.32C10.5547 99.136 10.4878 99.0352 10.8055 98.8161L10.8612 98.86C10.9783 98.7329 11.0173 98.6321 11.1845 98.4612L11.1622 98.5313C11.3295 98.1764 11.7141 98.321 11.6862 97.9267C11.8646 97.8478 12.0708 97.6112 12.1823 97.7076C12.2547 97.6156 12.3272 97.5323 12.3997 97.4491C12.4888 97.4096 12.6115 97.3965 12.7118 97.3746C13.0072 97.3965 12.5 97.506 12.5892 97.563C12.7397 97.5454 12.8902 97.5235 13.0462 97.5148C13.0574 97.5235 13.0574 97.5279 13.0574 97.5323C13.1744 97.4929 13.2915 97.4666 13.3361 97.5192C13.2079 97.6024 13.1633 97.6857 13.0797 97.7514L13.5367 97.5586C13.4922 97.6375 13.9325 97.69 13.5981 97.7514C13.8266 97.7426 14.0607 97.7163 14.2892 97.7207L14.3394 97.8828C14.501 97.8609 14.5122 97.8303 14.3171 97.804C14.4843 97.8259 15.0083 97.7076 15.1866 97.7733C15.2424 97.7996 15.2591 97.839 15.2145 97.9135C15.2758 97.9135 15.326 97.9048 15.3817 97.9048C15.5712 98.0362 15.7496 98.1589 15.9001 98.2553C16.1008 98.3342 16.4631 98.4218 16.6749 98.6453L16.6359 98.6365C16.8756 98.7855 17.0985 98.9695 17.327 99.1492C17.55 99.3332 17.7228 99.561 17.8956 99.7933C17.8231 99.7933 17.8287 99.8546 17.7507 99.8239C17.9792 99.8502 17.9792 100.074 18.0461 100.174V100.017C18.2635 100.087 18.2969 100.332 18.2579 100.437L18.5477 100.582C18.5477 100.582 18.5366 100.63 18.5199 100.643L18.6091 100.652L18.5143 100.836C18.5812 100.876 18.8042 101.138 19.0215 101.165C18.9825 101.204 19.0606 101.423 18.9324 101.279L19.3002 102.098C19.3058 102.05 19.3002 102.002 19.3002 101.953C19.3448 101.932 19.4006 101.953 19.4507 101.984C19.4507 102.019 19.4396 102.05 19.4396 102.098C19.4507 102.155 19.4619 102.194 19.4786 102.229C19.4229 102.256 19.395 102.348 19.3504 102.409C19.4675 102.501 19.4284 102.282 19.5288 102.322C19.5678 102.352 19.6068 102.392 19.6402 102.44C19.6291 102.655 19.735 102.983 19.6012 102.996C19.7294 103.04 19.5845 103.18 19.6904 103.294L19.6291 103.321L19.7294 103.307C19.7294 103.307 19.7462 103.325 19.7517 103.334C19.5009 103.684 19.9357 103.947 19.6291 104.302L19.6012 104.236L19.6402 104.398C19.5734 104.42 19.5455 104.35 19.4675 104.341C19.4396 104.582 19.3783 104.819 19.3281 105.06L19.4563 104.933C19.4452 105.086 19.5566 105.209 19.4284 105.371C19.2891 105.051 19.3615 105.608 19.1888 105.63L19.172 105.468C19.1386 105.678 19.1274 105.678 19.2724 105.682C19.2389 105.963 18.9546 105.818 19.0271 106.094L19.0884 105.919C19.1832 105.879 19.2612 106.033 19.2166 106.151C19.1888 106.177 19.0996 106.243 19.1107 106.151C19.0828 106.401 18.9324 106.559 18.9435 106.633C18.8599 106.686 18.793 106.616 18.7763 106.567C18.7484 106.716 18.7038 106.738 18.6759 106.76C18.6425 106.782 18.6202 106.804 18.5143 106.927L18.4697 106.874C18.4586 106.914 18.4418 106.949 18.4195 106.988C18.3359 106.975 18.2523 106.953 18.1799 106.927L18.2802 106.984C18.1687 107.032 18.152 107.084 17.9458 107.093L17.9904 106.988C17.7785 107.063 17.6057 107.049 17.4497 107.041C17.2936 107.032 17.1431 107.041 16.9034 107.137C16.8644 107.124 16.9369 107.084 16.9759 107.067C16.53 107.268 16.5969 106.949 16.1509 107.168C16.1732 107.133 16.1175 107.098 16.1342 107.071L15.928 107.15V107.023L15.7719 107.22L15.627 107.098L15.5489 107.163C15.3037 106.935 14.986 107.119 14.6738 106.944L14.7296 107.106C14.3338 107.268 13.8656 107.211 13.403 107.106C12.9348 107.006 12.4721 106.852 11.9872 106.857L12.0373 106.734C11.898 106.765 11.7586 106.786 11.6137 106.813L11.636 106.791ZM4.80233 103.08C4.7243 103.058 4.66298 102.922 4.78561 102.808C4.65741 102.659 4.52921 102.584 4.46789 102.435C4.52363 102.308 4.58495 102.181 4.65741 102.05C4.67413 102.137 4.702 102.212 4.67413 102.265C4.8302 102.063 4.8525 102.137 4.98627 102.151C4.65741 102.387 5.06431 102.633 4.79676 103.08H4.80233ZM13.0295 96.7567C13.219 96.9057 13.0407 96.7261 13.1912 96.7874L13.1131 96.691C13.1912 96.6253 13.3417 96.656 13.4253 96.7348C13.4699 96.7699 13.4977 96.8093 13.5256 96.84C13.3249 96.8488 13.1131 96.8751 12.9013 96.9101C12.9348 96.8794 12.9626 96.8444 12.9961 96.8093C13.0295 96.7743 13.0184 96.7743 13.0295 96.7524V96.7567ZM4.15018 103.592C4.18362 103.272 4.26166 102.952 4.38986 102.628L4.48462 102.676C4.4456 102.79 4.41773 102.878 4.38986 102.966C4.51249 103.036 4.67413 102.777 4.69085 103.053C4.68528 103.356 4.42888 103.176 4.51249 103.237C4.51249 103.667 4.702 103.434 4.5738 103.833C4.56265 103.789 4.52921 103.706 4.55708 103.675C4.41773 103.965 4.55708 104.412 4.30625 104.521C4.23936 104.477 4.16133 104.469 4.17805 104.341H4.21707C4.06099 104.079 4.17247 104.377 4.13903 104.504C4.11673 104.206 4.11116 103.899 4.1446 103.592H4.15018ZM4.17247 104.745C4.20592 104.894 4.23379 105.091 4.26166 105.218L4.40101 105.117C4.75217 105.424 4.68528 105.419 4.5515 105.446C4.45675 105.463 4.32297 105.485 4.35084 105.647C4.32297 105.546 4.2951 105.446 4.27281 105.34C4.22821 105.152 4.19477 104.951 4.17247 104.745ZM7.99622 108.412C7.34406 108.351 6.55256 108.259 6.10664 108.175C5.95057 108.246 5.69974 108.211 5.56039 108.175C5.53252 108.118 5.51023 108.066 5.49908 108.013C5.39317 108.018 5.20923 108.127 5.22595 108.018C5.2371 108.005 5.25382 108 5.2594 107.996C5.17579 107.974 5.18136 107.869 4.97513 107.834C4.88594 107.711 4.86922 107.509 5.04201 107.509C4.78004 107.601 4.86922 107.119 4.86922 107.106C4.86922 107.106 4.79676 106.931 4.66856 106.62C4.5738 106.375 4.45675 106.042 4.35084 105.652C4.36199 105.704 4.39543 105.774 4.45117 105.862C4.8302 106.278 4.38428 105.678 4.65741 105.914C4.8302 106.212 4.79676 106.401 5.24268 106.725C5.30399 106.857 5.48236 107.089 5.38203 107.207C5.69417 107.365 6.16796 107.772 6.41878 107.724C6.0509 107.387 5.83352 107.615 5.45449 107.106H5.71646C6.06762 107.356 6.586 107.531 6.79781 107.689C6.76437 107.641 6.76437 107.601 6.81454 107.588C7.35521 107.772 7.5726 107.689 8.02409 107.908C8.02409 108.048 7.75096 107.921 7.53915 107.856C7.79556 108.062 7.85687 107.996 8.32508 108.193C8.29721 108.303 7.99622 108.079 7.88474 108.154C8.06868 108.211 8.26377 108.259 8.44771 108.307C8.44771 108.311 8.44214 108.32 8.43656 108.329C8.57034 108.215 8.7487 108.373 8.99953 108.465C8.68182 108.456 8.3418 108.438 7.98507 108.403L7.99622 108.412ZM10.131 108.605C10.3429 108.57 10.5212 108.504 10.7609 108.482C10.8668 108.557 10.8891 108.609 10.8222 108.644C10.6494 108.526 10.6662 108.592 10.577 108.627C10.6271 108.636 10.6829 108.653 10.733 108.671C10.5268 108.662 10.3094 108.644 10.1366 108.605H10.131ZM11.6862 108.776C11.6862 108.776 11.7475 108.767 11.7865 108.763C11.8813 108.767 11.9593 108.776 12.0373 108.789L11.9872 108.872C11.9091 108.833 11.7809 108.806 11.6806 108.776H11.6862ZM12.0541 108.789C12.0875 108.793 12.121 108.798 12.16 108.802C12.1042 108.811 12.0652 108.811 12.0541 108.789Z" fill="white"/>
<path d="M8.29164 108.39L8.63165 108.425L8.43656 108.338C8.42542 108.364 8.39754 108.39 8.28607 108.39H8.29164Z" fill="white"/>
<path d="M10.393 108.627C10.4822 108.644 10.5324 108.635 10.5658 108.627C10.5101 108.618 10.4488 108.614 10.393 108.627Z" fill="white"/>
</svg>
