<svg width="29" height="29" viewBox="0 0 29 29" fill="none" xmlns="http://www.w3.org/2000/svg">
<path d="M10.8956 7.31728L10.857 7.43909C10.8956 7.37498 10.9021 7.34292 10.8956 7.31728Z" fill="#AD96DC"/>
<path d="M19.5808 13.4525C19.5808 13.4525 19.5937 13.4653 19.6002 13.4718C19.6131 13.3371 19.6324 13.1576 19.6388 12.8691C19.6259 13.0615 19.6066 13.2538 19.5808 13.4461V13.4525Z" fill="#AD96DC"/>
<path d="M12.9638 14.2347C12.9638 14.2347 12.9767 14.2154 12.9832 14.1962C12.9703 14.1834 12.9638 14.1962 12.9638 14.2347Z" fill="#AD96DC"/>
<path d="M13.8143 10.5099C13.8401 10.433 13.8723 10.3432 13.9045 10.2535C13.8401 10.3496 13.7757 10.4779 13.8143 10.5099Z" fill="#AD96DC"/>
<path d="M13.9496 10.1317L13.9045 10.2535C13.9432 10.1894 13.969 10.1381 13.9496 10.1317Z" fill="#AD96DC"/>
<path d="M7.26176 9.73419L7.28753 9.80471C7.28753 9.75343 7.28109 9.7406 7.26176 9.73419Z" fill="#AD96DC"/>
<path d="M21.7199 13.6961C21.823 14.0039 21.5975 14.6065 21.7071 14.6193C21.7328 14.2988 21.8746 13.85 21.7199 13.6961Z" fill="#AD96DC"/>
<path d="M8.00915 2.10521C8.07358 2.06675 8.13801 2.02828 8.196 1.98981C8.1058 2.0411 8.04781 2.07316 8.00915 2.10521Z" fill="#AD96DC"/>
<path d="M28.6075 15.9207L28.7622 15.8502C28.7879 15.4655 28.6526 15.3886 28.5689 15.0104H28.614C28.5109 14.0744 28.0985 13.0935 28.047 12.587L27.8602 12.5999C27.712 12.0934 27.931 12.2986 27.6862 11.8049L27.7828 11.7921L27.4349 11.2343C27.7764 11.1959 26.9968 9.78548 26.9581 9.3239C26.6553 8.67639 25.9723 7.49038 25.444 6.49668C25.502 6.22743 24.7288 5.04141 24.1618 4.29774C23.5562 3.6246 22.7379 2.88093 21.7199 2.18214C20.7019 1.52823 19.5551 1.00253 18.4404 0.630702L18.4211 0.848673C18.2278 0.797386 18.0281 0.75892 17.8348 0.714044C17.8541 0.669168 17.7832 0.630702 17.8734 0.630702C17.4675 0.258869 16.4946 0.438375 16.0372 0.233226C16.3207 0.464018 16.4495 0.316567 16.791 0.374266C17.2614 0.54736 16.7652 0.675578 16.1338 0.483251L16.1532 0.438375C15.9985 0.451197 15.8503 0.489662 15.6957 0.515306C15.657 0.348622 15.2511 0.252458 15.206 0.0857748C14.9805 0.0857748 14.7679 0.0857748 14.5617 0.0985966L14.7164 0.0280766C14.7357 -0.0424434 14.6133 0.0344875 14.4908 0.0985966C14.4135 0.0985966 14.3362 0.117829 14.2589 0.12424C14.2589 0.117829 14.2525 0.111418 14.2589 0.0985966V0.12424C13.6597 0.181938 13.1056 0.290924 12.5708 0.412731C12.1714 0.521717 11.7654 0.637113 11.3402 0.752509C10.9214 0.906371 10.4768 1.02177 10 1.19486C10.1225 0.938426 8.66634 1.81672 8.91118 1.36796C7.86096 2.06675 9.20756 1.50259 8.81453 1.97058C8.51171 2.12444 8.24754 2.36806 8.13157 2.30395C8.22821 2.15009 7.79653 2.29754 8.01559 2.11162L7.33907 2.59885C7.26176 2.62449 7.38418 2.48345 7.44861 2.41293C7.11357 2.68219 6.81075 2.94504 6.50792 3.19507C6.35329 3.31687 6.2051 3.43868 6.05691 3.55408C5.91516 3.68229 5.77986 3.81051 5.63811 3.93873C5.06468 4.43878 4.60078 4.97089 4.26575 5.63762C4.29796 5.79148 4.62656 5.17604 4.65877 5.3299C4.33018 5.99663 4.13688 6.24025 3.92426 6.47745C3.72453 6.70824 3.51191 6.93904 3.29929 7.56731L3.27352 7.25317C3.18331 7.68911 3.22197 7.90708 2.84183 8.47766C2.61633 8.51612 2.92559 7.88144 2.99647 7.54166C2.77096 7.9776 2.37149 9.0931 2.66787 8.82384C2.53257 9.30466 2.34572 9.45852 2.19753 9.67008C2.23619 9.55469 2.28773 9.41365 2.29418 9.31748C1.98491 10.1509 1.66276 10.6894 1.33416 11.2151C1.01201 11.7408 0.689859 12.2537 0.496567 13.0358L0.625428 13.0935C0.155086 14.1 -0.0575339 15.3886 0.0133395 16.7285C0.0713269 18.0684 0.445023 19.4531 0.941137 20.7161L0.896036 20.3827C1.1602 20.6712 1.44369 21.1841 1.7143 21.5303C1.68853 21.62 1.28906 21.4149 1.74652 22.0367C1.70142 21.8765 1.579 21.5751 1.68853 21.62C2.10088 22.6842 3.1511 24.1587 4.65233 25.364C6.12134 26.5885 8.04137 27.5437 9.72944 28.1207C12.0683 28.7682 14.5295 29.0182 16.9005 28.999C18.0989 28.9862 19.2265 28.922 20.4313 28.7746C21.6426 28.6143 22.9699 28.3322 24.252 27.6463C23.4724 28.0309 23.6722 27.5693 24.2714 27.3514C24.7288 27.268 25.1412 27.0821 25.4762 26.8385C25.6502 26.7167 25.8113 26.5885 25.9595 26.4538C26.1012 26.3064 26.2365 26.1525 26.3654 26.0051C26.8937 25.3832 27.2803 24.6973 27.8602 23.9792C28.4787 22.4598 28.8137 21.0623 28.9426 19.7288C29.0714 18.4017 28.9941 17.126 28.6011 15.9271L28.6075 15.9207ZM20.979 10.1701C21.0176 10.2022 21.0563 10.2342 21.0885 10.2663C21.0627 10.2919 21.0241 10.2855 20.979 10.2663C20.9661 10.215 20.9661 10.1765 20.979 10.1637V10.1701ZM21.2754 10.5804L21.0756 10.5612C21.0563 10.5035 21.037 10.4522 21.0241 10.4009C21.1014 10.4843 21.1852 10.5548 21.2754 10.5804ZM21.3398 10.8625C21.2947 11.0036 21.314 11.369 21.1594 10.9138C21.1658 10.8561 21.1401 10.7535 21.1014 10.6381C21.1723 10.7087 21.256 10.7856 21.3398 10.8625ZM2.1782 9.71496C2.24263 9.65085 2.39082 9.42006 2.41015 9.53546C2.36505 9.63803 2.3135 9.72778 2.2684 9.83036C2.10088 9.95858 2.12021 9.86241 2.17176 9.70855L2.1782 9.71496Z" fill="#AD96DC"/>
<path d="M19.9417 18.1325C19.8901 18.1966 19.8321 18.2928 19.7355 18.4274C19.8515 18.3184 19.903 18.2158 19.9417 18.1325Z" fill="#AD96DC"/>
<path d="M19.5035 18.7223C19.3876 18.8185 19.278 18.921 19.1492 19.0108C19.1492 19.0236 19.1556 19.03 19.1685 19.0428C19.2909 18.9467 19.394 18.8313 19.51 18.7223H19.5035Z" fill="#AD96DC"/>
<path d="M21.2367 16.3054C21.1787 16.4592 21.1078 16.6644 21.0305 16.7926C21.1594 16.6131 21.2109 16.4592 21.2367 16.3054Z" fill="#AD96DC"/>
<path d="M7.5968 12.2537C7.5968 12.2537 7.59035 12.228 7.58391 12.2152C7.45505 11.9267 7.51304 12.1126 7.5968 12.2537Z" fill="#AD96DC"/>
<path d="M17.9057 20.0814C17.9057 20.0814 17.8606 20.0942 17.8412 20.0942L17.7188 20.1904L17.9057 20.0814Z" fill="#AD96DC"/>
<path d="M21.7071 14.6193C21.7006 14.6962 21.6942 14.7603 21.707 14.818C21.7199 14.7603 21.7393 14.6898 21.765 14.6001C21.7393 14.6193 21.7199 14.6193 21.7071 14.6193Z" fill="#AD96DC"/>
<path d="M10.0387 17.5299C10.1676 17.5619 10.232 17.5555 10.2578 17.5299C10.1611 17.4401 10.0774 17.4016 10.0387 17.5299Z" fill="#AD96DC"/>
</svg>
