<svg width="50" height="45" viewBox="0 0 50 45" fill="none" xmlns="http://www.w3.org/2000/svg">
<path d="M32.1685 13.8101L32.196 13.9496C32.196 13.8826 32.1822 13.838 32.1685 13.8101Z" fill="#AD96DC"/>
<path d="M5.56934 25.4282H5.4177C5.48663 25.4282 5.52798 25.4505 5.56934 25.4282Z" fill="#AD96DC"/>
<path d="M8.77447 18.0324C8.73311 18.0937 8.66418 18.1216 8.59526 18.1439C8.68486 18.1495 8.76068 18.1327 8.77447 18.0324Z" fill="#AD96DC"/>
<path d="M50 18.1272L49.9724 17.8427C49.7312 17.7088 49.6623 17.9096 49.4141 17.932V17.8539C49.5037 17.8316 49.5795 17.8092 49.6691 17.7869C49.5382 17.7646 49.4693 17.7981 49.421 17.8539C48.8213 17.7367 48.0976 18.0212 47.753 17.8818L47.7254 18.2053C47.367 18.2276 47.5462 17.9543 47.174 18.1327L47.1878 17.971L46.7604 18.2722V18.2778C46.8087 17.7144 45.761 18.222 45.4784 17.9654C45.2164 18.0212 44.8235 18.116 44.4031 18.1718C44.1687 18.1216 43.9688 18.0268 43.8723 17.8204C43.6587 17.8929 43.4243 17.9487 43.1762 17.9877C42.8522 17.8706 42.3077 17.8371 41.9217 17.7312C40.8602 17.7925 39.3369 17.8762 37.9859 17.759L38.0066 18.1272H37.9239L37.724 17.9543C37.7033 17.9598 37.6827 17.971 37.662 17.9766C37.3932 17.575 36.8486 18.0993 36.5729 17.8427C36.7452 18.1774 36.8211 17.8985 37.021 17.9096C37.3036 18.0825 37.0347 18.4284 36.6487 18.2555C36.6487 18.222 36.6625 18.1941 36.6832 18.1774C36.6694 18.1774 36.6556 18.1774 36.6418 18.1774V18.1662L36.6212 18.1829C36.5247 18.1941 36.4213 18.1941 36.3248 18.1885C36.249 18.0045 36.0973 17.8706 36.0766 17.6531C35.4356 17.6865 34.9049 17.8427 34.3535 17.9598C34.2087 17.8762 34.0984 17.7869 34.0984 17.7869C34.0984 17.7869 33.5539 17.7535 32.6303 17.7033C32.3959 16.9001 32.0789 16.1862 32.134 15.2268C32.5338 15.3495 31.9755 14.2786 32.6785 14.5129C32.3752 13.7264 32.134 14.6691 31.6308 14.3233C31.6308 14.3065 31.6308 14.2898 31.6308 14.2731L31.7962 14.3567C31.617 14.2173 31.6308 14.0165 31.6929 13.8268C31.8652 13.9049 32.0857 13.6261 32.1616 13.8045L32.072 13.2747C32.1202 13.2189 32.2236 13.336 32.2718 13.3918C31.7962 12.3265 32.5889 11.4452 32.0995 10.4859C31.8445 10.4245 32.0651 10.8763 31.81 10.8205C31.2242 9.86676 32.1754 9.92811 31.748 9.0357L32.1064 9.20302C31.8445 8.91857 31.5412 8.81259 31.7756 8.30503C32.1754 8.19348 32.1409 8.69546 32.3477 8.91857C32.3408 8.58391 32.1478 7.7417 31.81 8.02615C31.6377 7.63572 31.9824 7.46839 32.0651 7.23971C31.9686 7.23971 31.8376 7.63014 31.6239 7.40704C31.7894 6.84928 31.6998 6.00707 31.6584 5.33775C31.7549 5.33775 31.8996 5.2764 31.9548 5.33775C31.3689 4.84135 32.2719 4.83019 32.072 4.09953C31.8376 2.85573 31.3758 1.3944 31.0587 0L20.499 0.48525C20.5886 1.3442 20.63 2.17526 20.5886 2.91708C20.7196 3.01748 20.8161 3.12903 20.8988 3.24616C20.8988 3.27405 20.8988 3.30193 20.9057 3.32424C20.9471 3.37444 20.9884 3.4358 21.0367 3.49157C21.1952 3.8318 21.2503 4.21666 21.34 4.60151L20.6369 4.69633L20.8919 5.22062C20.692 5.44931 20.7403 4.81346 20.4921 5.20947L20.9402 5.39353C20.6851 5.44931 20.8919 6.76004 20.306 5.89551L20.4784 7.95364C20.5059 8.40543 21.0918 8.17675 20.9746 8.68431C20.7816 8.80144 20.8161 8.51698 20.568 8.57276C20.2095 10.101 22.1119 10.1958 21.9672 11.5847L21.8569 11.4787C22.0706 11.6962 22.105 12.1368 22.2015 12.1368V12.3934L22.3463 12.1257C22.6909 12.0755 22.9529 12.5663 22.8081 12.834C22.4979 12.5105 22.3118 12.834 22.0637 12.9902C22.2705 13.2077 22.3601 12.7783 22.56 12.8898C22.815 13.1631 22.9804 13.7599 22.8357 13.9217L22.684 13.7599C22.8426 14.1392 22.2498 14.3456 22.298 14.7248C22.6013 15.0539 22.3532 15.3216 22.9529 15.2268C23.1045 15.7177 22.5531 15.4332 22.5048 15.5949C22.8081 15.818 22.6634 16.5152 22.3601 16.6156C22.7323 16.716 22.753 16.9615 22.7047 17.218C20.9677 17.3463 18.8034 17.7033 17.1285 17.5694C17.0871 17.6196 17.0389 17.6587 16.9906 17.6977C16.901 17.7033 16.8045 17.7088 16.7149 17.7144C16.6322 17.681 16.5564 17.6363 16.4737 17.5527L16.515 17.7312C16.2049 17.7535 15.9016 17.7814 15.6052 17.8092L15.5776 17.5248L15.1089 17.7033C14.9228 17.5304 15.4673 17.5973 15.1365 17.3798L14.9573 17.7312C14.9228 17.5248 13.7579 17.5861 14.5506 17.1846L12.7378 17.1678C12.338 17.1455 12.4966 17.6419 12.0554 17.4969C11.9658 17.3296 12.214 17.3853 12.1795 17.179C10.8561 16.7439 10.6286 18.2666 9.40171 17.9989L9.5051 17.9264C9.29142 18.077 8.89854 18.0491 8.89165 18.1327C9.03639 18.7072 9.11911 17.826 9.48442 18.1662C9.48442 18.2331 9.46374 18.2833 9.44996 18.328C9.09843 18.3614 8.70554 18.3057 8.3609 18.3391C8.3609 18.1885 8.47119 18.1606 8.58147 18.1272C8.41605 18.116 8.18169 18.0268 8.05073 18.1829L8.20237 17.8985C7.84395 17.8594 7.18914 18.1439 7.08575 17.8204C7.14089 17.9431 7.14089 18.1829 6.83071 18.1829C6.62393 17.6977 6.02426 18.4284 5.5142 18.1941C5.56245 18.0714 5.92087 18.0324 5.81748 18.0268C5.56245 17.9096 5.36256 18.1495 5.16267 18.3168L5.21092 18.116L4.10119 18.4507C4.0874 18.4116 4.05983 18.3949 4.03226 18.367C4.0874 18.367 4.14943 18.3782 4.20458 18.4005C4.10119 18.2164 3.99779 18.2276 3.90819 18.2889C3.58423 18.1829 3.04659 18.512 3.08106 18.222C2.67439 18.2276 3.43948 18.4172 2.92942 18.5064C2.77778 18.3112 2.4745 18.6347 2.4676 18.3112L2.51585 18.2722L2.15743 18.3168L2.35732 17.9877C2.05404 18.0714 1.85415 18.4005 1.86104 18.6403C1.55087 18.4841 1.15109 18.6515 0.992556 18.3726L1.09595 18.2889C0.689275 18.3782 0.330852 18.1774 0 18.0324L0.0482492 24.9764C0.358423 25.1605 0.661704 25.2888 1.01323 25.0378C1.06148 25.0824 1.0477 25.1661 0.944307 25.1549L1.46816 25.1996L1.3303 25.4338L2.21947 25.1047L2.19879 25.2665C2.76399 25.3557 3.66005 25.3 4.38379 25.2721L4.2735 25.3446C5.07306 25.1159 5.03171 25.5175 5.61759 25.3557C5.59691 25.4003 5.57623 25.4115 5.55556 25.4227H6.07251L5.95534 25.5844C6.34822 25.2442 7.04439 26.0585 6.81004 25.7573C7.0306 25.6067 7.4097 25.4282 7.47863 25.233C8.04384 25.2219 7.60959 25.445 7.95423 25.5844C8.3609 25.6067 8.43672 25.3278 8.98814 25.484L8.97436 25.6458C9.22939 25.6179 9.39482 25.5063 9.75324 25.484L9.64295 25.5621C10.2288 25.2274 10.3598 26.0473 10.8285 25.3446C11.0698 25.4784 11.5316 25.3836 11.504 25.7071C12.2277 25.5063 12.786 25.4115 13.5029 25.2888C13.6132 25.8187 13.6545 25.2553 14.0888 25.5621L14.0612 25.2776C15.0744 25.2498 16.2255 25.9637 17.3353 25.8577L17.3628 26.1422L17.5903 25.8298C18.7138 25.9637 20.1475 26.0864 21.1125 26.1087C21.1401 26.9844 21.2435 27.888 21.1125 28.7636L21.3055 28.5405C21.6088 28.7692 21.6708 29.1596 21.8362 29.4385C21.6915 29.4887 21.1814 29.2656 21.3468 29.7676C21.4433 29.656 21.5398 29.4329 21.6846 29.4887C21.0229 31.0504 21.5467 34.2408 21.5054 36.7619C22.0361 39.4168 22.1671 42.2949 22.622 45L32.8646 44.392C32.8853 43.6893 32.8853 43.0032 32.8508 42.3339C32.8646 42.5793 32.6854 42.6518 32.5269 42.6128C32.5131 42.4901 32.4993 42.3674 32.4924 42.2502C32.4511 42.2279 32.4304 42.1889 32.3959 42.161C33.485 41.1849 32.134 40.4375 32.968 39.4168C32.5751 37.5149 33.6642 35.8137 32.7061 34.04L33.0576 34.0066C33.2162 33.7444 32.9749 33.6719 32.9404 33.393H33.0369C33.1679 32.7405 32.8026 31.9484 32.968 31.5692L32.5682 31.5469C32.5338 31.1564 32.8784 31.3405 32.6441 30.9445L32.8439 30.9556L32.4648 30.4927C33.161 30.5317 32.5062 29.3883 32.8233 29.0704C32.6923 28.5628 32.3821 27.6091 32.5062 26.8394C32.6923 26.7613 32.775 26.4657 32.8371 26.1143C32.9267 26.1254 33.0163 26.131 33.099 26.1422C36.1318 25.9525 39.4265 26.421 42.4042 26.2705C42.3284 26.2705 42.2732 26.2537 42.2319 26.2258C42.4249 26.1924 42.6316 26.1589 42.8453 26.1199C43.6104 26.5605 44.2377 25.7462 45.0717 26.3485C46.8018 26.025 48.3457 26.8896 49.9517 26.131L50 18.0993L49.9793 18.1104L50 18.1272ZM22.1671 11.501C22.1671 11.501 22.1947 11.501 22.2153 11.501V11.8524C22.105 11.7743 22.0223 11.6739 22.1671 11.4954V11.501ZM0.599669 18.6459V19.4546C0.599669 19.4546 0.599669 19.4546 0.599669 19.4602V18.6515C0.599669 18.6515 0.599669 18.6515 0.599669 18.6459ZM0.620347 23.4426C0.620347 23.4426 0.620347 23.4426 0.62724 23.437V24.3573C0.62724 24.3573 0.62724 24.3685 0.62724 24.3741V23.4482L0.620347 23.4426Z" fill="#AD96DC"/>
</svg>
