<svg width="74" height="70" viewBox="0 0 74 70" fill="none" xmlns="http://www.w3.org/2000/svg">
<path d="M28.0595 57.6314C28.0483 57.6754 28.0409 57.7195 28.0483 57.7782C28.0744 57.7048 28.0744 57.6608 28.0595 57.6314Z" fill="black"/>
<path d="M48.9941 46.202L48.7744 46.4026C48.9271 46.2999 48.983 46.2411 48.9941 46.202Z" fill="black"/>
<path d="M14.2073 64.5546C14.5983 64.5742 14.993 64.5253 15.3729 64.3932C15.3952 64.3736 15.3915 64.3638 15.4064 64.3491C15.2798 64.4127 15.1271 64.447 14.9297 64.4861C14.7361 64.5448 14.4978 64.5497 14.2073 64.5546Z" fill="black"/>
<path d="M51.4629 20.6326L51.7646 20.6131C51.6268 20.6131 51.5374 20.6082 51.4629 20.6326Z" fill="black"/>
<path d="M66.9349 35.4967C66.9982 35.3989 67.1248 35.2961 67.2514 35.1983C67.0839 35.2961 66.9535 35.3891 66.9349 35.4967Z" fill="black"/>
<path d="M12.6061 57.9152L12.379 58.3457C12.4386 58.3555 12.5354 58.2088 12.6061 57.9152Z" fill="black"/>
<path d="M17.3241 41.4169C17.3241 41.4169 17.3017 41.4169 17.2794 41.4316C17.2794 41.4658 17.298 41.4463 17.3241 41.4169Z" fill="black"/>
<path d="M22.4591 39.7191C22.4814 40.2427 22.6154 40.6732 22.7309 41.1331L22.4591 39.7191Z" fill="black"/>
<path d="M7.45254 23.5536L7.53447 23.4557C7.45255 23.4998 7.44137 23.5291 7.45254 23.5536Z" fill="black"/>
<path d="M23.7251 40.2476L23.7177 40.6194C23.7326 40.4824 23.7326 40.365 23.7251 40.2476Z" fill="black"/>
<path d="M14.8255 61.0661C14.792 61.1052 14.7696 61.1542 14.7622 61.2227C14.8068 61.1493 14.8143 61.1346 14.9595 61.0416C15.0787 60.9683 15.2053 60.8998 15.3207 60.841C15.5553 60.7187 15.7415 60.6258 15.7117 60.5475C15.5255 60.6698 15.2835 60.7725 15.0787 60.89C14.9819 60.9438 14.8702 61.0172 14.8217 61.0661H14.8255Z" fill="black"/>
<path d="M6.66684 32.8595L6.81579 33.1286C6.74877 32.9965 6.70408 32.9183 6.66684 32.8595Z" fill="black"/>
<path d="M23.7363 39.817C23.7102 39.8561 23.6953 39.9051 23.673 39.954C23.699 40.047 23.7177 40.1448 23.7251 40.2476L23.7326 39.817H23.7363Z" fill="black"/>
<path d="M31.2321 67.6419C31.2321 67.6419 31.2246 67.6419 31.2172 67.6321C31.1837 67.6273 31.1539 67.6224 31.1204 67.6175L31.2321 67.6419Z" fill="black"/>
<path d="M33.5184 69.1342C33.3434 69.0706 33.1721 69.0119 32.986 68.9434C33.2541 69.0902 33.4067 69.1293 33.5184 69.1342Z" fill="black"/>
<path d="M22.7346 41.1331L22.891 41.9404C22.8575 41.6469 22.7979 41.3876 22.7346 41.1331Z" fill="black"/>
<path d="M37.7225 38.31C37.7448 38.4128 37.7672 38.5106 37.797 38.6036C37.7746 38.4715 37.7523 38.3736 37.7225 38.31Z" fill="black"/>
<path d="M65.2369 36.441C65.1773 36.4606 65.0991 36.4948 65.0321 36.5242C65.0247 36.5731 65.047 36.5927 65.2369 36.441Z" fill="black"/>
<path d="M64.0528 25.726C64.3544 25.7162 64.6374 25.6672 65.006 25.4666C64.7044 25.4373 64.2799 25.5841 64.0528 25.726Z" fill="black"/>
<path d="M61.9898 25.7064C62.0271 25.7113 62.0569 25.7162 62.1015 25.726C62.0606 25.7162 62.0271 25.7064 61.9898 25.7064Z" fill="black"/>
<path d="M64.2129 31.3966C64.2129 31.3966 64.2129 31.4113 64.2203 31.4162C64.2203 31.4064 64.2241 31.4015 64.2241 31.3966H64.2129Z" fill="black"/>
<path d="M67.9142 29.1264C67.8435 29.1264 67.7541 29.1509 67.6499 29.1998C67.7243 29.1949 67.8174 29.1655 67.9142 29.1264Z" fill="black"/>
<path d="M52.487 26.6017C52.487 26.6017 52.4907 26.5969 52.4907 26.592C52.4832 26.592 52.4795 26.592 52.4721 26.592C52.4795 26.592 52.4832 26.592 52.487 26.592V26.6017Z" fill="black"/>
<path d="M73.2317 27.3357C73.1609 25.6575 72.6322 24.038 71.7534 22.898C71.7161 22.6974 71.5411 22.3793 71.2805 22.0613C70.9975 21.7775 70.6549 21.4399 70.2825 21.2638C70.1001 21.1659 69.925 21.0632 69.7575 20.9996C69.5899 20.9458 69.4372 20.8919 69.3144 20.8528C69.0686 20.7696 68.9345 20.706 69.009 20.6424C68.3313 20.5299 68.6143 20.6277 68.8452 20.706C68.9606 20.7403 69.0574 20.8185 69.0276 20.8332C68.9978 20.843 68.834 20.8283 68.4169 20.8088C68.309 20.7549 68.1563 20.7256 67.9924 20.7158C67.8621 20.7109 67.7765 20.7256 67.6722 20.7305C67.4786 20.7452 67.3222 20.75 67.3408 20.6082L67.4525 20.569L66.7227 20.6179L67.1769 20.3244C66.5476 20.4076 66.0934 20.6962 66.0673 20.9115C65.4715 20.7794 64.6262 20.9311 64.3507 20.6913L64.5704 20.6179C62.9059 20.7892 61.7925 19.9525 60.4929 20.4761C60.3961 20.4418 60.4035 20.3684 60.6083 20.3635L59.5769 20.3831L59.8189 20.1629L58.1209 20.5494L58.1395 20.4076C57.015 20.3929 55.2537 20.5397 53.8051 20.6424L54.0211 20.5641C52.446 20.8479 52.4907 20.4907 51.3401 20.6962C51.381 20.6571 51.4183 20.6424 51.4592 20.6326L50.4203 20.6816L50.6474 20.5348C49.8841 20.8724 48.4356 20.2363 48.9159 20.4712C48.484 20.6228 47.7355 20.8234 47.6126 20.9996C46.4769 21.0681 47.3296 20.8283 46.6259 20.7403C45.8066 20.7647 45.6651 21.0143 44.5518 20.9409L44.5704 20.799C44.0491 20.8479 43.7288 20.9653 43.0064 21.0191L43.2187 20.9409C42.0457 21.2931 41.7329 20.5935 40.8243 21.2589C40.3254 21.1708 39.387 21.3029 39.4242 21.0191C37.998 21.2736 36.8735 21.4106 35.4734 21.5965C35.1904 19.2871 34.8925 16.6744 34.5909 13.8562C34.4233 12.1584 34.2371 10.3873 34.077 8.56227C34.036 8.10725 33.9913 7.64733 33.9504 7.18741C33.8983 6.76664 33.8275 6.31162 33.7493 5.87616C33.6748 5.44071 33.511 4.98079 33.3695 4.54534C33.0567 3.66954 32.595 2.828 32.0327 2.14791C31.4741 1.46292 30.815 0.939403 30.1299 0.577342C29.7873 0.391418 29.4335 0.288671 29.0798 0.166353C28.726 0.0733909 28.3611 0.0342491 28.0036 0C27.635 0 27.2589 0.0293564 26.8903 0.0831763C26.5253 0.176138 26.1567 0.2691 25.8067 0.420774C24.3917 1.03237 23.1591 2.34362 22.4367 4.05607C22.3473 4.27135 22.2654 4.49152 22.1835 4.71169C22.0979 4.93187 22.0271 5.15693 21.975 5.39178C21.9191 5.62663 21.867 5.86149 21.8149 6.09634L21.7441 6.4535L21.7106 6.62964C21.6994 6.68836 21.6994 6.70303 21.6957 6.74218L21.5058 8.28828C21.3755 9.31575 21.2898 10.3432 21.1967 11.3658C20.9063 14.9766 20.8095 18.4994 20.8541 21.7922C20.3179 21.8167 19.8152 21.8411 19.3796 21.8656C18.7428 22.0368 17.7858 22.394 16.7581 22.3695L16.8623 22.3304C15.0861 22.5897 13.187 22.8246 11.1725 22.9469C11.2731 22.8441 11.1427 22.7952 11.2321 22.7218C10.7741 22.9958 10.1038 22.8637 9.69049 22.9273L10.2155 23.035C9.66442 23.353 8.82287 23.2796 8.50635 23.1622C8.21218 23.3089 7.91801 23.4655 7.62756 23.6221C7.56426 23.6123 7.46744 23.5927 7.44882 23.5585L7.3036 23.7297L6.77111 23.5291C6.6594 23.578 6.30937 23.7346 5.94072 23.901C5.75826 23.989 5.56835 24.0918 5.40451 24.1945C5.2295 24.3071 5.14385 24.3902 4.96884 24.5419C4.89064 24.5223 4.4922 24.6104 4.26133 24.7132C4.03047 24.811 3.93365 24.8061 4.45124 24.493C2.61918 25.3199 1.19673 27.502 0.81319 30.0169C0.895111 29.6303 1.01055 29.2634 1.14088 28.9013C1.25631 28.8818 1.16322 29.4004 1.11481 30.0707C1.04406 30.7361 1.04406 31.5581 1.03661 32.1256C0.932348 31.3917 0.872769 31.3477 0.809466 31.5923C0.779676 31.7146 0.749887 31.9055 0.727545 32.1158C0.71265 32.3262 0.701479 32.5464 0.690308 32.7177C0.809466 33.2265 0.816913 32.9868 0.824361 32.6932C0.831808 32.3996 0.842979 32.0571 0.921177 32.3165C1.02916 32.9427 1.2712 33.8772 1.59517 34.665C1.68081 34.8558 1.76646 35.0466 1.84838 35.2227L1.90796 35.3548L1.94892 35.4331C1.97498 35.482 1.99733 35.5261 2.01967 35.5701C2.10904 35.7511 2.17234 35.8979 2.19841 35.9958L1.94519 35.6875C2.43672 36.4655 2.36597 37.0918 2.80909 37.9039C3.31179 38.5351 3.51287 39.1565 3.68789 38.7602C4.32836 39.7387 3.73629 39.3277 3.90014 39.6898C4.3023 40.0518 5.03959 41.5735 5.03586 41.8768C5.75081 42.0236 6.57375 44.7195 7.03549 44.5532L7.40041 45.5415C7.49723 45.473 7.78395 45.4192 8.24942 46.0161C8.56965 46.7206 8.33879 46.7451 8.38719 47.0191L8.96437 47.0485C9.85433 48.6141 11.0087 50.2287 12.2785 51.7895C12.2449 52.0243 12.2673 52.0635 12.3455 51.8727C12.3529 51.8825 12.3567 51.8874 12.3641 51.8971C12.1407 52.905 12.0141 55.0138 11.6529 54.4805C11.5523 55.4003 11.4667 56.0119 11.3513 56.6627C11.2917 56.9856 11.2433 57.333 11.1837 57.7244C11.1539 57.9201 11.1241 58.1354 11.0906 58.3604C11.0683 58.5953 11.0422 58.8644 11.0422 59.1482C11.0124 58.7078 10.9863 58.5953 10.9305 58.6638C10.8858 58.7372 10.7964 58.9916 10.7741 59.2558C10.7368 59.52 10.7145 59.7891 10.7033 59.8674C10.6922 59.9408 10.6251 59.8282 10.6065 59.2949C10.5916 59.4515 10.5805 59.5885 10.5805 59.7206C10.5879 59.8478 10.6028 59.9652 10.6177 60.068C10.6475 60.2784 10.6996 60.4496 10.7704 60.5964C10.8932 60.8998 11.0571 61.1346 11.2358 61.526C11.355 61.9272 11.3289 62.1131 11.2098 62.0887C11.1278 62.0642 10.964 61.937 10.8076 61.6826C10.9305 61.9174 11.0683 62.1425 11.2135 62.3431L11.1613 62.3676L11.4704 62.7101L11.8055 62.9938C12.0737 63.4146 12.0886 63.5076 12.0923 63.6103C12.0997 63.7082 12.1183 63.8011 12.5168 64.1094C12.6099 64.0605 12.703 63.992 12.7923 63.9235C12.9562 64.0751 13.1237 64.2366 13.3136 64.3442C13.1275 64.1192 13.6376 64.2904 14.2595 64.266L14.2446 64.3393L14.6244 64.2904C14.751 64.2611 14.8739 64.217 14.9968 64.1779C14.6393 64.3638 14.8068 64.3393 15.0377 64.3051C15.2686 64.2855 15.5404 64.1534 15.3952 64.3491C15.559 64.2806 15.6819 64.2268 15.7936 64.1779C15.8793 64.129 15.9537 64.0849 16.0431 64.036C16.2181 63.9284 16.4416 63.7865 16.881 63.5125L16.6613 63.3999C17.7784 62.5731 16.8028 63.669 17.756 63.1553L17.6257 62.9596C19.1152 62.5828 19.8674 61.4428 20.951 61.1248C20.3924 61.5016 20.6233 61.6875 20.6158 61.6141C20.8765 61.438 21.1967 61.2422 21.5356 61.0367C21.9675 61.3792 22.3957 61.7266 22.8091 62.074L22.5931 61.9762C23.1405 62.4899 23.7214 62.94 24.2837 63.4244L23.0995 62.2697C23.5054 62.4997 23.8405 62.6318 24.2092 62.9156C24.6709 63.3119 25.1587 63.7718 25.7061 64.1877C26.2498 64.6084 26.8195 65.0439 27.4153 65.4793C28.0074 65.9099 28.6441 66.2818 29.2771 66.6634C29.5937 66.8493 29.9139 67.0352 30.2341 67.2016C30.5581 67.3582 30.8858 67.5049 31.2097 67.6468C33.012 67.9551 32.1295 68.7477 33.8759 69.1049C33.7232 69.0902 33.6488 69.1489 33.5073 69.144C33.9578 69.3006 34.3563 69.4425 34.7324 69.5746C34.926 69.6382 35.1122 69.7018 35.2946 69.7654C35.6074 69.8534 35.9128 69.9415 36.2218 69.9758C36.84 70.0345 37.4656 69.9953 38.0949 69.7605C38.7279 69.5501 39.3646 69.1489 39.9679 68.5324C39.9567 68.7232 40.0535 68.7281 40.2099 68.6254C40.2881 68.5764 40.3812 68.4982 40.4743 68.4052C40.5637 68.3024 40.6605 68.185 40.7536 68.0676C40.9472 67.8327 41.1111 67.5587 41.2228 67.3728C41.3382 67.1918 41.4127 67.1037 41.4164 67.226C41.4239 67.0842 41.435 66.9521 41.4313 66.8102C41.5505 66.6487 41.6994 66.4139 41.8521 66.1545C41.9861 65.8854 42.1202 65.5821 42.2356 65.313C42.4367 64.7552 42.5745 64.31 42.6043 64.4861C42.6452 63.8501 42.6415 63.2287 42.567 62.622L42.7607 62.4654C42.7644 62.1572 42.7309 61.8049 42.6974 61.4233C42.6564 61.0416 42.567 60.6404 42.4777 60.2246C42.4181 59.9946 42.3548 59.75 42.2915 59.5053C42.2319 59.2705 42.176 59.0356 42.1165 58.8008C41.8968 57.8712 41.7366 56.9905 41.8409 56.5795C41.3121 55.0481 40.7834 53.0029 40.2918 50.8354C41.3159 50.0722 40.7983 50.6152 42.0755 49.6367L42.0941 49.7786L42.5372 49.3334L43.3378 49.1866L43.025 49.1719C43.4905 48.8685 43.7549 48.5994 44.3321 48.345L44.1757 48.6679C45.4715 47.7677 45.829 48.0661 47.002 47.0387C47.1025 47.0191 46.9238 47.2001 46.8344 47.2931C47.9031 46.2852 47.8398 47.0974 48.8936 46.021C48.8415 46.1286 48.9978 46.1286 48.9718 46.2118L49.467 45.7666L49.5154 46.0503L49.8208 45.4094L50.2453 45.473L50.4091 45.2235C51.1539 45.3702 51.8353 44.5042 52.7476 44.4015L52.4981 44.1568C54.2408 42.2829 57.1528 41.7741 59.4242 39.998L59.4726 40.2818L60.3477 39.3718C60.9472 39.2494 60.1094 39.7876 60.3216 39.817C61.3233 39.0244 60.6232 39.1663 61.8185 38.3345C62.5074 38.1192 61.6696 38.6574 61.4052 38.9314C62.5037 38.0948 64.1459 36.9058 65.006 36.5389C65.0135 36.4948 65.047 36.4166 64.9986 36.4263C65.721 35.8343 66.7673 35.3206 67.6014 34.7775C67.6238 34.9096 67.4227 35.0564 67.2216 35.2129C67.5307 35.0368 67.9701 34.8607 68.1861 34.5769L67.9515 34.9977C68.6106 34.6356 69.7798 33.6522 70.0181 33.8234C69.9623 33.7989 69.925 33.7353 69.9697 33.6326C69.9921 33.5837 70.0368 33.5201 70.1112 33.4516C70.1485 33.4173 70.1931 33.3831 70.2453 33.3439C70.3272 33.2803 70.4203 33.2118 70.5246 33.1335C70.6809 33.1335 70.9044 33.021 71.1613 32.8008C71.2842 32.6736 71.4182 32.5171 71.556 32.3458C71.6901 32.1746 71.8353 31.9935 71.9545 31.7538C72.0811 31.5287 72.2039 31.2841 72.3268 31.0394C72.4311 30.7801 72.5279 30.511 72.6247 30.2419C72.7327 29.9777 72.7848 29.6988 72.863 29.4346C72.9375 29.1704 73.0083 28.9062 73.0567 28.6469C73.1498 28.9307 72.729 30.4376 72.8556 30.0169C73.0343 29.5227 73.1572 29.0188 73.1609 28.5099C73.1944 28.006 73.1349 27.5216 73.0716 27.0617L73.2056 27.3454L73.2317 27.3357ZM25.088 17.4181C25.3747 15.6665 25.6614 13.9981 25.7396 11.8551C25.9928 11.2924 25.8253 12.3052 25.9221 12.7504C25.9184 11.9725 25.9891 11.3218 26.0785 10.7395C26.1641 10.1573 26.287 9.64845 26.4248 9.16407C26.4918 8.91944 26.5588 8.6797 26.6259 8.43995C26.6594 8.31763 26.6929 8.19532 26.7264 8.073C26.7413 8.02407 26.7599 7.92132 26.7711 7.91643L26.8083 7.85772C26.9014 7.70115 26.9796 7.55926 27.0764 7.3978L26.961 7.24613C27.0169 7.1972 27.1025 7.1972 27.1546 7.16295C27.2068 7.11892 27.2775 7.11892 27.3334 7.09934C27.4525 7.06999 27.568 7.06999 27.676 7.07488C27.7318 7.09934 27.7802 7.10424 27.8361 7.10424C27.8919 7.14338 27.9552 7.12381 28.0074 7.16784C28.0558 7.20698 28.1191 7.20209 28.1563 7.25102C28.1787 7.27059 28.201 7.28038 28.2233 7.29016C28.242 7.30973 28.2531 7.3342 28.268 7.34887C28.3872 7.48587 28.4691 7.58372 28.5101 7.98982L28.5175 8.01918L28.525 8.11703L28.5436 8.32253L28.5771 8.73351L28.6404 9.5506C28.6776 10.0937 28.7111 10.6368 28.7372 11.1799L28.8005 10.6466C29.009 11.2092 29.1245 12.1584 29.2697 12.8483C29.1989 12.9706 28.875 12.4031 29.0723 13.6311C29.1021 13.362 29.1059 12.8287 29.2027 12.9706C29.1841 14.8445 29.4186 17.7166 29.7687 20.8724C29.7947 21.0925 29.8208 21.3225 29.8431 21.5476C29.0574 21.5133 28.268 21.5084 27.4935 21.5867L27.4227 21.3421L26.9759 21.6405C26.1976 21.6503 25.3449 21.665 24.4847 21.6846C24.6374 20.0846 24.872 18.7342 25.0954 17.4279L25.088 17.4181ZM12.2152 41.5637C11.4555 40.4628 10.722 39.6458 10.0666 38.7112C9.73145 38.2562 9.40004 37.7914 9.06118 37.2875C8.72605 36.7786 8.40954 36.2062 8.0744 35.5799C8.38719 35.6729 7.02432 33.8479 7.60894 34.0583C6.70408 32.6443 7.49723 34.5377 6.92006 34.0387C6.70408 33.6081 6.38384 33.2314 6.45459 33.0553C6.63333 33.1874 6.45832 32.5415 6.66684 32.8644L6.11201 31.8712C6.08595 31.7538 6.24607 31.9397 6.32426 32.0327C6.26096 31.9299 6.19393 31.8321 6.13063 31.7342C6.12318 31.7195 6.10084 31.7098 6.08967 31.6951C6.08595 31.6755 6.07478 31.6608 6.06361 31.6413C6.06361 31.6168 6.0636 31.6021 6.05616 31.5825C6.05616 31.4994 6.08595 31.426 6.12691 31.3722C6.21628 31.2596 6.27213 31.2645 6.29447 31.0884C6.26841 31.0052 6.24607 31.015 6.21628 31.015C6.19766 31.0346 6.16414 31.0346 6.13063 30.9612C6.13808 30.8193 6.20138 30.7752 6.24234 30.7508C6.26468 30.741 6.29075 30.7557 6.31309 30.7606H6.39129C6.43598 30.7606 6.48066 30.7557 6.52534 30.7508C6.8791 30.7361 7.22168 30.7312 7.97014 30.4132L7.68714 30.7312C8.15632 30.4425 8.34623 30.1783 9.19524 30.1979C9.37397 30.4523 8.52125 30.5746 8.1526 30.8046C8.70371 30.6725 10.1336 30.3202 9.66815 30.149C10.3459 29.9288 10.6214 30.149 11.0012 30.1637C11.0087 30.0903 10.3384 30.0756 10.7331 29.8799C11.6901 29.8848 13.1684 29.7086 14.3637 29.6352C14.3563 29.7086 14.4457 29.8065 14.3414 29.8505C15.2835 29.4004 15.209 30.0413 16.5384 29.8701C17.9608 29.7331 19.5508 29.5521 21.1781 29.3759C21.4909 33.8038 21.9787 37.4049 22.4553 39.7191C22.6639 40.1546 22.8612 41.4022 23.0511 40.8983C23.1777 41.8622 22.8761 42.3368 23.0735 42.508C23.1181 41.1772 23.5762 42.8652 23.7326 41.5539L23.8256 42.3759C23.9671 42.5325 23.6097 41.2701 23.8592 41.4463L23.498 41.2506C23.5091 40.5754 23.5613 40.2035 23.6655 39.954C23.4942 39.3375 22.999 38.9803 23.1256 37.4538L23.1666 37.8697C23.0884 36.6416 23.3527 37.0966 23.3937 36.8373L23.4049 37.1113L23.524 36.0643C23.4496 36.8569 23.7959 38.1241 23.74 37.4489C23.7623 35.9811 23.6767 37.8354 23.5762 36.7444C23.524 36.0643 23.7177 36.2404 23.8256 36.26L23.7549 35.0417C23.9187 35.0711 23.7847 35.849 23.9262 35.3402L23.6841 33.8185C24.0789 33.5005 23.4198 32.155 23.7772 31.426C23.9187 32.5268 23.9113 31.3183 24.0491 31.4847L23.956 29.0921C23.9858 29.0921 24.0156 29.0873 24.0453 29.0824C24.0602 29.1851 24.0677 29.234 24.0565 29.0824C25.5758 28.9356 27.0541 28.823 28.3835 28.7888C28.9755 28.4659 29.7873 28.3436 30.6475 28.2408C30.7443 29.0041 30.8374 29.7576 30.9267 30.4817C32.029 36.9596 33.1312 43.9122 34.5089 50.4097C34.4345 50.4244 34.36 50.4391 34.2855 50.4489C34.3525 50.4587 34.4494 50.4734 34.5313 50.5027C34.5499 50.5957 34.5722 50.6886 34.5909 50.7767C34.5313 50.8452 34.4345 50.9284 34.2781 51.0311C34.1105 50.5076 32.6099 51.7699 32.5428 51.491C32.2375 51.677 31.6342 51.8335 31.6715 52.0684L31.6156 51.7161C31.6975 52.2103 30.5618 52.8414 29.7277 53.4188C29.7165 52.6898 28.7968 54.0157 28.2271 53.6732C28.2047 54.182 26.7488 54.7153 26.7152 55.1606C26.0561 55.5618 25.9928 55.1361 25.7806 55.097L25.5237 55.4297C25.3822 55.4297 25.1327 55.5129 24.8385 55.6352C24.8236 55.6254 24.8124 55.6156 24.7975 55.6058C24.1757 55.1557 23.498 54.6664 22.958 54.1038C22.8575 53.6977 21.4574 52.494 20.6754 51.5302C20.2583 51.129 19.7705 50.7229 19.2939 50.2189C18.8135 49.7248 18.3034 49.2012 17.7784 48.663C17.056 47.8606 16.3112 47.0191 15.6074 46.1482C15.6484 45.9916 15.6745 45.8204 15.6372 45.6589C15.7564 45.7127 16.5235 44.2596 16.058 45.7274L16.3969 44.7587C16.8512 44.2596 15.924 46.4124 16.5868 45.6344C16.9927 44.5874 16.8921 43.6186 17.5736 42.5178C17.6331 43.1147 17.9199 41.5343 18.0539 42.053C18.0241 42.3661 17.8454 42.6744 17.7113 43.0315L17.8566 42.8603C18.9662 40.7319 17.8603 41.9845 18.255 40.6928C18.8992 39.3424 18.9774 39.8219 19.1301 39.8512C19.2865 39.6947 19.5955 39.0146 19.7221 38.6183C19.4391 39.5332 18.7838 39.9295 18.8284 39.4305C19.1226 39.269 19.3796 38.7944 19.5918 38.31C19.8041 37.8257 19.9604 37.3217 20.0089 37.0966C19.346 37.8648 19.1561 38.1779 18.9848 38.4862C18.8135 38.7944 18.6311 39.0635 18.0204 39.8268C17.9869 40.1546 18.2364 40.3161 17.6145 41.3191C17.8193 40.5313 17.4507 41.2506 17.3166 41.412C17.5587 41.3191 17.0113 42.2193 16.9256 42.6107C16.665 42.8309 16.8921 41.6713 16.3149 42.7624L16.5682 43.2419C16.3261 43.6529 16.3931 42.8603 16.0692 43.878C16.1101 43.2272 15.7117 43.8241 16.2256 42.4835C15.425 43.5648 15.3542 44.558 15.1792 45.6002C15.0452 45.429 14.9111 45.2577 14.7845 45.0865L14.6505 45.3605L14.1366 44.7489C14.1813 44.7097 14.1366 44.5972 14.226 44.6657C14.0249 43.9367 13.0493 43.2517 12.7812 42.5765C12.8631 43.1049 13.0939 43.0658 13.3621 43.4425C13.6748 44.0835 13.1275 43.7899 12.6806 42.9581L12.729 42.9239L12.271 42.5471C12.3678 42.3221 12.1034 41.7937 12.2077 41.5588L12.2152 41.5637ZM18.9848 60.2735L18.6423 60.0386L18.3257 60.6698C17.7672 61.0465 17.447 60.9487 16.9703 61.1688C17.4395 60.8802 17.8007 59.8772 16.5793 60.5719C17.2086 60.1658 17.4581 59.7842 17.7672 59.52C17.5103 59.6472 17.3725 59.6815 17.7151 59.3096C16.7953 59.9555 17.4693 59.7108 16.5384 60.2882C16.4862 59.931 16.1883 59.975 15.3282 60.3273L16.0208 60.2197C16.0059 60.2735 15.9724 60.3273 15.9314 60.3762C16.1772 60.2784 16.2591 60.2931 16.3485 60.3909C16.1623 60.4937 15.3766 61.4086 15.1569 61.301C15.4362 61.2961 15.4771 61.3743 15.3952 61.4967C15.3542 61.5603 15.2835 61.6288 15.1941 61.7071C15.1494 61.7413 15.1047 61.7804 15.0526 61.8245C15.0191 61.8489 14.9819 61.8783 14.9446 61.9077C14.7994 62.03 14.6244 62.0936 14.5201 62.1621C14.4159 62.2159 14.3749 62.2697 14.5015 62.348C14.4605 62.3969 14.3042 62.4507 14.1478 62.4361C13.9951 62.4067 13.8461 62.3578 13.835 62.2501C14.1627 62.1719 14.0398 62.0544 13.8945 61.9272C13.8238 61.8489 13.7419 61.7804 13.6897 61.7022C13.6413 61.619 13.619 61.5505 13.6562 61.5016C13.5557 61.5065 13.6264 61.6092 13.6972 61.7266C13.7717 61.8245 13.8536 61.9223 13.6972 61.9468C13.3583 61.8294 13.2243 61.4575 13.1498 61.2374L13.2801 61.2814C13.1759 61.1248 13.0939 60.9536 13.0306 60.7823C12.9562 60.8068 12.9785 60.9634 13.0009 61.0661C13.0157 61.1737 13.012 61.2422 12.8184 61.0661C12.7812 60.9046 12.4646 60.4545 12.5912 60.3909C12.7104 60.4692 12.8258 60.3958 12.9152 60.3762C13.0157 60.342 13.0791 60.3616 13.1945 60.4741C13.1014 60.3762 12.9785 60.1022 12.8891 59.887C12.7849 59.6815 12.7253 59.5053 12.6136 59.7695C12.6024 59.6228 12.5875 59.476 12.5987 59.3292C12.5317 59.4662 12.4795 59.75 12.4349 59.9016C12.4051 60.0484 12.3045 60.0582 12.2412 59.5298H12.2971L12.1965 59.1628L12.1407 58.7616L12.3604 58.3506C12.2896 58.3458 12.2598 58.1598 12.338 57.7635C12.4349 57.6852 12.5354 57.3232 12.6359 57.3917C12.8631 56.2419 12.7104 56.2859 12.6657 56.1049C12.7849 55.4541 12.9003 55.2389 12.9822 55.596C13.1461 54.9844 13.3658 54.045 13.5855 53.3601C13.7903 53.5998 13.9914 53.8395 14.1924 54.0744C14.5946 54.5196 14.9968 54.9649 15.3952 55.4052C16.1772 56.3104 16.9815 57.1421 17.7113 57.9984C18.2252 58.4485 18.7987 58.9084 19.3982 59.3781C19.3349 59.564 19.3758 59.6717 19.67 59.5934C19.7035 59.6179 19.737 59.6472 19.7705 59.6717C19.6849 59.8576 19.2716 60.1658 18.9588 60.2735H18.9848ZM37.3092 62.6318C37.257 62.7345 37.1639 62.7737 37.0932 62.7639C37.082 62.759 37.0746 62.7639 37.0671 62.7639C37.056 62.7541 37.0485 62.7492 37.0411 62.7541C37.0262 62.7639 37.0113 62.7492 36.9964 62.7492L36.9517 62.7345H36.9405C36.9405 62.7345 36.9442 62.7345 36.9256 62.7296L36.8586 62.7003L36.5905 62.578C35.8681 62.255 35.1345 62.0202 34.36 61.8L34.3712 61.5358C33.969 61.1933 33.8014 61.2912 33.336 61.071L33.3658 61.0123C32.3045 60.3762 30.9565 59.7842 30.3831 59.3194L30.2528 59.5494C29.616 59.1775 30.0033 59.1433 29.3107 58.8693L29.3777 58.7567L28.5436 58.4974C28.6665 58.2968 28.2345 58.013 27.7281 57.6754C27.8994 57.5923 28.0223 57.5629 28.0558 57.6265C28.1414 57.3525 28.6478 57.333 28.9532 56.966L29.0612 57.0198L28.9308 56.8241C30.2453 56.6773 30.7666 55.4199 32.0699 55.1948L31.8912 55.371L32.3492 54.9991C32.4609 55.0529 32.2822 55.2291 32.3045 55.371L34.576 54.0989L34.0733 54.1869C34.4866 53.9227 34.7249 53.5753 35.1867 53.3747C35.1978 53.4139 35.2053 53.453 35.2164 53.4922C35.1308 53.6047 35.1494 53.6194 35.2388 53.5802C35.3542 54.0695 35.4622 54.5637 35.5814 55.0432C35.2984 53.864 35.7973 54.2163 35.9091 55.141C35.8681 56.4914 36.1511 57.5336 36.4564 58.5708C36.7618 59.6081 37.1081 60.6111 37.19 61.9321L37.3054 62.3138C37.3054 62.3138 37.3203 62.3382 37.3278 62.3529C37.339 62.3822 37.3464 62.4116 37.3501 62.441C37.3613 62.5046 37.3278 62.5633 37.3129 62.6171L37.3092 62.6318ZM69.2138 27.2133C69.2213 27.2574 69.2064 27.3063 69.2138 27.3601C69.2138 27.4139 69.2399 27.4727 69.2324 27.5363C69.1393 27.6781 68.9569 27.8787 68.7372 27.7466C68.7372 27.8396 68.6925 27.9375 68.5957 28.0011C68.5733 28.0206 68.5584 28.0451 68.5435 28.0696C68.5138 28.0842 68.4877 28.1087 68.4691 28.1332C68.4505 28.1625 68.4356 28.1919 68.4244 28.231L68.4169 28.2604L68.3834 28.3044C68.3611 28.3338 68.3425 28.3631 68.3313 28.3974C68.4989 28.3338 68.484 28.3387 68.5324 28.3191C68.5659 28.2995 68.5994 28.28 68.6217 28.2604C68.6702 28.2163 68.6627 28.1332 68.6813 28.0842C68.7074 28.0402 68.6962 27.9766 68.726 27.9375C68.7707 27.913 68.793 27.8641 68.9196 27.8249C68.9755 27.9032 69.0239 27.9815 69.0798 28.0794C69.0723 28.0989 69.0649 28.1234 69.0574 28.1478C69.0462 28.1674 69.0313 28.1821 69.0202 28.2017C68.9941 28.2408 68.9755 28.2848 68.9569 28.3338C68.9271 28.3729 68.8899 28.4072 68.8638 28.4561C68.834 28.5001 68.8117 28.5539 68.7595 28.5833C68.6925 28.686 68.1824 29.0236 67.9142 29.1264C68.0446 29.1117 68.119 29.1509 68.0744 29.2585C66.9833 30.0756 66.7636 30.5649 65.6353 31.1667C65.397 31.0003 66.0561 30.6382 66.5141 30.3202C65.7322 30.56 65.7694 30.7752 64.6374 31.377C64.4959 31.1862 65.3821 30.9269 65.4305 30.6285L64.2389 31.4602C64.2389 31.4602 64.2278 31.4309 64.2241 31.4162C64.1831 31.9055 63.2857 31.9642 62.5782 32.5415C60.8131 33.6424 60.7238 34.3127 59.8562 35.2227C59.5545 35.2863 59.4428 35.2374 59.521 35.0711C60.0163 34.9683 59.8897 34.8851 60.0051 34.6943C59.4242 35.1053 58.5678 35.1347 58.847 34.7726C57.9384 35.4674 59.2604 34.7628 58.7242 35.2374L57.4171 36.0105C57.6406 36.1083 58.1135 35.8686 57.4916 36.4312C56.9442 36.8324 56.6575 36.9645 55.909 37.4098C55.9835 37.2483 55.5702 37.2581 56.1325 36.9303C55.7489 37.0771 55.1866 37.4147 55.034 37.7327C55.909 37.4147 53.7605 38.7161 54.4717 38.6427L53.5966 38.9608C53.7828 38.8531 53.7567 38.7112 54.0435 38.5791C53.7083 38.4275 53.4104 39.0684 53.1349 39.269C52.8295 39.3864 52.0774 39.817 51.9731 39.7387C51.7459 39.9785 51.0943 40.2916 50.923 40.2133C50.5618 40.502 50.9602 40.4237 50.882 40.5852L49.5713 41.3484C49.4447 41.2261 49.1766 40.8396 49.3516 40.6585C48.9122 41.1087 49.3442 41.2457 48.5957 41.6811C48.9122 41.1087 47.527 42.0285 48.0148 41.2799C47.5084 41.3044 46.2944 42.0432 45.654 42.5325C45.3263 43.0315 46.4285 42.2389 46.4732 42.5227C44.6225 43.7508 44.7528 44.5238 43.3267 45.2284L43.7102 45.0865C42.8984 45.747 42.9841 45.6589 42.5559 46.1775C42.6862 45.7176 41.2786 45.9035 39.8822 46.8087C39.8189 47.0387 40.7834 46.6423 40.6381 47.0338L39.7109 47.6405C39.6328 47.6551 39.7184 47.5426 39.8264 47.4252C39.7594 47.479 39.6886 47.5181 39.6216 47.5573C39.4131 46.52 39.2194 45.4975 39.0444 44.5336C38.7763 44.0296 38.538 42.8652 38.3406 41.96L38.3704 40.913C38.1209 40.0127 37.6666 39.1124 37.648 38.2024C37.6741 38.2024 37.7002 38.2269 37.7225 38.2856C37.4991 37.356 37.4618 36.4214 37.1006 35.5995C36.948 34.6796 36.8884 33.7598 37.056 33.7353C36.7618 33.4565 36.8214 31.5581 36.8214 31.5581C36.8214 31.5581 36.7022 30.7214 36.4862 29.2291C36.4602 29.0432 36.4304 28.8475 36.4043 28.6469L37.3948 28.5931C38.214 28.5637 37.8603 28.1527 38.7689 28.231C38.9588 28.368 38.4486 28.3484 38.5268 28.5246C41.2526 28.7594 41.6361 27.3993 44.1757 27.502L43.9634 27.5803C44.3916 27.4286 45.2109 27.4042 45.2183 27.3357C44.8794 26.8464 44.7715 27.6292 43.9895 27.3699C44.0453 26.9442 44.9465 27.0959 44.8869 26.7779C45.4827 26.9051 45.8253 26.6458 46.3429 26.5969C47.2291 26.8219 48.4914 26.5773 49.1654 26.8757C49.5936 26.7241 50.0666 26.2837 50.9938 26.2299C51.6677 26.5333 50.8448 26.5528 51.7534 26.636L51.8912 26.3816C52.6359 26.3865 52.5205 26.4599 52.4944 26.5773C53.2876 26.5528 53.146 26.2103 54.144 26.3278L53.5929 26.592C54.3265 26.4696 54.6281 26.4941 55.6521 26.4745C55.6335 26.6164 55.2201 26.6262 54.9185 26.5969C55.4845 26.9393 55.8681 26.4011 56.1697 26.4256C56.0803 26.3229 55.3691 26.3033 55.7117 26.044C56.2218 26.0684 56.7878 25.6672 57.1565 25.9412L56.6054 26.2005C57.6629 25.9657 57.1676 25.8727 58.3853 25.9168C58.3183 25.9363 58.3518 25.9999 58.3257 26.0489C59.0891 25.7015 60.1019 25.951 61.2414 25.9314L61.0254 26.0048C61.4834 25.9021 61.7329 25.6721 61.9787 25.6819C61.327 25.5645 61.502 25.4862 61.4387 25.2514C62.3064 25.6281 62.742 24.7327 64.1459 24.9235C64.1272 25.0654 63.7921 25.2465 63.4011 25.1144C62.9319 25.5498 62.8798 25.9021 62.0271 26.132C62.5558 26.0146 63.1814 25.9363 63.0511 26.1174L63.2075 25.726C63.5277 25.7064 63.7847 25.7162 64.0267 25.7113C64.1608 25.4617 63.3676 25.3345 64.1123 25.1437C64.9502 24.9871 64.5666 25.5253 64.6932 25.3443C65.8476 25.1486 65.1624 24.9138 66.2795 25.0018C66.1678 25.0361 65.9519 25.1144 65.8588 25.0801C66.6482 25.2122 67.8398 24.9382 68.0371 25.403C67.9627 25.5058 67.9142 25.6526 67.6201 25.6183L67.6312 25.5449C67.1956 25.7308 67.378 25.7015 67.635 25.677C67.7653 25.6672 67.9105 25.6575 68.0111 25.677C68.0669 25.7015 68.0744 25.7553 68.052 25.8581C68.0371 25.7357 68.1451 25.6868 68.2829 25.6966C68.3499 25.7113 68.4244 25.7357 68.4914 25.77C68.551 25.8287 68.6068 25.8727 68.6515 25.9021C68.6664 25.8091 68.6776 25.7113 68.6888 25.6134C68.8228 25.5547 68.9122 25.5694 68.9792 25.5792C69.0462 25.589 69.0909 25.6036 69.1096 25.6281C69.1431 25.6819 69.0909 25.7504 69.0276 25.8336C68.8973 26.0097 68.7558 26.2348 68.9569 26.4941C69.2808 26.8415 68.9308 26.269 69.1877 26.4501C69.2101 26.5479 69.2324 26.6262 69.225 26.7143C69.2175 26.7975 69.2101 26.8757 69.2138 26.9491C69.2026 27.0274 69.1877 27.1057 69.2026 27.1938L69.2138 27.2133Z" fill="black"/>
<path d="M11.2395 22.7218C11.2619 22.7071 11.288 22.6974 11.3103 22.6827C11.2768 22.6974 11.2544 22.712 11.2395 22.7218Z" fill="black"/>
<path d="M37.056 33.7549C37.0783 33.7794 37.1044 33.7941 37.1341 33.7941C37.1044 33.7647 37.0783 33.7549 37.056 33.7549Z" fill="black"/>
<path d="M10.815 61.6826C10.7592 61.5798 10.6996 61.4771 10.6549 61.3646C10.7071 61.4869 10.7592 61.5945 10.815 61.6826Z" fill="black"/>
<path d="M64.373 31.0688L63.7511 31.6364L64.2129 31.3966C64.1905 31.3379 64.1905 31.2596 64.373 31.0688Z" fill="black"/>
<path d="M58.3332 26.0684C58.2736 26.0929 58.2103 26.1174 58.1582 26.1516C58.2773 26.132 58.3145 26.1027 58.3332 26.0684Z" fill="black"/>
<path d="M52.6471 26.8072C53.053 26.729 52.688 26.6702 52.487 26.6017C52.4795 26.6605 52.487 26.729 52.6471 26.8072Z" fill="black"/>
<path d="M52.0476 39.5675C51.9582 39.68 51.947 39.7289 51.9731 39.7485C52.0438 39.6751 52.0774 39.6115 52.0476 39.5675Z" fill="black"/>
<path d="M18.3704 59.2167C18.4188 59.2069 18.4598 59.1922 18.5194 59.1824C18.4896 59.1775 18.4375 59.1922 18.3704 59.2167Z" fill="black"/>
<path d="M60.0014 34.6943C60.1205 34.6111 60.236 34.5133 60.3216 34.3959C60.1317 34.5182 60.0535 34.616 60.0014 34.6943Z" fill="black"/>
<path d="M17.7709 59.5151C17.9571 59.4221 18.2029 59.2852 18.3704 59.2167C18.1135 59.2803 17.9273 59.3781 17.7709 59.5151Z" fill="black"/>
<path d="M39.8264 47.4448C39.8264 47.4448 39.8562 47.4252 39.8748 47.4105C40.2025 47.0827 39.9902 47.2637 39.8264 47.4448Z" fill="black"/>
<path d="M15.7154 60.5475C15.8011 60.4937 15.8793 60.4349 15.9351 60.3664C15.8607 60.4007 15.7713 60.4349 15.6596 60.4839C15.6968 60.5034 15.708 60.523 15.7154 60.5426V60.5475Z" fill="black"/>
<path d="M32.6694 51.1681C32.5689 51.3394 32.5428 51.4372 32.554 51.491C32.7067 51.3981 32.7923 51.2953 32.6694 51.1681Z" fill="black"/>
</svg>
