<svg width="58" height="72" viewBox="0 0 58 72" fill="none" xmlns="http://www.w3.org/2000/svg">
<path d="M12.3355 18.499C12.3038 18.4737 12.2711 18.4519 12.2233 18.4391C12.2745 18.4882 12.309 18.503 12.3355 18.499Z" fill="black"/>
<path d="M16.2689 41.9645L16.1645 41.691C16.2083 41.8687 16.2409 41.9408 16.2689 41.9645Z" fill="black"/>
<path d="M10.2335 3.18752C10.1245 3.5473 10.0683 3.93363 10.0807 4.33402C10.0907 4.36155 10.0993 4.36135 10.1072 4.38025C10.0877 4.2402 10.0975 4.08561 10.1141 3.8875C10.1145 3.68628 10.1677 3.46133 10.2335 3.18752Z" fill="black"/>
<path d="M35.692 52.889L35.6351 53.1782C35.6681 53.0491 35.6933 52.967 35.692 52.889Z" fill="black"/>
<path d="M20.3523 62.3808C20.4138 62.4731 20.4639 62.6263 20.5101 62.7779C20.4737 62.5879 20.4321 62.4345 20.3523 62.3808Z" fill="black"/>
<path d="M15.8139 3.92317L15.5312 3.56532C15.5093 3.61786 15.601 3.75801 15.8139 3.92317Z" fill="black"/>
<path d="M27.598 13.9002C27.598 13.9002 27.6034 13.8793 27.5972 13.8534C27.5704 13.8419 27.5813 13.8659 27.598 13.9002Z" fill="black"/>
<path d="M27.6974 19.2836C27.2822 19.1283 26.9131 19.1089 26.5255 19.0621L27.6974 19.2836Z" fill="black"/>
<path d="M43.9443 10.6663L44.0013 10.776C43.9864 10.6844 43.9661 10.6641 43.9443 10.6663Z" fill="black"/>
<path d="M26.9806 20.292L26.6913 20.1598C26.795 20.2199 26.8869 20.2594 26.9806 20.292Z" fill="black"/>
<path d="M12.8161 4.94158C12.7934 4.897 12.7605 4.85958 12.7087 4.82954C12.7554 4.89612 12.7651 4.90805 12.8031 5.07543C12.832 5.2118 12.8553 5.35351 12.8736 5.48144C12.9132 5.74246 12.9414 5.94823 13.0098 5.94668C12.9586 5.73102 12.9362 5.46962 12.8933 5.23817C12.8743 5.12932 12.8437 4.99993 12.8169 4.93809L12.8161 4.94158Z" fill="black"/>
<path d="M36.8482 6.79605L36.6019 6.84499C36.7214 6.82667 36.7934 6.81117 36.8482 6.79605Z" fill="black"/>
<path d="M27.3149 20.4475C27.2905 20.4099 27.2558 20.3794 27.2228 20.342C27.1438 20.3351 27.0628 20.3196 26.9806 20.292L27.3158 20.444L27.3149 20.4475Z" fill="black"/>
<path d="M3.74017 18.1005C3.74017 18.1005 3.74195 18.0935 3.7514 18.0898C3.76325 18.06 3.77421 18.0338 3.78607 18.004L3.74017 18.1005Z" fill="black"/>
<path d="M2.0246 19.7403C2.1163 19.5977 2.20327 19.457 2.30147 19.3056C2.12238 19.5074 2.05518 19.6372 2.0246 19.7403Z" fill="black"/>
<path d="M26.5246 19.0656L25.8552 18.9403C26.093 19.0078 26.3103 19.0393 26.5246 19.0656Z" fill="black"/>
<path d="M25.1454 34.0605C25.0596 34.0468 24.9776 34.0348 24.8977 34.0314C25.0065 34.0549 25.0884 34.067 25.1454 34.0605Z" fill="black"/>
<path d="M20.0198 60.4717C20.0187 60.4093 20.0106 60.3245 20.0037 60.2518C19.9672 60.2283 19.9465 60.2427 20.0198 60.4717Z" fill="black"/>
<path d="M28.6905 62.9707C28.6259 63.2566 28.5965 63.5383 28.6652 63.9513C28.7604 63.6785 28.7472 63.2313 28.6905 62.9707Z" fill="black"/>
<path d="M29.1998 61.0443C29.1871 61.0775 29.1761 61.1038 29.1577 61.1424C29.1752 61.1073 29.1909 61.0792 29.1998 61.0443Z" fill="black"/>
<path d="M24.2135 61.211C24.2135 61.211 24.202 61.2061 24.1964 61.2114C24.204 61.2147 24.207 61.2198 24.2108 61.2215L24.2135 61.211Z" fill="black"/>
<path d="M25.1042 65.4438C25.1211 65.3775 25.1233 65.2856 25.11 65.1714C25.096 65.2428 25.0967 65.3399 25.1042 65.4438Z" fill="black"/>
<path d="M30.7745 51.8383C30.7745 51.8383 30.7774 51.8434 30.7813 51.8451C30.783 51.8381 30.7839 51.8346 30.7857 51.8276C30.7839 51.8346 30.783 51.8381 30.7822 51.8416L30.7745 51.8383Z" fill="black"/>
<path d="M25.2325 71.0295C26.5631 71.5284 27.9574 71.5783 29.0601 71.1388C29.2261 71.1715 29.5169 71.1146 29.8282 70.9774C30.1181 70.8078 30.4644 70.6005 30.6915 70.3109C30.8118 70.1729 30.9341 70.0435 31.024 69.9079C31.1063 69.769 31.1849 69.6441 31.245 69.5421C31.369 69.3398 31.4508 69.2357 31.4828 69.3269C31.7332 68.7297 31.5888 68.962 31.4722 69.1519C31.4178 69.2485 31.3333 69.3129 31.329 69.28C31.3284 69.2488 31.3792 69.1003 31.4944 68.7161C31.5623 68.633 31.6219 68.4998 31.6688 68.3496C31.7038 68.2291 31.7128 68.1439 31.734 68.0446C31.7688 67.8582 31.8025 67.71 31.9091 67.7752L31.913 67.8931L32.0494 67.1927L32.1704 67.7173C32.256 67.0996 32.1388 66.5767 31.9766 66.4798C32.2226 65.966 32.3063 65.1228 32.56 64.9454L32.5648 65.176C32.8293 63.5586 33.7508 62.7971 33.6523 61.4031C33.7022 61.3239 33.7579 61.3556 33.7127 61.5491L33.9444 60.576L34.0588 60.877L34.1628 59.1557L34.2694 59.221C34.5502 58.1722 34.857 56.4723 35.1235 55.0804L35.133 55.3092C35.2881 53.7377 35.557 53.8998 35.6716 52.7524C35.6925 52.804 35.695 52.8438 35.6929 52.8855L35.9034 51.8955L35.9639 52.1578C35.8824 51.3288 36.7271 50.1857 36.4283 50.5568C36.413 50.1009 36.4352 49.332 36.3268 49.1576C36.5451 48.0703 36.5286 48.9501 36.766 48.3203C36.943 47.5444 36.7816 47.3278 37.1057 46.3092L37.2123 46.3745C37.2988 45.8695 37.2836 45.5299 37.4144 44.8348L37.4249 45.0601C37.43 43.8423 38.0526 43.7849 37.7493 42.7094C37.9377 42.2715 38.059 41.3477 38.2722 41.4782C38.4146 40.0562 38.5766 38.9563 38.7664 37.5817C40.6418 38.0943 42.7582 38.6951 45.0364 39.3615C46.4054 39.7763 47.8364 40.1983 49.3032 40.6629C49.6692 40.7778 50.0399 40.8908 50.4097 41.0073C50.7515 41.1001 51.1246 41.1871 51.4842 41.2605C51.8429 41.3373 52.2421 41.3387 52.6169 41.3528C53.3773 41.3546 54.1466 41.2054 54.8135 40.9075C55.4835 40.6148 56.0511 40.1736 56.4985 39.6535C56.7261 39.3951 56.8912 39.0982 57.0717 38.8079C57.2292 38.5078 57.3472 38.179 57.4596 37.8556C57.5479 37.5101 57.615 37.1478 57.6611 36.7843C57.6757 36.411 57.6912 36.0343 57.6563 35.6552C57.5164 34.1234 56.7852 32.5268 55.6178 31.2732C55.4707 31.117 55.3179 30.9661 55.1652 30.8151C55.0134 30.6607 54.8542 30.5186 54.6828 30.3907C54.5124 30.2593 54.341 30.1313 54.1697 30.0034L53.9071 29.8168L53.7772 29.7261C53.7339 29.6958 53.7224 29.6909 53.6927 29.6742L52.528 28.9756C51.7549 28.5074 50.9712 28.0812 50.1931 27.6495C47.4362 26.1613 44.702 24.8842 42.1139 23.8172C42.2231 23.3065 42.3244 22.8272 42.4095 22.4107C42.428 21.7564 42.3776 20.7394 42.6428 19.7846L42.6485 19.8955C42.8708 18.1438 43.1418 16.2852 43.5284 14.3564C43.5848 14.4852 43.6543 14.3795 43.6903 14.488C43.5855 13.9665 43.8494 13.383 43.8986 12.9742L43.6886 13.43C43.5717 12.8065 43.8306 12.0426 43.9983 11.7856C43.9539 11.4605 43.9018 11.1321 43.8488 10.8072C43.8716 10.7512 43.9101 10.6671 43.9414 10.6612L43.8421 10.4674L44.1266 10.036C44.1151 9.91487 44.0763 9.53415 44.0344 9.1327C44.0092 8.93207 43.9742 8.71951 43.933 8.53138C43.8868 8.32949 43.8422 8.22123 43.7654 8.00616C43.7995 7.93947 43.8259 7.53647 43.8008 7.28553C43.7795 7.03625 43.8065 6.94718 43.9277 7.53763C43.7191 5.54247 42.3517 3.47469 40.475 2.26836C40.758 2.47529 41.0176 2.70704 41.2697 2.95109C41.2574 3.06585 40.8738 2.80396 40.3607 2.53286C39.8568 2.24247 39.2134 1.96564 38.7709 1.76752C39.3703 1.91699 39.4191 1.87599 39.2427 1.73429C39.1541 1.66518 39.0119 1.573 38.8526 1.48121C38.6915 1.3964 38.5218 1.31179 38.3904 1.24365C37.9636 1.18394 38.1495 1.27166 38.3775 1.3775C38.6055 1.48334 38.8709 1.60915 38.6492 1.59509C38.1331 1.48537 37.3437 1.39745 36.6495 1.43572C36.4796 1.45171 36.3098 1.4677 36.1523 1.48514L36.0346 1.49648L35.9635 1.5085C35.919 1.51644 35.8792 1.52255 35.8394 1.52865C35.6763 1.55143 35.5462 1.56131 35.4634 1.55278L35.7653 1.41932C35.0386 1.6179 34.5654 1.3407 33.8235 1.48239C33.2091 1.74087 32.6746 1.72002 32.9429 2.01748C32.0236 2.28807 32.487 1.8717 32.1644 1.90329C31.7847 2.15819 30.4171 2.3366 30.1806 2.23095C29.8945 2.85145 27.5872 2.71465 27.6068 3.20334L26.7459 3.21243C26.7763 3.32622 26.7498 3.61302 26.1711 3.84814C25.5429 3.91093 25.579 3.68637 25.353 3.63945L25.1918 4.17039C23.7532 4.47703 22.2129 5.01493 20.6872 5.67911C20.5114 5.56862 20.4754 5.57637 20.606 5.71391C20.5966 5.71759 20.5919 5.71943 20.5824 5.72311C19.847 5.17432 18.2267 4.3455 18.7306 4.18666C18.0347 3.78267 17.5765 3.49645 17.0948 3.16913C16.8563 3.00455 16.5959 2.8422 16.3038 2.65455C16.1578 2.56073 15.9964 2.46031 15.8283 2.35311C15.6498 2.25309 15.4454 2.13803 15.2233 2.04247C15.5751 2.16285 15.6694 2.17632 15.6292 2.10092C15.5824 2.03433 15.4047 1.8649 15.2032 1.75499C15.0053 1.63112 14.8 1.51956 14.7414 1.48273C14.6867 1.44754 14.7908 1.42263 15.2127 1.58479C15.0937 1.51811 14.9891 1.4615 14.8857 1.41702C14.7844 1.38115 14.6889 1.35556 14.6049 1.33492C14.4331 1.29198 14.2866 1.28315 14.1547 1.30002C13.8879 1.313 13.6648 1.38743 13.3156 1.42309C12.9731 1.39963 12.8338 1.31259 12.8814 1.20918C12.9202 1.14065 13.059 1.02997 13.2956 0.969106C13.0824 1.00516 12.8732 1.05846 12.6814 1.12698L12.6747 1.06989L12.3327 1.24416L12.0303 1.46262C11.6367 1.57213 11.5604 1.55478 11.4791 1.52367C11.4007 1.49769 11.3235 1.48383 10.9868 1.75337C11.0028 1.85707 11.0341 1.96737 11.0663 2.07418C10.9084 2.17663 10.7419 2.27926 10.6121 2.42096C10.8329 2.3223 10.5767 2.74265 10.4469 3.33359L10.393 3.29491L10.3404 3.66729C10.3331 3.79581 10.3381 3.92579 10.3393 4.05411C10.2794 3.65653 10.2584 3.82179 10.2299 4.04965C10.19 4.27257 10.2283 4.57177 10.1099 4.36978C10.1242 4.54638 10.137 4.67965 10.1485 4.8008C10.1663 4.89753 10.1829 4.98215 10.1998 5.08236C10.2422 5.28261 10.2997 5.53975 10.409 6.04375L10.5497 5.87578C10.9294 7.20102 10.3051 5.91774 10.479 6.984L10.6634 6.92779C10.6016 8.45035 11.3138 9.5391 11.3033 10.6616C11.1422 10.0113 10.9413 10.165 11.0006 10.1828C11.076 10.4863 11.1525 10.8523 11.2322 11.239C10.8607 11.5284 10.4863 11.8127 10.1154 12.083L10.2437 11.9136C9.7105 12.2535 9.21906 12.6462 8.70527 13.01L9.89265 12.2893C9.61545 12.5921 9.4318 12.8617 9.1214 13.1115C8.70063 13.4107 8.22382 13.7129 7.76721 14.0858C7.30767 14.4535 6.8304 14.8407 6.34688 15.2523C5.86808 15.6621 5.42455 16.1335 4.97425 16.5982C4.75292 16.8321 4.53071 17.0696 4.32381 17.3136C4.12368 17.5645 3.93033 17.8221 3.74169 18.0779C3.06885 19.6628 2.65975 18.569 1.96198 20.0851C2.01003 19.947 1.98191 19.8574 2.01962 19.7265C1.78917 20.096 1.58271 20.4215 1.38924 20.7295C1.29309 20.8895 1.19872 21.0425 1.10524 21.1921C0.961406 21.4555 0.819351 21.712 0.718533 21.99C0.524559 22.5495 0.405398 23.1488 0.438536 23.8176C0.451628 24.4816 0.613192 25.2134 0.951292 25.9863C0.804607 25.9115 0.777596 26.0006 0.820569 26.1817C0.840145 26.2715 0.879126 26.3851 0.929601 26.5036C0.988624 26.622 1.05736 26.7522 1.12698 26.879C1.26444 27.1396 1.43967 27.3853 1.55846 27.5526C1.67251 27.7218 1.72362 27.8212 1.62698 27.7835C1.73626 27.8383 1.83699 27.8932 1.94894 27.9375C2.04679 28.1036 2.19495 28.3222 2.36137 28.5526C2.5399 28.7688 2.74525 28.9966 2.92824 29.1954C3.31669 29.5717 3.6322 29.8507 3.4872 29.8193C3.97526 30.0719 4.46253 30.2777 4.95525 30.4122L5.03144 30.6464C5.27182 30.7537 5.55559 30.8409 5.86233 30.938C6.17086 31.0282 6.5063 31.0796 6.85323 31.1359C7.0475 31.1575 7.25414 31.1806 7.46079 31.2036C7.65888 31.2269 7.85609 31.2537 8.05418 31.2769C8.83444 31.3841 9.56214 31.5307 9.85887 31.7668C11.1842 31.7871 12.9117 31.9804 14.7259 32.2498C15.0782 33.4663 14.777 32.7984 15.2371 34.3248L15.1216 34.2945L15.364 34.8596L15.2872 35.6592L15.3736 35.3711C15.4996 35.9094 15.6469 36.2478 15.7078 36.8743L15.4925 36.619C15.8869 38.1364 15.5677 38.3708 16.091 39.816C16.0823 39.9168 15.9834 39.6883 15.932 39.5733C16.465 40.9141 15.8445 40.5813 16.4347 41.9312C16.3629 41.8461 16.3254 41.9927 16.2666 41.9402L16.4965 42.5542L16.2628 42.504L16.6914 43.006L16.5399 43.3824L16.696 43.6199C16.4028 44.2683 16.9175 45.1985 16.7794 46.088L17.0307 45.9366C18.0802 48.2006 17.7812 51.1006 18.6274 53.8271L18.3937 53.7769L18.8965 54.9033C18.8487 55.5063 18.6281 54.54 18.5543 54.729C18.9348 55.9345 18.9914 55.2308 19.3562 56.6309C19.3598 57.3489 19.1391 56.3826 18.988 56.0426C19.3798 57.3537 19.9172 59.2928 19.9985 60.2224C20.0312 60.2442 20.0844 60.302 20.0883 60.2533C20.3788 61.1296 20.5303 62.2831 20.7557 63.2476C20.6469 63.224 20.5802 62.9862 20.5058 62.745C20.5696 63.0939 20.6023 63.565 20.7727 63.8629L20.4995 63.5014C20.6251 64.2409 21.1149 65.6677 20.9238 65.8334C20.9563 65.7893 21.015 65.7758 21.0847 65.8523C21.1177 65.8897 21.1568 65.953 21.1926 66.0458C21.2105 66.0923 21.2266 66.1457 21.2447 66.2077C21.2749 66.3059 21.3062 66.4162 21.3425 66.5402C21.3051 66.6868 21.3397 66.934 21.4505 67.249C21.5206 67.4069 21.6111 67.5853 21.7121 67.772C21.8141 67.9553 21.921 68.1524 22.0801 68.3448C22.226 68.5392 22.388 68.7367 22.5501 68.9343C22.7281 69.1193 22.9156 69.3006 23.103 69.482C23.284 69.6722 23.4898 69.8149 23.6778 69.9772C23.8668 70.1359 24.0567 70.2912 24.2481 70.4239C24.0037 70.4156 22.9248 69.5138 23.2239 69.7741C23.5679 70.108 23.9329 70.3929 24.3303 70.5677C24.7168 70.7689 25.1102 70.8762 25.4853 70.9717L25.2311 71.0018L25.2325 71.0295ZM44.5239 29.2575C45.8262 30.1161 47.0635 30.9466 48.7222 31.7416C49.102 32.1684 48.3494 31.6703 47.9777 31.611C48.5875 31.8695 49.0799 32.155 49.5143 32.4348C49.9495 32.7112 50.3184 32.9977 50.6645 33.2899C50.84 33.4351 51.0116 33.5786 51.1832 33.7222C51.2709 33.7948 51.3586 33.8674 51.4463 33.94C51.4811 33.9704 51.557 34.0225 51.5582 34.0346L51.5952 34.0892C51.6955 34.2292 51.7878 34.3503 51.891 34.4953L52.0374 34.4383C52.0623 34.5071 52.0418 34.5873 52.0561 34.6477C52.0781 34.7114 52.0612 34.7777 52.0631 34.8366C52.0576 34.9582 52.0299 35.0663 52.0002 35.1659C51.9677 35.21 51.9523 35.2537 51.9389 35.306C51.8949 35.3452 51.8951 35.4111 51.8481 35.4451C51.8059 35.4773 51.7946 35.5382 51.7473 35.5567C51.7267 35.571 51.7137 35.5886 51.7007 35.6063C51.6809 35.6171 51.6591 35.6194 51.644 35.6284C51.5082 35.6939 51.412 35.7377 51.0843 35.6393L51.0596 35.6364L50.9812 35.6104L50.8159 35.5587L50.4862 35.4517L49.8314 35.2358C49.3974 35.0878 48.9643 34.9363 48.533 34.7778L48.9352 35.0167C48.4449 35.0226 47.6743 34.8111 47.0995 34.7149C47.0207 34.6074 47.5425 34.495 46.534 34.2663C46.7375 34.3849 47.154 34.568 47.0198 34.6109C45.5575 33.9624 43.2532 33.2149 40.6992 32.4801C40.5206 32.4304 40.3344 32.3774 40.1529 32.3225C40.3678 31.5978 40.5607 30.8598 40.6849 30.1076L40.8933 30.1237L40.7667 29.6045C40.9454 28.872 41.1381 28.068 41.3288 27.2554C42.5445 27.9373 43.5454 28.6119 44.5144 29.2612L44.5239 29.2575ZM28.7065 9.06361C29.7501 8.72256 30.5653 8.31036 31.4538 8.01098C31.8902 7.85019 32.3334 7.69619 32.809 7.54839C33.2875 7.40573 33.8114 7.30193 34.3818 7.19881C34.2342 7.4606 35.989 6.79816 35.6844 7.27512C37.0078 6.90344 35.3358 7.00896 35.8646 6.6362C36.2534 6.57883 36.6249 6.40564 36.7459 6.53125C36.5997 6.65424 37.1471 6.70776 36.8444 6.7944L37.7547 6.609C37.8529 6.62412 37.669 6.71154 37.5775 6.75351C37.6731 6.7288 37.7657 6.69895 37.8575 6.67258C37.8708 6.67055 37.8838 6.65291 37.8979 6.64739C37.9141 6.65049 37.9283 6.64496 37.9463 6.64109C37.9654 6.64933 37.9769 6.65427 37.994 6.65388C38.0591 6.68189 38.1095 6.73452 38.1418 6.79103C38.2085 6.91267 38.1913 6.96336 38.3238 7.04361C38.3951 7.0472 38.3928 7.02297 38.3999 6.99506C38.3891 6.97102 38.3971 6.93962 38.4626 6.93293C38.5719 6.98769 38.5912 7.06184 38.6005 7.10846C38.6028 7.13269 38.5851 7.15217 38.5759 7.17146L38.5572 7.24473C38.5465 7.2866 38.5396 7.33012 38.5327 7.37364C38.4595 7.71006 38.3813 8.03271 38.451 8.84115L38.2699 8.46887C38.3835 9.00572 38.5448 9.27265 38.3262 10.0616C38.0842 10.1434 38.1927 9.30318 38.101 8.8803C38.0724 9.44119 38.0057 10.8997 38.2512 10.5212C38.2613 11.2304 38.023 11.4144 37.9205 11.7654C37.9762 11.7971 38.1482 11.174 38.2069 11.6097C37.9739 12.5048 37.7577 13.9494 37.529 15.0941C37.4733 15.0624 37.3753 15.1132 37.3658 15.0007C37.4926 16.035 37.0087 15.7494 36.8244 17.0527C36.591 18.4317 36.352 19.9826 36.1002 21.5667C32.5594 20.3686 29.6238 19.6129 27.6982 19.2801C27.3075 19.3289 26.2836 19.0936 26.6326 19.4413C25.8478 19.2353 25.5486 18.7929 25.3673 18.9201C26.3983 19.4102 24.9673 19.2709 25.9562 19.859L25.2906 19.6694C25.1341 19.7493 26.2078 19.8395 26.0102 20.0139L26.2499 19.7414C26.7757 19.9792 27.0543 20.1533 27.2246 20.335C27.7482 20.3822 28.1463 20.0384 29.3109 20.6711L28.9756 20.5694C29.9556 20.9097 29.5361 21.0042 29.7293 21.13L29.5121 21.0481L30.3032 21.5124C29.7006 21.1757 28.6257 21.0734 29.1676 21.2485C30.3112 21.7637 28.8802 21.059 29.7583 21.3322C30.3032 21.5124 30.1189 21.6345 30.0777 21.7291L31.0483 22.0731C30.9861 22.2168 30.4093 21.8292 30.7737 22.1331L32.0227 22.4188C32.1771 22.8957 33.3881 22.7313 33.8731 23.3118C32.9776 23.0736 33.9253 23.4736 33.7621 23.5467L35.6571 24.2652C35.65 24.2931 35.6467 24.3227 35.6434 24.3523C35.5594 24.3316 35.5193 24.3221 35.6407 24.3627C35.3918 25.8358 35.1259 27.2589 34.8344 28.5161C34.9454 29.1796 34.8467 29.9814 34.7212 30.8221C34.1005 30.6557 33.4885 30.4892 32.9003 30.3291C27.5657 29.1802 21.8597 27.8716 16.4439 26.9744C16.4502 26.8996 16.4566 26.8249 16.4668 26.7518C16.443 26.8113 16.4084 26.8971 16.3658 26.964C16.2886 26.9501 16.2104 26.9398 16.137 26.9275C16.0977 26.8487 16.0558 26.7299 16.0128 26.5488C16.4627 26.5681 15.834 24.7368 16.0683 24.7679C15.9959 24.4192 16.0178 23.8012 15.8251 23.757L16.1142 23.8233C15.7078 23.7336 15.4857 22.4569 15.2335 21.4809C15.8068 21.7159 14.9892 20.4075 15.3937 19.989C15.0007 19.7967 14.9319 18.2528 14.5915 18.0715C14.4353 17.3188 14.7836 17.4028 14.8651 17.2171L14.6662 16.8643C14.7 16.7317 14.6947 16.4699 14.6694 16.1531C14.6806 16.1424 14.6909 16.1353 14.7022 16.1246C15.2034 15.6935 15.7487 15.2232 16.3184 14.9068C16.6603 14.9493 17.9377 14.0427 18.8794 13.6346C19.2933 13.3789 19.728 13.0586 20.2366 12.7817C20.7384 12.498 21.2704 12.1963 21.8174 11.8856C22.6185 11.4789 23.4555 11.0645 24.3057 10.6983C24.4185 10.7894 24.5463 10.8715 24.6816 10.891C24.6109 10.9845 25.5647 12.1927 24.5272 11.2622L25.2043 11.906C25.4862 12.4998 24.0231 10.9059 24.4733 11.789C25.1957 12.522 25.9781 12.754 26.6766 13.7633C26.1951 13.6181 27.3635 14.419 26.9254 14.3699C26.6874 14.2365 26.489 13.9653 26.2415 13.7194L26.3408 13.9131C27.741 15.6697 27.0254 14.2115 27.9419 15.0164C28.8447 16.0748 28.4506 15.9866 28.3911 16.1198C28.4762 16.3191 28.9345 16.8377 29.2144 17.0898C28.566 16.5165 28.4128 15.7689 28.7927 15.9789C28.8486 16.3089 29.1586 16.7095 29.4869 17.0715C29.8152 17.4335 30.1722 17.7498 30.3368 17.8709C29.8943 16.9912 29.6946 16.7077 29.4944 16.4434C29.2941 16.1791 29.1272 15.9175 28.676 15.0882C28.4274 14.9464 28.2413 15.1258 27.6051 14.2054C28.1726 14.6625 27.6979 14.0749 27.6037 13.8949C27.6185 14.153 27.0449 13.3369 26.759 13.1248C26.6491 12.8064 27.5023 13.4098 26.7865 12.5015L26.3506 12.5773C26.0868 12.2121 26.6912 12.5418 25.9722 11.8956C26.4717 12.1531 26.0999 11.5787 27.0262 12.5117C26.3715 11.3974 25.611 10.9966 24.8372 10.4816C25.0033 10.4137 25.1695 10.3457 25.3338 10.2848L25.1515 10.0669L25.7532 9.79135C25.7732 9.8464 25.872 9.84243 25.797 9.9031C26.4157 9.9602 27.1855 9.27671 27.7782 9.25288C27.345 9.15169 27.3203 9.3812 26.9613 9.50555C26.3847 9.58278 26.7455 9.16873 27.5036 9.03015L27.5188 9.08704L27.9234 8.78475C28.0763 8.95126 28.5533 8.88149 28.7121 9.05828L28.7065 9.06361ZM12.4405 9.10597L12.7063 8.86405L12.2881 8.35491C12.127 7.70465 12.2802 7.43753 12.222 6.91677C12.3356 7.45362 13.0342 8.12987 12.7829 6.75142C12.9501 7.47786 13.189 7.84017 13.3218 8.21875C13.2838 7.93515 13.29 7.79452 13.499 8.24075C13.2137 7.16141 13.2438 7.87535 13.0148 6.80861C13.3069 6.88005 13.3437 6.58608 13.274 5.66144L13.1924 6.34668C13.1538 6.3146 13.1197 6.26507 13.0912 6.21021C13.109 6.47345 13.0779 6.54527 12.9799 6.59606C12.944 6.387 12.416 5.34264 12.5529 5.17303C12.4898 5.43637 12.4187 5.44838 12.3426 5.33043C12.3026 5.27063 12.266 5.18126 12.2261 5.07116C12.21 5.01775 12.19 4.9627 12.1681 4.89902C12.1569 4.85938 12.1429 4.8146 12.1288 4.76982C12.0678 4.59255 12.06 4.40713 12.0313 4.28637C12.0141 4.17055 11.9818 4.11404 11.8902 4.20631C11.8617 4.15145 11.8571 3.98678 11.906 3.84517C11.9655 3.712 12.0395 3.58891 12.1264 3.61469C12.1092 3.94811 12.2306 3.87251 12.3649 3.77927C12.4432 3.73934 12.5164 3.68565 12.5901 3.66316C12.6668 3.64582 12.7258 3.64795 12.7552 3.69932C12.7754 3.60346 12.6781 3.63515 12.5692 3.6619C12.4748 3.69873 12.3786 3.74254 12.3969 3.58775C12.5699 3.30978 12.8931 3.3094 13.0833 3.31377L13.0176 3.42106C13.1651 3.37609 13.3188 3.357 13.468 3.35535C13.4667 3.27733 13.3388 3.24554 13.253 3.23187C13.1652 3.20957 13.1124 3.18302 13.2967 3.0609C13.432 3.08038 13.8601 2.93539 13.8796 3.07545C13.7898 3.16074 13.8196 3.29362 13.8135 3.38395C13.8162 3.48969 13.7857 3.54242 13.67 3.61269C13.7689 3.55841 14.0128 3.53554 14.2027 3.5243C14.3885 3.49581 14.5406 3.4993 14.3606 3.30564C14.4782 3.34461 14.5966 3.38009 14.7088 3.43999C14.6177 3.33104 14.408 3.18663 14.3 3.09368C14.1922 3.01633 14.2086 2.91882 14.6374 3.03747L14.624 3.0898L14.9354 3.11918L15.2628 3.20196L15.5319 3.54623C15.5526 3.48158 15.7053 3.51628 15.9968 3.72303C16.0349 3.84011 16.2942 4.05625 16.2165 4.12739C17.0621 4.72746 17.0642 4.56957 17.2166 4.58867C17.6974 4.91947 17.8383 5.10014 17.5391 5.05662C17.9786 5.41611 18.6613 5.93834 19.1448 6.37489C18.9081 6.48606 18.6723 6.59374 18.4404 6.70306C17.9956 6.92995 17.5507 7.15684 17.1107 7.38189C16.2149 7.80979 15.3712 8.28334 14.5263 8.67886C14.0509 9.00878 13.5536 9.39123 13.0424 9.79481C12.912 9.67288 12.8179 9.67501 12.8087 9.97702C12.7816 10.0002 12.7506 10.0217 12.7234 10.0449C12.5984 9.902 12.4561 9.41089 12.4467 9.08154L12.4405 9.10597ZM6.20663 25.4822C6.13869 25.3987 6.13034 25.2983 6.15494 25.2353C6.16145 25.2265 6.1594 25.2178 6.16118 25.2109C6.17152 25.2037 6.17713 25.1984 6.17509 25.1897C6.171 25.1725 6.18605 25.1635 6.18962 25.1495L6.2118 25.1126L6.21448 25.1021C6.21448 25.1021 6.21359 25.1056 6.22187 25.0898L6.26091 25.0369L6.42085 24.8269C6.84659 24.2587 7.20608 23.6504 7.56389 22.9988L7.76802 23.0983C8.13241 22.8368 8.09593 22.6468 8.37973 22.2848L8.41856 22.3325C9.17055 21.5523 9.95674 20.4886 10.4579 20.1078L10.3091 19.9082C10.7526 19.4368 10.6867 19.8112 11.067 19.2545L11.1391 19.3552L11.5418 18.6609C11.6694 18.8436 11.9949 18.5344 12.3804 18.1736C12.4045 18.3621 12.3981 18.4871 12.3403 18.4971C12.5342 18.6697 12.4283 19.1508 12.6424 19.5605L12.5744 19.6435L12.7588 19.5873C12.5589 20.8684 13.4184 21.7804 13.2824 23.0774L13.1874 22.8506L13.3688 23.405C13.2999 23.4916 13.2048 23.2648 13.0884 23.2379L13.5402 25.7948L13.5916 25.2941C13.6995 25.7703 13.9143 26.1106 13.9608 26.6109C13.9275 26.6082 13.895 26.6019 13.8617 26.5992C13.7942 26.4811 13.7782 26.4936 13.7874 26.5905C13.3768 26.5339 12.9642 26.4687 12.5603 26.4188C13.5511 26.5508 13.1558 26.8997 12.4053 26.6929C11.358 26.1998 10.4745 26.114 9.58952 26.0508C8.70449 25.9876 7.83647 25.9743 6.78282 25.6061L6.45645 25.5858C6.45645 25.5858 6.43374 25.5915 6.42047 25.5935C6.39481 25.5941 6.37005 25.5912 6.34618 25.5848C6.29372 25.5738 6.25579 25.5227 6.21723 25.4906L6.20663 25.4822ZM26.2904 67.3058C26.2541 67.298 26.2194 67.2675 26.1755 67.2564C26.1334 67.2383 26.0812 67.2429 26.0332 67.2145C25.9444 67.0795 25.8311 66.841 25.9871 66.6796C25.9143 66.6483 25.8484 66.5735 25.8218 66.4613C25.8119 66.4338 25.7963 66.4116 25.7807 66.3894C25.7763 66.3566 25.7634 66.3239 25.7487 66.2982C25.7302 66.2709 25.7108 66.247 25.6828 66.2234L25.6616 66.2065L25.6352 66.1603C25.6176 66.1295 25.5991 66.1021 25.5749 66.0801C25.5846 66.2586 25.5843 66.243 25.588 66.2949C25.5953 66.3329 25.6026 66.3709 25.6126 66.3984C25.6355 66.4586 25.7024 66.4797 25.7362 66.5136C25.7644 66.5528 25.8169 66.5638 25.8404 66.6049C25.8488 66.655 25.8818 66.6924 25.8821 66.8242C25.8075 66.8502 25.7346 66.8692 25.6446 66.8886C25.6311 66.875 25.6137 66.8598 25.5964 66.8446C25.5837 66.8275 25.5758 66.8086 25.5631 66.7915C25.5388 66.7539 25.5087 66.7217 25.4749 66.6877C25.4514 66.6466 25.4335 66.6002 25.4015 66.5593C25.3741 66.5166 25.3373 66.4775 25.3268 66.4188C25.2625 66.3214 25.1204 65.7297 25.1042 65.4438C25.0844 65.5709 25.036 65.6275 24.9624 65.5494C24.5841 64.2519 24.2537 63.8812 24.0528 62.6213C24.2401 62.454 24.3657 63.1935 24.505 63.7298C24.5046 62.9164 24.3271 62.8787 24.1271 61.6154C24.3104 61.547 24.3011 62.4648 24.5232 62.6107L24.1574 61.214C24.1574 61.214 24.1831 61.2134 24.1955 61.2149C23.8223 61.0117 23.9912 60.151 23.7087 59.2937C23.2697 57.269 22.7664 56.9595 22.2619 55.8401C22.2843 55.536 22.3493 55.4478 22.4608 55.5771C22.4227 56.0758 22.5181 55.9852 22.6398 56.1576C22.4572 55.4749 22.6393 54.6625 22.8558 55.0461C22.5296 53.9607 22.7645 55.4367 22.5214 54.7744L22.2293 53.2893C22.0992 53.4657 22.1736 53.9896 21.8821 53.2174C21.6991 52.5694 21.6644 52.2562 21.4951 51.405C21.6037 51.5291 21.695 51.1385 21.8169 51.7758C21.7939 51.367 21.6643 50.7264 21.4519 50.4762C21.4913 51.4033 20.9871 48.9517 20.8742 49.6429L20.8348 48.7158C20.8745 48.9265 20.9918 48.9499 21.0265 49.263C21.2255 49.0001 20.7951 48.5051 20.7041 48.1793C20.6853 47.8537 20.5284 47.0039 20.6147 46.9325C20.4814 46.6389 20.3923 45.9229 20.4946 45.7887C20.3552 45.3531 20.321 45.7528 20.2134 45.6251L19.9298 44.1399C20.0559 44.0624 20.4226 43.9414 20.5224 44.1663C20.2753 43.603 20.0646 43.9616 19.903 43.1137C20.2753 43.603 19.887 41.9953 20.3561 42.7045C20.4582 42.2217 20.1706 40.8354 19.941 40.0705C19.6289 39.5953 19.9853 40.8951 19.7525 40.8414C19.2344 38.6937 18.5981 38.5554 18.3881 36.9818L18.4073 37.389C18.0847 36.4059 18.1331 36.5158 17.8297 35.9399C18.1585 36.2169 18.35 34.8353 17.9759 33.2221C17.8111 33.0853 17.8903 34.1225 17.6187 33.8546L17.3659 32.7814C17.3731 32.7032 17.4407 32.8214 17.5067 32.9621C17.4807 32.8812 17.467 32.8017 17.4524 32.7257C18.3142 32.8796 19.161 33.0426 19.9574 33.2032C20.416 33.1217 21.3846 33.2905 22.1404 33.4104L22.9528 33.791C23.7172 33.8604 24.5307 33.7379 25.2475 34.0269C25.2412 34.0514 25.2158 34.0675 25.1645 34.0687C25.9457 34.1724 26.6861 34.4523 27.416 34.3906C28.1725 34.5573 28.9068 34.8113 28.8858 34.9765C29.1745 34.7948 30.6462 35.49 30.6462 35.49C30.6462 35.49 31.3296 35.6601 32.5494 35.9603C32.7012 35.9985 32.8615 36.0365 33.0248 36.0796L32.8297 37.0259C32.6565 37.8034 33.0629 37.6103 32.7841 38.4353C32.6314 38.5671 32.7689 38.0957 32.6123 38.1097C31.7757 40.5847 32.7486 41.4021 32.06 43.7472L32.0496 43.5219C32.0658 43.9743 31.8887 44.7501 31.9406 44.7802C32.4047 44.6274 31.8178 44.2626 32.208 43.6172C32.5278 43.8129 32.1933 44.6062 32.4565 44.6575C32.2143 45.1729 32.3352 45.5812 32.2496 46.0827C31.8612 46.8374 31.7504 48.1026 31.3554 48.6336C31.3716 49.086 31.603 49.6774 31.4231 50.5643C31.0243 51.0937 31.206 50.316 30.9233 51.1394L31.0895 51.3541C30.9073 52.0503 30.8775 51.9175 30.7919 51.8535C30.6211 52.6049 30.923 52.5877 30.5922 53.4832L30.5173 52.8779C30.4374 53.6064 30.346 53.8808 30.1161 54.8469C30.0095 54.7817 30.1009 54.3911 30.1961 54.1184C29.7924 54.5334 30.1219 55.074 30.0305 55.3484C30.1323 55.2993 30.318 54.6394 30.4389 55.0478C30.2976 55.5176 30.4761 56.183 30.1734 56.4362L30.1023 55.8325C30.0329 56.9025 30.2243 56.4697 29.8983 57.5959C29.899 57.5265 29.8412 57.5365 29.8091 57.4955C29.8982 58.3278 29.4604 59.1929 29.2029 60.2671L29.1971 60.0401C29.1679 60.5038 29.2881 60.8151 29.2216 61.042C29.4696 60.471 29.4889 60.6613 29.6879 60.6811C29.1853 61.3672 29.7818 62.077 29.2963 63.3282C29.1897 63.2629 29.1282 62.8879 29.3253 62.5661C29.0968 61.9798 28.8335 61.8123 28.8577 60.9358C28.823 61.4708 28.7345 62.0834 28.624 61.9003L28.8929 62.1787C28.8315 62.4853 28.7624 62.7228 28.7082 62.9512C28.8714 63.1609 29.1609 62.4605 29.132 63.2226C29.0539 64.0604 28.7245 63.5198 28.8358 63.6994C28.7126 64.8469 29.0605 64.284 28.7241 65.3011C28.724 65.1849 28.7145 64.9562 28.7636 64.8805C28.4711 65.5757 28.4003 66.7845 27.9892 66.8129C27.9266 66.7085 27.8233 66.6137 27.9205 66.3496L27.9753 66.3848C27.9341 65.9139 27.9134 66.0948 27.871 66.3438C27.8475 66.4692 27.8203 66.6086 27.7809 66.6962C27.7484 66.7403 27.7045 66.7292 27.6294 66.6736C27.7287 66.7009 27.7412 66.8185 27.7005 66.9443C27.673 67.0022 27.636 67.0637 27.5932 67.115C27.5329 67.1511 27.4851 67.1886 27.4514 67.2206C27.5206 67.2658 27.5945 67.3093 27.6684 67.3527C27.6823 67.4981 27.6494 67.5769 27.6257 67.6364C27.602 67.6959 27.5798 67.7328 27.5562 67.742C27.506 67.7553 27.4649 67.6834 27.415 67.596C27.3083 67.4146 27.166 67.2062 26.9149 67.3073C26.5654 67.4939 27.0973 67.3587 26.8941 67.5385C26.8121 67.5264 26.7455 67.521 26.6784 67.4844C26.615 67.4494 26.5555 67.416 26.4972 67.3948C26.4386 67.358 26.3809 67.3177 26.3084 67.302L26.2904 67.3058Z" fill="black"/>
<path d="M43.6885 14.495C43.6947 14.5208 43.6961 14.5486 43.7022 14.5744C43.6988 14.5381 43.6926 14.5122 43.6885 14.495Z" fill="black"/>
<path d="M28.8705 34.97C28.846 34.9827 28.8282 35.0021 28.8211 35.03C28.8512 35.012 28.8651 34.9909 28.8705 34.97Z" fill="black"/>
<path d="M13.2938 0.976085C13.3876 0.95835 13.4823 0.937125 13.5811 0.933153C13.4729 0.940808 13.3761 0.953407 13.2938 0.976085Z" fill="black"/>
<path d="M24.4317 61.4714L24.1364 60.6976L24.2135 61.211C24.2648 61.2098 24.326 61.2362 24.4317 61.4714Z" fill="black"/>
<path d="M29.792 57.4959C29.7871 57.4319 29.7831 57.3643 29.7688 57.3039C29.7556 57.4222 29.7697 57.467 29.792 57.4959Z" fill="black"/>
<path d="M30.5753 51.9191C30.5394 52.3258 30.6727 52.0036 30.7745 51.8383C30.7303 51.8115 30.6749 51.7954 30.5753 51.9191Z" fill="black"/>
<path d="M20.7309 47.06C20.6642 46.9383 20.6286 46.9114 20.607 46.9292C20.6475 47.0202 20.6893 47.0731 20.7309 47.06Z" fill="black"/>
<path d="M13.4148 8.88616C13.4109 8.93482 13.4126 8.97814 13.406 9.03727C13.4169 9.011 13.4179 8.95721 13.4148 8.88616Z" fill="black"/>
<path d="M22.6407 56.1541C22.6773 56.2938 22.7262 56.4349 22.7976 56.5547C22.7474 56.3355 22.6895 56.2293 22.6407 56.1541Z" fill="black"/>
<path d="M13.3248 8.22389C13.353 8.42966 13.4013 8.70608 13.4148 8.88616C13.4266 8.62399 13.3946 8.41657 13.3248 8.22389Z" fill="black"/>
<path d="M17.4914 32.9555C17.4914 32.9555 17.4996 32.99 17.5066 33.0124C17.6848 33.4298 17.5939 33.17 17.4914 32.9555Z" fill="black"/>
<path d="M13.0089 5.95016C13.0305 6.04854 13.0578 6.14159 13.098 6.217C13.089 6.13568 13.0836 6.0404 13.0721 5.91925C13.0478 5.94755 13.0298 5.95143 13.0127 5.95181L13.0089 5.95016Z" fill="black"/>
<path d="M16.2908 24.9953C16.1808 24.8434 16.1104 24.786 16.0656 24.7784C16.1019 24.9527 16.1618 25.0676 16.2908 24.9953Z" fill="black"/>
</svg>
