<svg width="184" height="36" viewBox="0 0 184 36" fill="none" xmlns="http://www.w3.org/2000/svg">
<path d="M162.496 27.5827C162.496 27.5827 162.477 27.6041 162.468 27.6148C162.64 27.6325 162.872 27.6558 163.245 27.6891L162.497 27.5927L162.496 27.5827Z" fill="white"/>
<path d="M159.073 12.219C159.118 12.2859 159.125 12.3857 159.123 12.4961C159.154 12.3735 159.157 12.2731 159.073 12.219Z" fill="white"/>
<path d="M168.2 30.771L167.894 30.5624C167.9 30.6422 167.997 30.7355 168.2 30.771Z" fill="white"/>
<path d="M175.178 29.6566C175.078 29.6638 174.97 29.6916 174.851 29.7202C174.982 29.7208 175.153 29.7286 175.178 29.6566Z" fill="white"/>
<path d="M174.694 29.7616L174.851 29.7202C174.772 29.726 174.702 29.731 174.694 29.7616Z" fill="white"/>
<path d="M2.15434 30.9653C1.82448 30.979 1.55525 31.1388 1.27463 31.2793L2.15434 30.9653Z" fill="white"/>
<path d="M110.475 26.3784L110.55 26.3028C110.481 26.3278 110.473 26.3584 110.475 26.3784Z" fill="white"/>
<path d="M162.194 30.903C161.855 31.0678 161.204 30.8039 161.197 30.9848C161.548 30.9796 162.021 31.146 162.194 30.903Z" fill="white"/>
<path d="M2.1269 32.6717C2.1269 32.6717 2.07272 32.6154 2.04064 32.5877C1.98295 32.6219 1.92383 32.6362 1.85472 32.6512L2.12762 32.6817L2.1269 32.6717Z" fill="white"/>
<path d="M72.9712 26.7046C72.9712 26.7046 72.9712 26.7046 72.9812 26.7039C73.0104 26.6918 73.0297 26.6804 73.0589 26.6682L72.9712 26.7046Z" fill="white"/>
<path d="M70.9776 26.4472C71.1165 26.4272 71.2547 26.3972 71.4036 26.3764C71.182 26.3623 71.0645 26.4009 70.9776 26.4472Z" fill="white"/>
<path d="M1.27463 31.2793L0.776017 31.4556C0.954107 31.4228 1.11935 31.3507 1.27463 31.2793Z" fill="white"/>
<path d="M159.29 11.0604C159.29 11.0604 159.317 11.0183 159.336 10.9969C159.296 10.9998 159.266 11.0019 159.29 11.0604Z" fill="white"/>
<path d="M157.455 24.9682C157.226 25.1251 157.01 25.4715 156.937 25.7173C157.145 25.532 157.341 25.3373 157.455 24.9682Z" fill="white"/>
<path d="M164.503 11.8878C164.503 11.8878 164.493 11.8886 164.483 11.8893C164.483 11.8893 164.484 11.8992 164.504 11.8978L164.503 11.8878Z" fill="white"/>
<path d="M147.778 30.9191C147.778 30.9191 147.778 30.9191 147.758 30.9206L147.778 30.9191Z" fill="white"/>
<path d="M157.302 30.3631C157.302 30.3631 157.301 30.3432 157.279 30.3247C157.28 30.3347 157.281 30.3446 157.302 30.3631Z" fill="white"/>
<path d="M180.307 31.4125C181.331 31.4289 181.095 31.7668 181.138 31.9541C181.295 32.0431 181.814 32.0157 182.089 31.9258C181.451 32.1221 180.953 31.6066 181.258 31.3841C181.683 31.8548 182.771 31.5157 183.06 31.3545C181.636 30.7954 182.051 31.2668 180.716 30.6812C180.514 30.806 180.523 31.2064 179.716 30.9939C180.245 30.8254 179.699 30.7645 179.554 30.6948C179.701 30.9348 178.977 30.7564 178.722 30.8349C178.506 30.6299 179.247 30.3359 178.425 30.1946L178.233 30.7298C177.915 30.6324 178.396 30.3471 177.69 30.428C178.082 30.1692 177.607 29.9828 178.548 29.9551C177.457 29.4222 176.814 30.1001 175.931 30.2339C176.019 30.2075 176.034 30.1363 176.122 30.0999C175.931 30.2339 175.588 30.1985 175.328 30.2172C174.765 30.0573 175.794 30.0032 175.662 29.8422L174.727 29.7994C174.727 29.7994 174.705 29.7709 174.704 29.7609C174.458 29.8188 174.22 29.856 174.139 29.7114C174.428 29.5502 174.546 29.3813 174.738 29.2572L173.738 29.5699C173.856 29.4009 172.95 29.2155 173.656 29.1246L172.201 29.1091L172.104 28.7352C171.756 28.7803 171.741 28.8515 172.147 28.9225C171.658 28.8074 169.917 29.4241 170.218 28.7207C169.061 28.9444 168.66 28.8029 167.273 28.9028C168.347 28.6349 166.084 28.4069 167.221 28.315C166.574 28.1109 166.412 28.5036 165.893 28.531C165.418 28.3446 165.655 28.0068 166.188 27.8981L165.565 28.0232L165.58 27.952L165.031 28.1219C164.473 27.8914 164.934 27.7479 164.356 27.6592L164.208 27.9706L163.822 27.7578C163.964 27.9181 163.615 27.9532 163.184 27.9542L163.199 27.8829L162.681 27.9203C163.2 27.7525 162.212 27.8137 162.467 27.5948C162.022 27.5466 162.013 27.5573 161.211 27.565L161.338 27.7964C160.295 27.9218 161.315 27.4673 160.477 27.3973L160.516 27.6552C159.366 27.1465 158.505 27.7198 157.732 27.2843C158.206 27.3203 158.143 27.004 158.118 27.076C157.545 27.0571 156.807 26.8296 156.156 26.6961C156.327 26.5634 156.452 26.4942 156.45 26.6047L156.33 26.1922C156.556 25.9955 156.747 25.8614 156.927 25.7081C156.857 25.4424 156.21 25.7798 156.621 25.2188C157.12 24.6314 157.205 25.2569 157.17 25.0489C157.821 24.1999 157.186 24.4362 157.994 23.8265C157.951 23.9199 157.854 24.1073 157.766 24.1437C158.42 23.7557 158.903 22.7986 159.404 22.9329C159.414 23.0825 159.513 23.1957 159.306 23.3811L159.261 23.3241C159.002 24.175 159.621 22.7468 159.795 23.2155C159.566 23.1016 160.283 22.3381 160.567 21.9668L160.243 21.9199C160.397 20.1544 160.674 22.3301 161.459 20.9802C161.781 20.0245 161.208 21.2589 161.333 20.6283C161.695 20.0809 162.08 20.003 162.404 19.0673C162.62 18.8712 163 18.4328 163.317 18.5203C163.485 17.9366 164.138 16.8369 163.957 16.4088C163.328 17.2862 163.968 17.5409 163.052 18.4691L162.901 18.0389C163.258 17.2913 163.432 16.226 163.727 15.7236C163.633 15.8205 163.545 15.8469 163.498 15.7501C163.663 14.5651 163.497 14.2061 163.738 13.096C164.041 12.9939 163.909 13.6551 163.833 14.1318C164.205 13.4533 163.978 13.3694 164.248 12.2371C164.516 12.2077 164.123 13.0081 164.346 13.1825C164.375 12.7493 164.444 12.3232 164.423 11.8836C164.433 11.8829 164.452 11.8815 164.472 11.88C164.262 11.7448 164.28 11.5731 164.349 11.147C164.418 10.7009 164.537 10.1309 164.39 9.62011C164.135 7.06179 163.366 7.09718 162.821 6.21406C162.842 5.8115 162.852 5.67043 162.994 5.70026C163.011 6.35074 163.087 6.15476 163.235 6.25441C163.172 6.07847 163.138 5.88043 163.123 5.67097C163.079 5.48362 163.055 5.28485 163.053 5.11457C163.038 4.77473 163.101 4.5296 163.25 4.64921C162.628 3.68135 163.271 5.21917 162.861 4.67724C162.626 4.20288 162.447 3.67434 162.146 3.2449C162.123 3.61754 162.368 4.10116 161.862 3.61628C161.475 3.12278 161.373 2.81933 160.879 2.08294C160.999 2.07432 160.854 1.46311 161.237 2.0471C161.025 1.60122 160.6 1.00016 160.384 1.05587C160.642 1.57866 160.382 1.30666 160.112 1.04535C159.974 0.935008 159.839 0.734176 159.754 0.800489C159.657 0.847573 159.634 0.94947 159.723 1.07338L159.472 0.921073L159.074 1.10015C159.235 0.968244 159.299 0.753038 159.529 0.606125C159.529 0.606125 159.539 0.605406 159.55 0.614662L159.546 0.564791C159.38 0.346166 158.874 1.25488 158.641 1.50226C158.39 1.63066 157.716 2.16044 157.658 2.04435C157.43 2.36154 156.867 2.75304 156.73 2.66264C156.397 3.05756 156.741 2.95261 156.656 3.16925C156.279 3.49723 155.903 3.84515 155.529 4.22299C155.408 4.08128 155.116 3.64116 155.288 3.37815C154.883 4.02889 155.309 4.09844 154.669 4.80633C154.883 4.01892 153.649 5.54152 153.986 4.51464C153.712 4.60459 153.303 5.05512 152.869 5.56766C152.444 6.07948 152.069 6.71809 151.82 7.15713C151.708 7.82692 152.564 6.35157 152.743 6.5994C151.949 7.82962 152.037 8.2143 151.962 8.71094C151.926 9.18475 151.884 9.5688 151.534 10.1454L151.765 9.86811C151.543 10.6862 151.546 10.5857 151.585 11.1343C151.359 10.7696 150.287 11.6189 149.925 12.9984C150.057 13.1594 150.501 12.3654 150.694 12.6724L150.456 13.5517C150.41 13.6052 150.382 13.4969 150.373 13.3672C150.251 14.1781 149.508 14.7229 149.863 15.0582C149.629 15.2856 149.396 15.533 149.174 15.7896L149.453 15.4888C149.604 15.6383 149.482 16.5896 149.546 16.7855C149.627 17.7622 149.46 18.0851 149.228 18.6231C149.376 18.452 149.718 18.0564 149.762 18.8052C149.149 18.7892 149.586 20.392 149.305 20.3921C149.327 20.7013 149.229 21.2799 149.479 21.2819L149.108 21.2786C149.62 21.2818 149.761 22.4046 150.141 23.2294C149.88 23.2281 149.86 23.3599 149.913 23.5466C149.173 23.8505 148.061 24.4219 147.075 24.7838L147.207 24.664C146.187 25.2588 146.109 24.8734 145.335 25.2601C145.352 25.2187 145.38 25.1966 145.409 25.1745C145.163 25.2424 144.918 25.3202 144.671 25.378L144.799 25.2084C144.309 25.6348 143.123 25.1788 143.527 25.3602C143.24 25.5514 142.708 25.8203 142.652 26.0148C141.812 26.1856 142.422 25.881 141.867 25.8408C141.25 25.9053 141.18 26.181 140.316 26.1631L140.306 26.0135C139.92 26.0814 139.688 26.2083 139.133 26.2985L139.287 26.2072C138.403 26.6017 138.12 25.8802 137.448 26.5703C137.051 26.4786 136.318 26.6016 136.337 26.3095C135.191 26.5524 134.287 26.6677 133.124 26.8017C132.929 26.3244 132.876 26.8396 132.165 26.57L132.223 26.8264C130.562 26.8759 128.64 26.2124 126.762 26.3076L126.713 26.0504L126.332 26.3286C124.317 26.193 121.702 26.0707 120.086 26.0468C119.554 26.1753 118.754 26.4836 117.914 26.3837L118.002 26.3473C116.539 26.4928 115.002 26.5936 113.407 26.4378C113.509 26.3302 113.353 26.2512 113.529 26.1884C113.148 26.4665 112.597 26.1954 112.256 26.1899L112.651 26.382C112.197 26.6252 111.548 26.3912 111.314 26.1976L110.602 26.4695C110.602 26.4695 110.487 26.4076 110.474 26.3684L110.344 26.5081L109.959 26.1749C109.784 26.2477 108.837 26.326 108.539 26.6482C108.471 26.5328 107.803 26.4506 108.32 26.3933L105.706 26.2909L106.116 26.4117C106.165 26.6689 105.384 26.8254 104.975 26.7145C105.511 26.5054 105.019 26.3504 104.785 26.1668C104.434 26.3023 105.092 26.3953 104.911 26.5286C104.462 26.7013 103.516 26.7895 103.288 26.6757L103.551 26.5765C102.946 26.6702 102.664 26.2294 102.065 26.2625C101.528 26.4716 101.134 26.2795 101.246 26.7226C100.471 26.8185 100.943 26.4235 100.69 26.3816C100.324 26.5885 99.242 26.4659 99.0958 26.2458C98.6709 26.888 97.0046 26.0256 96.8532 26.5679L96.2096 26.2633C96.1898 26.4051 96.0632 26.7351 95.5459 26.7924C95.0535 26.6374 95.1759 26.3879 95.0248 26.2384L94.7031 26.7829C91.897 26.2432 88.1967 26.6502 85.1186 26.2304C83.745 26.3694 82.0203 26.6441 80.4222 26.5888L80.5974 26.516L79.005 26.4002L80.1643 26.6274C79.8181 26.6925 79.5453 26.8024 79.2147 26.8062C77.4669 26.6213 75.1241 26.3891 72.9819 26.7139C71.6051 27.3645 72.0419 26.1901 70.7227 26.6661C70.8388 26.6076 70.8722 26.515 70.9783 26.4572C69.5421 26.7011 68.7692 26.8269 67.3338 27.2211C67.4802 26.609 66.3941 27.2588 66.5207 26.9288L66.4083 27.1775C66.0868 27.0302 65.3323 26.9944 65.4298 26.8169L64.8016 27.1429L64.743 26.8865C63.9009 26.887 62.0957 27.1574 61.6379 26.649C59.5649 27.0992 56.2747 27.0756 53.6479 27.0744C53.2832 27.3012 52.5237 27.3358 51.9253 27.379L51.2732 27.0951C50.6698 27.2087 50.0374 27.6153 49.463 27.4361C49.4601 27.3962 49.4886 27.3741 49.5271 27.3512C48.9116 27.4357 48.3201 27.2978 47.7504 27.5996C47.0792 27.6078 46.408 27.4757 46.6073 27.1806C46.5634 27.6851 45.1724 27.1637 45.1724 27.1637C45.1724 27.1637 36.4809 27.1784 26.7546 27.7189C17.0269 28.2394 6.26425 29.2856 2.13295 30.9468C1.86168 31.217 1.09446 31.4227 1.41525 31.7003C0.813296 31.8339 0.512367 31.4145 0.41065 31.6725C1.25072 31.7824 0.197325 32.3295 1.02823 32.5904L0.513879 32.6877C0.4171 32.8751 1.20768 32.4372 1.10172 32.7756L1.21757 32.2961C1.64151 32.3357 1.8781 32.4189 2.0392 32.5677C2.42523 32.3594 2.62932 31.7131 3.58701 31.9248L3.32983 31.9734C4.09712 31.9081 3.82018 32.2389 3.98552 32.3072L3.81596 32.3194L4.47083 32.5028C3.97059 32.3784 3.18928 32.8057 3.60676 32.7556C4.52447 32.8298 3.35875 32.6531 4.04337 32.5536C4.47082 32.5028 4.35913 32.7615 4.34924 32.9026L5.10729 32.8479C5.09174 33.0496 4.59645 32.8547 4.92218 33.0618L5.87385 32.7727C6.08293 33.309 6.90245 32.4379 7.37868 32.9249C6.69909 33.0942 7.45218 33.1101 7.35468 33.2876L9.04886 33.1454C9.2142 33.2137 8.61153 33.3374 8.86941 33.2987C9.20009 33.4353 9.3887 33.131 9.55898 33.1287C9.71936 33.2676 10.8257 33.0374 10.8024 33.4101C11.9681 33.5868 11.2581 32.9161 12.3418 33.0686C12.4973 33.2779 11.4969 33.1695 11.9829 33.3751L13.085 33.2256C12.9932 33.3425 12.8915 33.6004 12.4683 33.5708C15.4842 33.6843 17.1749 34.7455 19.9005 34.3085C20.2989 34.5505 19.6335 34.4982 19.3664 34.6879C21.3283 34.2257 22.1937 35.1058 23.8794 34.9843L23.8935 34.7627C26.2891 35.312 29.0974 34.7687 31.7749 34.9167L31.4542 34.7794C31.8089 34.5533 32.3967 34.5009 32.839 34.3788C32.9068 34.4842 32.5422 34.8514 33.3159 34.7355C33.1506 34.6672 32.8249 34.6004 32.9175 34.4935C35.2368 34.958 40.0529 34.5909 43.8319 34.7196C48.9088 34.3538 54.4391 34.5769 59.4312 34.2874C58.6725 34.332 58.9735 33.7789 59.5528 33.8876C61.1485 34.7451 62.2729 33.6515 63.8884 34.2269C66.7893 33.8574 69.4081 34.5811 72.1001 33.8156L72.1586 34.0721C72.5677 34.183 72.6752 34.0048 73.0933 33.9646L73.0984 34.0344C74.0866 34.1136 75.2991 33.8257 75.8784 33.9344L75.9074 33.6415C76.5058 33.5984 76.2239 33.8594 76.8329 33.6851L76.8131 33.8269L77.5239 33.5351C77.4601 34.041 79.2089 33.544 79.6857 33.7603C80.4601 33.6544 81.9169 33.419 83.0855 33.4953C83.3043 33.7502 84.7464 33.7265 85.657 33.8413C87.4345 33.7433 89.983 33.6299 92.2444 33.7076L92.2007 33.3798L92.7892 33.3374C92.7857 33.4279 92.8584 33.4628 92.7708 33.4992C93.2284 33.8672 94.1351 33.3708 94.6126 33.5971C94.311 33.308 94.1986 33.5567 93.8573 33.5512C93.3749 33.3955 93.8235 33.0824 94.4862 33.2352L94.4713 33.3065L94.9201 33.1338C94.9687 33.3909 95.3777 33.5018 95.4363 33.7583C97.3856 33.678 98.7076 33.2418 100.72 33.3474C100.51 33.6333 102.168 33.2632 101.763 33.7636C102.972 33.5662 101.564 33.3669 102.11 33.0067C102.451 33.0122 102.802 32.8766 102.865 33.0526C102.703 33.1745 103.137 33.3538 102.87 33.4031L103.679 33.3648C103.752 33.3997 103.577 33.4725 103.489 33.5089C105.133 33.22 106.4 33.8305 107.872 33.5339C107.98 33.3557 107.287 33.4858 107.395 33.3076C108.882 32.9398 108.701 33.6246 110.087 33.3744L109.804 33.6253C110.253 33.4526 110.448 33.2381 111.184 33.4357C111.315 33.727 110.559 33.6712 110.208 33.8068C110.71 33.8207 111.988 33.7387 111.598 33.476C112.203 33.3823 112.422 33.6472 112.749 33.7239C112.764 33.6527 112.183 33.5241 112.534 33.3885C113.358 33.5597 114.632 33.5582 115.636 33.5861C115.631 33.6566 115.7 33.772 115.611 33.7984C116.416 33.4196 116.333 34.0772 117.44 33.9974C120.411 33.8937 124.257 33.5664 127.204 33.695C127.848 33.3177 128.79 33.3099 129.737 33.2317L129.834 33.746L130.635 33.5881C130.957 33.7453 130.02 33.6825 130.595 33.8717L130.894 33.5594C130.957 33.7453 132.957 33.6714 131.611 34.0491C132.653 34.0442 133.705 34.0386 134.766 34.0023C135.467 33.9919 135.165 33.5624 135.944 33.6667C136.106 33.8155 135.672 33.7766 135.735 33.9625C138.121 34.2317 138.392 32.8487 140.608 32.8494L140.424 32.9429C140.782 32.7667 141.5 32.7049 141.504 32.6244C141.16 32.158 141.146 32.951 140.428 32.722C140.436 32.2803 141.237 32.393 141.154 32.0782C141.682 32.1705 141.951 31.8704 142.396 31.7881C143.201 31.9608 144.253 31.544 144.901 31.7681C145.247 31.5527 145.57 31.0381 146.358 30.8409C147.012 31.0144 146.304 31.1958 147.119 31.0969L147.179 30.8219C147.82 30.6754 147.748 30.7809 147.755 30.8906C148.444 30.7107 148.22 30.3859 149.114 30.2614L148.721 30.6506C149.32 30.3368 149.6 30.3266 150.467 29.9834C150.497 30.1216 150.146 30.2572 149.88 30.3165C150.483 30.4736 150.628 29.8415 150.893 29.7722C150.778 29.7003 150.17 29.8945 150.366 29.5496C150.808 29.4175 151.13 28.8829 151.54 29.0038C151.42 29.1528 151.3 29.2918 151.179 29.4308C151.981 28.8617 151.515 28.9354 152.55 28.55C152.503 28.5935 152.556 28.6398 152.56 28.6897C152.633 28.5941 152.748 28.5257 152.843 28.4487C153.145 28.7477 153.467 29.0354 153.743 29.2461C154.046 29.2844 154.347 29.2827 154.637 29.2719L154.818 29.5596C154.976 29.5282 155.59 29.6945 155.278 29.4061C155.403 29.4673 155.527 29.5185 155.651 29.5698C155.832 29.1557 156.218 29.6492 157.019 29.6316C157.177 29.7405 157.104 29.836 156.935 29.8582C157.282 29.9435 157.134 30.1146 157.257 30.2862C157.274 30.1145 158.671 29.7332 157.794 29.3953C157.76 29.2072 158.329 29.1663 158.658 29.2829L158.819 29.7124L159.273 29.3288C159.804 29.3207 160.013 29.5863 160.43 29.6665C159.999 29.6575 159.398 30.3725 160.536 30.4409C159.946 30.4534 159.619 30.6574 159.292 30.711C159.535 30.7436 159.649 30.7956 159.258 30.934C160.187 30.8871 159.594 30.7194 160.477 30.7259C160.402 31.0822 160.642 31.2153 161.376 31.383L160.833 31.0812C160.833 31.0812 160.898 31.0064 160.947 30.9928C160.742 30.9374 160.678 30.8818 160.648 30.7337C160.819 30.7514 161.663 30.3497 161.789 30.5712C160.973 29.9583 163.308 30.2311 162.78 29.8581C162.883 29.7605 163.476 29.7779 163.53 29.9645C162.805 30.1973 164.043 30.4088 163.91 30.649C164.184 30.559 163.367 30.3472 163.729 30.2309C164.15 30.2306 164.449 30.4798 164.679 30.6036L164.502 30.6565L165.148 30.8605C165.266 30.6916 164.532 30.5139 165.14 30.4601C165.296 30.5491 165.903 30.4853 165.873 30.6278C165.569 30.8603 165.764 31.1971 165.245 31.2245C165.676 31.2236 167.032 31.2662 166.504 30.8932L167.009 30.937C166.696 30.7691 165.819 30.4312 166.843 30.4477L166.828 30.5189L167.553 30.2862L167.849 30.4955C167.843 30.4057 167.967 30.3265 168.229 30.3478C168.288 30.4639 168.532 30.5164 168.512 30.6582C169.276 30.6834 169.223 30.4968 169.336 30.3984C169.767 30.3974 169.924 30.4863 169.707 30.6824C170.285 30.7711 171.309 30.7876 171.695 31.0004C172.489 30.883 171.538 30.9114 172.014 30.6966C172.655 31.3724 174.58 31.1033 175.863 31.1011C175.563 30.5512 176.167 31.009 176.45 30.6176C176.422 30.7901 177.577 31.0879 176.539 31.1626L177.22 31.1437C177.665 31.4725 176.078 31.2961 176.753 31.7588C177.517 31.784 178.057 31.2137 178.948 31.4703C178.624 31.8446 179.653 31.3794 179.403 31.7985C179.211 31.9226 178.957 31.8707 178.707 31.8887L178.864 31.9776C180.534 32.1982 179.375 31.5499 180.272 31.3348L180.307 31.4125ZM156.098 25.6174C156.048 26.0421 156.12 26.3377 155.975 26.689C155.873 26.6663 155.761 26.6443 155.671 26.6408C155.652 26.3815 155.641 26.2319 155.548 26.0581C155.746 25.743 155.98 25.3752 156.51 25.0664C156.589 25.191 156.462 25.521 156.099 25.6274L156.098 25.6174ZM152.677 21.2721C152.71 21.3198 152.744 21.3675 152.777 21.4152C152.709 21.2998 152.67 21.1723 152.611 21.0562C152.716 20.9785 152.807 21.1224 152.946 21.1123C152.865 20.5367 152.812 19.9489 152.82 19.3568L152.645 19.7203C152.608 19.342 152.339 19.0907 152.518 18.6467C152.882 19.3825 152.545 18.0432 152.859 17.9504L152.927 18.3365C152.939 17.8143 152.939 17.8143 152.68 17.833C152.659 17.1326 153.212 17.4237 153.024 16.7655C152.984 16.9087 152.975 17.0597 152.945 17.2023C152.783 17.3142 152.607 16.9659 152.675 16.6602C152.731 16.5961 152.878 16.405 152.865 16.6466C152.856 16.1058 153.189 15.2998 153.16 15.0412C153.321 14.7689 153.462 14.9192 153.485 15.088C153.599 13.8867 153.679 14.5927 153.854 13.3971L153.979 13.4683L153.968 13.028C154.128 12.8861 154.298 12.7435 154.479 12.6101L154.227 12.7286C154.361 12.368 154.351 12.088 154.635 11.7166L154.744 11.9695C155.12 10.9297 155.627 11.0035 155.894 9.98166C155.962 9.95668 155.952 10.0978 155.93 10.1997C156.032 9.4002 156.434 10.1032 156.451 9.36004C156.477 9.44837 156.57 9.4818 156.595 9.55018C156.608 9.45897 156.621 9.3578 156.644 9.2559L156.795 9.54578C156.752 9.3684 156.708 9.18105 156.675 8.99298C156.76 9.05705 156.834 9.12183 156.9 9.19732L156.884 8.97788C157.08 9.19435 157.168 9.15796 157.253 9.08167C157.338 9.01536 157.441 8.90771 157.556 9.11996L157.48 8.62413C157.67 7.91866 158.04 7.6313 158.319 7.60121L158.389 7.59617C158.389 7.59617 158.429 7.5933 158.443 7.65243L158.671 8.45809C158.755 8.78292 158.831 8.99804 159.008 9.09554L158.772 9.4334C158.889 9.38488 159.017 9.35558 159.157 9.3555C159.016 9.75671 158.907 9.50385 158.803 9.72193C159.043 9.85501 159.232 9.42029 159.4 9.80919C159.266 10.1698 159.185 9.87487 159.074 9.8728C159.29 10.0878 159.517 10.7332 159.328 11.0276C159.368 11.0247 159.42 11.051 159.438 11.0296C159.45 11.0588 159.463 11.098 159.466 11.1379C159.47 11.1878 159.477 11.2875 159.483 11.3673C159.474 11.5283 159.486 11.6979 159.449 11.871C159.383 12.2166 159.297 12.5537 159.261 12.8772C159.137 12.8359 159.136 12.6756 159.134 12.5153C159.08 12.7398 158.961 13.0291 159.026 13.245C158.959 13.1495 158.912 13.0527 158.835 12.958C158.657 13.4119 158.668 14.3937 158.328 14.4081C158.457 14.3888 158.654 14.4749 158.492 14.8776C158.244 14.9155 158.185 15.2005 158.14 15.5546C158.075 15.9002 157.975 16.3185 157.723 16.5873C157.664 16.4612 157.861 15.9958 157.79 16.1213C157.538 16.38 157.605 16.7562 157.58 17.0989L157.468 16.9365C157.263 17.4325 157.081 17.967 156.846 18.4652C156.341 18.4113 156.018 19.7781 155.806 19.4825C155.417 19.9216 156.279 19.2279 155.831 19.8216C155.562 19.851 155.471 20.399 155.275 20.1825L155.3 20.1005C155.199 20.2381 155.099 20.3757 154.988 20.504C154.998 20.3629 154.987 20.2133 154.987 20.073C154.763 20.45 154.711 20.8447 154.865 21.0242C154.457 21.2139 154.134 21.7385 153.807 21.6518L153.877 21.5064C153.521 21.8529 153.123 22.042 152.731 22.1605C152.612 21.9083 152.552 21.6319 152.658 21.2835L152.677 21.2721Z" fill="white"/>
<path d="M164.703 12.1542L164.569 11.4119L164.503 11.8878C164.563 11.8835 164.636 11.9184 164.703 12.1542Z" fill="white"/>
<path d="M152.582 28.7181C152.582 28.7181 152.498 28.8044 152.471 28.8564C152.568 28.7994 152.584 28.7481 152.582 28.7181Z" fill="white"/>
<path d="M147.97 31.0857C148.299 30.9216 147.959 30.9361 147.778 30.9191C147.782 30.979 147.817 31.0466 147.97 31.0857Z" fill="white"/>
<path d="M157.667 2.03366C157.74 1.93814 157.784 1.84478 157.769 1.77568C157.669 1.92322 157.654 1.99448 157.667 2.03366Z" fill="white"/>
<path d="M156.958 29.8967C156.866 29.8732 156.744 29.8519 156.563 29.8449C156.728 29.9032 156.859 29.9139 156.958 29.8967Z" fill="white"/>
<path d="M163.236 6.26439C163.286 6.41112 163.346 6.53719 163.432 6.63119C163.355 6.39612 163.289 6.31066 163.236 6.26439Z" fill="white"/>
<path d="M156.158 29.7939C156.004 29.7348 155.849 29.6758 155.684 29.6075C155.675 29.6282 155.666 29.6389 155.657 29.6595C155.821 29.7079 155.985 29.7562 156.158 29.7939Z" fill="white"/>
<path d="M159.315 30.7495C159.143 30.7218 158.901 30.6991 158.747 30.6501C158.965 30.7547 159.146 30.7717 159.315 30.7495Z" fill="white"/>
<path d="M150.384 13.3765C150.384 13.3765 150.381 13.3465 150.39 13.3259C150.383 12.9554 150.359 13.1777 150.384 13.3765Z" fill="white"/>
<path d="M153.828 29.3201L153.765 29.2746L153.582 29.2476L153.828 29.3201Z" fill="white"/>
<path d="M161.188 30.9955C161.108 31.0013 161.038 31.0063 160.97 31.0313C161.031 31.0469 161.112 31.0611 161.203 31.0746C161.181 31.0361 161.179 31.0062 161.177 30.9863L161.188 30.9955Z" fill="white"/>
<path d="M149.063 20.2391C149.183 20.3708 149.266 20.405 149.316 20.4114C149.305 20.2518 149.238 20.1563 149.063 20.2391Z" fill="white"/>
</svg>
