<svg width="33" height="33" viewBox="0 0 33 33" fill="none" xmlns="http://www.w3.org/2000/svg">
<g clip-path="url(#clip0_143_319)">
<path d="M16.5 0C7.38375 0 0 7.38375 0 16.5C0 19.5938 0.86625 22.4812 2.35125 24.9562L0.15125 33L8.36 30.8413C10.7662 32.2025 13.53 33 16.5 33C25.6163 33 33 25.6163 33 16.5C33 7.38375 25.6163 0 16.5 0ZM10.8488 8.8C11.11 8.8 11.3988 8.8 11.6325 8.8C11.9213 8.8 12.2513 8.8275 12.5538 9.50125C12.9113 10.3125 13.7088 12.3337 13.8188 12.54C13.9288 12.7463 13.9975 12.98 13.8462 13.255C13.7087 13.53 13.64 13.695 13.4475 13.9425C13.2413 14.1763 13.0212 14.4788 12.8287 14.6575C12.6225 14.8637 12.4162 15.0838 12.65 15.4963C12.8837 15.9088 13.7088 17.2425 14.9188 18.3288C16.4862 19.7175 17.7925 20.1575 18.205 20.35C18.6175 20.5562 18.8512 20.5287 19.085 20.2537C19.3325 19.9925 20.1025 19.0712 20.3775 18.6587C20.6388 18.2463 20.9137 18.315 21.285 18.4525C21.6562 18.59 23.6775 19.58 24.0763 19.7863C24.475 19.9925 24.75 20.0887 24.86 20.2537C24.97 20.4187 24.97 21.2437 24.6262 22.1925C24.2825 23.1412 22.6187 24.0625 21.8762 24.1312C21.12 24.2 20.4188 24.475 16.9675 23.1137C12.815 21.4775 10.1888 17.215 9.9825 16.94C9.77625 16.6787 8.31875 14.7262 8.31875 12.7188C8.31875 10.7113 9.3775 9.72125 9.74875 9.30875C10.12 8.89625 10.56 8.8 10.835 8.8H10.8488Z" fill="white"/>
</g>
<defs>
<clipPath id="clip0_143_319">
<rect width="33" height="33" fill="white"/>
</clipPath>
</defs>
</svg>
