<svg width="203" height="82" viewBox="0 0 203 82" fill="none" xmlns="http://www.w3.org/2000/svg">
<path d="M174.427 15.5683C174.376 15.5683 174.333 15.5931 174.304 15.6344C174.398 15.6344 174.427 15.6013 174.427 15.5683Z" fill="white"/>
<path d="M198.741 44.3883L198.82 43.9174C198.741 44.2148 198.727 44.3387 198.741 44.3883Z" fill="white"/>
<path d="M151.388 7.66919C151.388 7.66919 151.424 7.66919 151.446 7.66092C151.086 7.56177 150.588 7.4461 149.788 7.24779C150.322 7.38826 150.855 7.5122 151.388 7.66919Z" fill="white"/>
<path d="M122.93 74.6543L123.464 74.6048C123.219 74.6213 123.067 74.6295 122.93 74.6543Z" fill="white"/>
<path d="M172.906 66.2595C172.769 66.3504 172.524 66.4743 172.287 66.5652C172.596 66.4661 172.841 66.3587 172.906 66.2595Z" fill="white"/>
<path d="M139.137 2.81902L139.808 3.08343C139.808 3.01733 139.57 2.90165 139.137 2.81902Z" fill="white"/>
<path d="M114.506 1.13345C114.506 1.13345 114.528 1.15823 114.571 1.17476C114.607 1.15823 114.571 1.14997 114.506 1.13345Z" fill="white"/>
<path d="M124.091 2.26543C124.3 2.26543 124.537 2.25716 124.782 2.2489C124.487 2.23237 124.119 2.19932 124.091 2.26543Z" fill="white"/>
<path d="M125.114 2.24064C125.006 2.24064 124.898 2.2489 124.782 2.25716C124.963 2.26543 125.114 2.27369 125.114 2.24064Z" fill="white"/>
<path d="M173.108 8.53676C173.814 8.56981 174.42 8.47892 175.061 8.40456L173.108 8.53676Z" fill="white"/>
<path d="M45.4551 72.7374L45.6136 72.6961C45.4695 72.6961 45.4407 72.7126 45.4551 72.7374Z" fill="white"/>
<path d="M174.031 7.20648L174.528 7.25606C174.348 7.22301 174.182 7.20648 174.031 7.20648Z" fill="white"/>
<path d="M152.102 5.02515C152.829 5.04993 154.227 5.59527 154.249 5.44654C153.507 5.28129 152.476 4.90947 152.102 5.02515Z" fill="white"/>
<path d="M28.2752 74.9683L27.8068 74.8361C28.0302 74.9022 28.1671 74.9435 28.2752 74.9683Z" fill="white"/>
<path d="M174.031 7.20648L173.454 7.14864C173.504 7.18169 173.569 7.20648 173.627 7.23127C173.757 7.21474 173.894 7.20648 174.031 7.20648Z" fill="white"/>
<path d="M21.9048 27.7061C21.9048 27.7061 21.8904 27.7061 21.8832 27.7143C21.8327 27.7474 21.7967 27.7722 21.7463 27.8052L21.912 27.7061H21.9048Z" fill="white"/>
<path d="M25.9115 26.3427C25.6377 26.4667 25.3782 26.5824 25.0828 26.7146C25.5368 26.5576 25.7602 26.4419 25.9115 26.3427Z" fill="white"/>
<path d="M175.061 8.40456L176.178 8.3302C175.774 8.3302 175.414 8.36325 175.061 8.40456Z" fill="white"/>
<path d="M70.7998 14.6842C70.6556 14.7172 70.5187 14.7503 70.3818 14.775C70.562 14.742 70.6989 14.7172 70.7998 14.6842Z" fill="white"/>
<path d="M175.976 65.1854C176.077 65.1523 176.214 65.111 176.329 65.0779C176.358 65.0284 176.329 65.0118 175.976 65.1854Z" fill="white"/>
<path d="M147.151 76.3978C146.61 76.4391 145.861 76.6622 145.465 76.8439C146.005 76.7613 146.502 76.6539 147.151 76.3978Z" fill="white"/>
<path d="M141.782 77.2736C141.847 77.2736 141.905 77.2736 141.984 77.2653C141.912 77.2653 141.847 77.2653 141.782 77.2736Z" fill="white"/>
<path d="M175.983 69.7711V69.7546C175.976 69.7629 175.969 69.7711 175.969 69.7794H175.991L175.983 69.7711Z" fill="white"/>
<path d="M169.318 72.0681C169.195 72.0681 169.022 72.1012 168.842 72.1425C168.964 72.1425 169.123 72.1177 169.318 72.0681Z" fill="white"/>
<path d="M124.812 79.5789C124.797 79.5789 124.79 79.5789 124.775 79.5789C124.79 79.5789 124.797 79.5789 124.805 79.5789H124.812Z" fill="white"/>
<path d="M60.0984 80.653C66.6273 81.0579 74.9795 81.1901 81.4436 81.5123C82.856 81.2397 84.8954 81.2975 86.9564 81.2562L87.1654 81.6858L88.8805 81.5867C89.5795 81.7272 87.5617 81.6445 88.794 81.8263L89.4426 81.5702C89.5723 81.7189 93.8457 81.7106 90.9703 81.9833C93.1899 82.0163 95.4166 81.9916 97.6362 81.9833C99.1135 81.975 98.4937 81.6197 100.122 81.6941C100.454 81.8098 99.5387 81.785 99.6756 81.9337C104.576 82.1568 105.311 80.9918 109.873 81.0083L109.491 81.0827C110.262 80.9505 111.739 80.8761 111.753 80.8183C111.155 80.4217 110.946 81.0992 109.548 80.9009C109.656 80.5456 111.271 80.6282 111.17 80.3638C112.236 80.4382 112.856 80.2068 113.786 80.1325C115.378 80.2729 117.641 79.959 118.844 80.1738C119.616 80.0003 120.459 79.5871 122.123 79.4467C123.334 79.6367 121.857 79.7359 123.485 79.7111L123.73 79.4797C125.063 79.3971 124.855 79.4797 124.818 79.5706C126.245 79.4549 125.986 79.1905 127.773 79.1575L126.793 79.4467C128.105 79.2566 128.645 79.2236 130.483 79.0666C130.454 79.1905 129.712 79.2566 129.171 79.2732C130.194 79.4797 130.872 78.9674 131.412 78.9509C131.254 78.8766 129.978 78.9592 130.584 78.6948C131.499 78.6452 132.5 78.2155 133.171 78.3808L132.191 78.6948C134.079 78.3229 133.185 78.323 135.369 78.1577C135.253 78.1825 135.311 78.2321 135.268 78.2816C136.622 77.8602 138.438 77.8685 140.478 77.6372L140.096 77.7446C140.91 77.5628 141.343 77.3149 141.782 77.2736C140.615 77.3149 140.925 77.2075 140.795 77.0257C142.359 77.1497 143.094 76.3234 145.609 76.1581C145.58 76.2821 144.996 76.5134 144.297 76.4887C143.483 76.9514 143.404 77.2653 141.898 77.6372C142.834 77.4306 143.951 77.224 143.728 77.4058L143.987 77.0422C144.564 76.9679 145.018 76.9018 145.45 76.8439C145.674 76.6043 144.254 76.6787 145.566 76.3482C147.05 76.0177 146.401 76.563 146.618 76.3812C148.664 75.9433 147.432 75.902 149.428 75.6954C149.234 75.7533 148.852 75.8689 148.679 75.8689C150.113 75.7863 152.159 75.2245 152.628 75.5467C152.426 75.6706 152.404 75.7946 151.864 75.8524L151.878 75.7863C150.351 76.3399 153.175 75.4806 152.729 75.9185C152.592 75.7368 154.595 75.4145 155.503 75.2823L155.186 75.1005C158.076 73.8116 155.092 75.6128 158.04 74.9187C159.892 74.3734 157.319 75.0014 158.443 74.5965C159.719 74.3817 160.223 74.4643 162.061 73.9438C162.594 73.919 163.668 73.7785 163.805 74.0181C164.915 73.6546 167.249 73.2332 167.833 72.8035C165.866 73.101 165.981 73.6298 163.661 73.8446L164.244 73.4315C165.801 73.0514 167.761 72.3821 168.842 72.1425C168.611 72.159 168.503 72.1177 168.626 72.0268C170.802 71.2749 171.364 70.804 173.504 70.1677C173.843 70.3082 172.596 70.68 171.696 71.0105C173.108 70.7296 173.137 70.5643 175.263 69.8538C175.429 70.0107 173.836 70.366 173.649 70.6552L175.976 69.7216C175.976 69.7216 175.983 69.7463 175.991 69.7629C176.228 69.3084 177.771 69.0853 179.161 68.383C180.826 67.6311 181.749 67.0775 182.448 66.5322C183.154 66.0034 183.665 65.5572 184.494 64.9127C185.006 64.7309 185.186 64.7309 185.013 64.921C184.163 65.2267 184.35 65.2597 184.112 65.4994C185.179 64.8549 186.62 64.4583 186.072 64.9292C187.744 63.8055 185.388 65.1441 186.382 64.4169C187.153 63.9294 187.932 63.4585 188.703 62.9545C188.35 62.9792 187.528 63.475 188.652 62.5661C189.603 61.806 190.122 61.5498 191.355 60.5252C191.218 60.7483 191.888 60.4261 190.944 61.178C191.571 60.7401 192.536 59.9964 192.774 59.5172C191.391 60.5913 194.814 57.4185 193.689 58.1043C194.143 57.7407 194.569 57.3359 195.015 56.9475C194.734 57.2367 194.778 57.3607 194.338 57.7738C194.842 57.6003 195.304 56.6666 195.693 56.1708C196.125 55.7081 197.206 54.4687 197.336 54.3944C197.617 53.8573 198.496 52.7666 198.712 52.5849C199.13 51.7916 198.619 52.4196 198.691 52.1469L199.462 50.8745L200.139 49.5194C200.326 49.4451 200.766 49.4037 200.607 49.8582C201.011 48.7262 200.471 49.2881 201.119 47.6355C201.054 48.1726 201.307 47.6355 201.552 47.1646C201.782 46.6771 201.948 46.2061 201.89 47.0158C202.006 46.7762 202.142 46.4127 202.287 45.9665C202.423 45.5203 202.611 45.0163 202.69 44.4462C202.791 43.8843 202.885 43.2977 202.957 42.7523C202.986 42.1905 202.993 41.6617 203 41.2237C202.841 40.1331 202.82 43.1076 202.56 42.9506C202.64 42.364 202.611 41.8186 202.618 41.3477C202.618 40.8684 202.618 40.4553 202.546 40.0752C202.431 39.3233 202.33 38.7367 202.193 38.2079C201.84 37.1585 201.616 36.2827 201.083 34.688L201.299 35.539C200.917 34.5723 200.766 34.1427 200.571 33.8535C200.398 33.556 200.262 33.3577 199.93 32.8785C200.413 33.2503 199.548 30.3253 197.458 27.8878C197.213 27.7639 198.345 29.5073 197.876 29.2429L197.235 28.4167C197.019 28.144 196.774 27.9044 196.55 27.6482C196.464 27.516 196.644 27.6482 196.846 27.83C195.592 26.4749 194.727 25.0455 194.158 24.9298C193.805 24.3762 193.401 23.8887 193.019 23.3599L193.466 23.9879C193.199 23.9383 191.657 22.6328 191.283 22.4593C189.603 21.3191 189.049 20.8398 188.234 20.0301C188.465 20.3358 189.056 21.0794 187.737 20.2036C187.968 19.7987 185.042 18.2536 185.172 18.0884C184.624 17.7744 183.709 17.0721 183.572 17.2125L183.781 16.9977C183.492 17.2786 181.496 16.1549 179.904 15.4443C180.451 15.1138 178.181 14.6098 177.641 13.8331C177.223 14.0397 174.78 12.6929 174.391 12.8912C173.159 12.3871 173.389 12.098 173.108 11.8501L172.488 11.7509C172.2 11.5444 171.479 11.1973 170.658 10.8255C169.836 10.4702 168.914 10.0819 168.229 9.7679L166.839 9.63569L166.399 9.32171C166.168 9.32998 165.073 8.99947 165.714 9.35476L165.015 9.09862C164.864 9.43739 163.999 8.87553 162.551 8.56155C162.241 8.3963 162.349 8.33846 162.666 8.3963C161.96 8.16494 162.313 8.07406 161.953 7.83444C162.428 8.07406 159.258 7.7105 161.124 8.44587C161.218 8.62765 160.086 8.40456 159.409 8.13189L159.056 7.68571L158.148 7.7766C157.045 7.52046 156.627 7.18995 155.748 6.90903C156.656 7.14038 157.896 6.84292 155.546 6.2067C156.786 6.50416 157.434 6.48763 158.083 6.60331C157.6 6.45458 157.362 6.35543 158.148 6.42979C156.289 6.02492 157.492 6.46284 155.669 6.00014C155.827 5.74399 155.345 5.48785 153.766 4.99209L154.919 5.50438C154.854 5.52917 154.768 5.52917 154.674 5.52917C155.121 5.66963 155.236 5.76052 155.308 5.89272C154.948 5.78531 153.125 5.71921 152.858 5.46306C154.602 6.37195 149.594 5.02515 150.718 5.59527C150.495 5.63658 149.219 5.35565 149.111 5.18214C150.675 5.31434 148.023 4.58723 148.304 4.4385C147.72 4.38892 149.471 4.93426 148.679 4.86816C147.771 4.66985 147.129 4.36413 146.632 4.16583L147.021 4.19062L145.63 3.76923C145.378 3.86838 146.956 4.29803 145.645 4.10799C145.313 3.97579 144.002 3.78575 144.059 3.67834C144.708 3.59571 144.297 3.24042 145.414 3.42219C144.492 3.23215 141.544 2.74466 142.69 3.23215L141.588 3.01733C142.265 3.2652 144.16 3.85185 141.948 3.48003L141.977 3.42219L140.413 3.36436L139.764 3.09995C139.772 3.17432 139.527 3.20737 138.957 3.10821C138.82 2.99254 138.287 2.87686 138.345 2.76118C136.687 2.50504 136.803 2.67856 136.579 2.7364C135.65 2.62898 135.311 2.5133 135.765 2.40589C134.497 2.1828 132.277 1.9184 131.427 1.67052C129.712 1.60442 131.773 1.77793 130.757 1.86056C129.33 1.14171 125.136 1.06734 122.347 0.943405C123.082 1.45569 121.583 0.935142 121.05 1.33175C121.662 1.22433 118.419 0.827728 120.869 0.83599L119.378 0.80294C118.369 0.497222 121.849 0.753364 120.329 0.323707C118.65 0.232818 117.54 0.687263 115.573 0.455909C116.243 0.158455 114.052 0.513748 114.549 0.17498C114.96 0.0758283 115.508 0.125404 116.07 0.117141L115.724 0.0427777C112.049 -0.155525 114.65 0.389808 112.726 0.571586C110.492 0.579849 110.968 0.290657 110.838 0.141929C110.492 0.0675656 109.361 0.141929 108.777 0.224556C110.146 0.00972722 111.299 0.422859 110.672 0.621162C109.692 0.257606 107.358 0.621162 106.752 0.761627C109.945 1.14171 108.965 0.736839 111.955 1.19128C112.366 1.08387 112.301 0.753364 114.095 0.910354C112.964 1.05908 114.168 1.09213 114.485 1.15823C114.146 0.95993 115.731 1.12518 116.279 1.05908C116.776 1.2326 115.191 1.46395 117.007 1.59615L117.36 1.15823C118.066 1.25738 117.05 1.46395 118.563 1.4309C117.742 1.62094 118.794 1.79446 116.747 1.79446C119.169 2.26543 120.495 1.76967 122.397 1.72835C122.203 1.74488 122.174 1.80272 121.986 1.81098C122.397 1.72835 123.132 1.78619 123.694 1.81098C124.941 2.00928 122.693 1.93492 123.01 2.08365L125.035 2.22411C125.078 2.24064 125.085 2.2489 125.085 2.25716C125.618 2.23238 126.13 2.25716 126.31 2.37284C125.698 2.45547 125.453 2.57941 125.042 2.67029C125.755 2.61246 126.469 2.59593 127.182 2.55462C126.937 2.67856 128.912 2.97601 127.398 2.9347C128.443 3.01733 129.488 3.09169 130.533 3.20737L130.771 3.53787C131.52 3.57092 131.549 3.51308 130.656 3.37262C131.715 3.54613 135.448 3.45525 134.821 3.97579C137.3 4.06668 138.165 4.32282 141.141 4.67811C138.835 4.53765 143.692 5.50438 141.271 5.1904C142.654 5.57874 142.993 5.30607 144.11 5.47133C145.126 5.81836 144.621 6.00014 143.483 5.89272C143.93 5.92577 144.369 5.97535 144.816 6.02492L144.78 6.08276L145.947 6.14886C147.129 6.55373 146.156 6.49589 147.396 6.79335L147.713 6.59505L148.527 6.94208C148.232 6.75203 148.974 6.86771 149.882 7.04949L149.853 7.10733L150.963 7.30563C149.846 7.20648 151.95 7.60309 151.417 7.67745C152.347 7.92533 152.368 7.92533 154.069 8.30541L153.81 8.04927C156.044 8.47066 153.853 8.3302 155.626 8.82596L155.561 8.5946C158.047 9.62743 159.935 9.63569 161.758 10.4372C160.67 10.148 160.886 10.4702 160.922 10.4206C162.551 10.8503 165.16 11.7592 166.875 12.1145C167.401 12.6102 167.516 12.759 169.166 13.5191C170.399 13.9571 170.579 14.0232 171.025 14.0066C172.171 14.5685 174.412 15.3617 174.405 15.5931C174.737 15.5352 175.436 16.0888 176.12 16.2458L176.228 16.3945L176.2 16.1549C177.151 16.8324 178.03 17.196 178.909 17.5596C179.796 17.9066 180.675 18.2949 181.604 19.022L181.237 18.8898L182.116 19.2699C182.217 19.4269 181.849 19.2864 181.763 19.3773C183.053 20.121 184.343 20.8729 185.582 21.7074L184.905 21.096C185.698 21.5917 186.346 21.7239 187.175 22.4676C185.561 21.6991 188.393 23.3351 188.515 23.707L187.694 23.2277C188.782 23.9631 188.768 23.9796 188.782 23.7317C190.166 24.7398 189.524 24.7646 190.85 25.5908C190.576 25.3347 190.281 25.1033 189.985 24.872C189.776 24.5745 190.526 24.8968 191.081 25.4173C191.196 25.566 191.549 25.9874 191.102 25.6322C192.191 26.4254 193.567 27.9622 194.035 28.3175C194.489 28.9207 194.23 28.8463 193.942 28.5819C195.952 30.6393 194.821 29.5486 196.68 31.7548L196.572 31.7878C196.803 32.0274 196.99 32.2918 197.206 32.548C197.386 33.0024 197.602 33.4486 197.754 33.903C197.732 33.7213 197.667 33.556 197.617 33.3825C197.898 33.7708 198.028 34.1261 198.222 34.4732C198.309 34.6549 198.402 34.8367 198.503 35.035C198.546 35.1342 198.597 35.2416 198.647 35.3573C198.683 35.4729 198.712 35.6051 198.755 35.7373C198.662 35.6217 198.575 35.4977 198.474 35.3903C198.705 36.0018 198.856 36.4975 198.986 36.9272C199.109 37.3568 199.109 37.7452 199.173 38.1087C199.303 38.8441 199.303 39.5547 199.454 40.8023C199.411 40.9759 199.411 40.5793 199.354 40.3892C199.505 42.7358 199.065 42.0913 198.892 44.4462C198.878 44.2892 198.748 44.5205 198.734 44.4131L198.554 45.479L198.381 45.322C198.417 45.6442 198.388 45.95 198.381 46.2722L197.948 46.7928L197.891 47.2307C197.487 47.6603 197.148 48.247 196.824 48.908C196.435 49.5277 196.053 50.23 195.498 50.7671L195.866 50.734C194.987 52.5683 193.466 54.3035 191.722 55.8321C189.978 57.3937 187.975 58.6827 186.08 60.0873L186.051 59.8312C185.546 60.2526 185.049 60.6905 184.53 61.1119C183.557 61.4589 184.991 60.6244 184.653 60.6657C182.916 61.806 184.055 61.4259 181.965 62.6405C180.804 63.0453 182.296 62.31 182.757 61.9299C180.833 63.1115 177.857 64.6648 176.329 65.1027C176.308 65.1441 176.228 65.2267 176.308 65.2019C175.63 65.5407 174.823 65.8712 173.98 66.1604C173.144 66.4578 172.287 66.7553 171.501 67.0114C171.516 66.8957 171.897 66.747 172.279 66.5983C171.71 66.7718 170.925 66.9536 170.471 67.2262L171.011 66.8296C169.815 67.218 167.509 68.069 167.192 67.9286C167.357 67.9699 167.336 68.1764 166.277 68.4491C165.945 68.35 165.239 68.5896 164.396 68.8788C163.545 69.1597 162.558 69.4819 161.693 69.5976C161.881 69.4654 163.127 69.1349 162.774 69.2175C161.902 69.3415 161.167 69.6968 160.432 69.9694L160.641 69.7711C159.322 70.1429 158.004 70.5065 156.67 70.837C156.029 70.6222 152.887 71.622 153.125 71.308C151.684 71.5641 154.357 71.2419 152.541 71.622C152.037 71.5559 150.905 71.9772 150.949 71.7294L151.136 71.6715L149.868 71.9111L150.639 71.5393C149.551 71.7872 148.772 72.1342 148.736 72.3243C147.677 72.3656 146.207 72.6961 145.71 72.5556L146.092 72.44C143.166 72.977 141.162 72.4895 138.892 73.1836C138.72 73.1753 138.734 73.1092 139.094 73.0679L137.278 73.2745L137.696 73.0431L134.713 73.6711L134.742 73.5471C132.753 73.7289 129.647 74.1173 127.088 74.3982L127.47 74.3073C124.689 74.7452 124.761 74.4313 122.729 74.737C122.801 74.7039 122.866 74.6874 122.945 74.6709L121.1 74.8113L121.496 74.6626C120.149 75.0262 117.583 74.613 118.434 74.77C117.67 74.9353 116.344 75.1501 116.12 75.3154C114.11 75.4558 115.623 75.1914 114.369 75.1666C112.914 75.2245 112.669 75.4476 110.694 75.4393L110.73 75.3154C109.808 75.3897 109.238 75.4806 107.956 75.555L108.338 75.4806C106.248 75.8111 105.714 75.2327 104.079 75.7946C103.199 75.7202 101.528 75.8442 101.607 75.5963C98.9982 75.7946 96.966 75.902 94.3717 75.9929C93.9538 75.5963 93.8168 76.0259 92.2386 75.7946L92.3539 76.0094C88.6787 76.0259 84.4774 75.4145 80.4347 75.3567L80.3266 75.1418L79.5123 75.3401C75.1524 75.0509 69.5171 74.6791 66.0436 74.456C64.8978 74.5056 63.1683 74.6296 61.3667 74.4313L61.5541 74.4147C58.4121 74.299 55.09 74.109 51.703 73.5967C51.9192 73.5306 51.5877 73.4315 51.9769 73.4149C51.1481 73.5554 49.9807 73.2001 49.2601 73.1092L50.096 73.3654C49.1087 73.4645 47.7467 73.0679 47.2783 72.8531L45.729 72.8696C45.6353 72.8366 45.4767 72.7787 45.4623 72.7457L45.1813 72.8118L44.4102 72.4069C44.0283 72.4069 42.0177 72.159 41.3547 72.3078C41.2178 72.1921 39.827 71.8533 40.9223 72.0103L38.1767 71.4484L35.4527 70.8122L36.2887 71.1014C36.3607 71.3245 34.6889 71.1014 33.8673 70.804C35.0059 70.9114 34.0115 70.5396 33.5719 70.2586C32.8152 70.176 34.1772 70.6057 33.7664 70.6222C32.8152 70.5148 30.8407 70.0851 30.3795 69.8455C30.5668 69.8785 30.7542 69.9033 30.9488 69.9199C29.6877 69.6389 29.1976 69.0936 27.9798 68.7383C26.8412 68.5813 26.0989 68.0938 26.2286 68.5317C24.6504 68.0442 25.6954 68.0856 25.1981 67.8625C24.4054 67.8046 22.3084 66.7883 22.0994 66.4991C21.0689 66.7057 18.1575 64.4169 17.7107 64.6731L16.673 63.7725C16.5938 63.8468 16.2406 63.979 15.311 63.4337C14.5399 62.7231 14.8354 62.6901 14.6408 62.4091L13.877 62.3843C11.6646 60.4013 9.21447 57.939 7.57142 54.8653C7.19669 54.0804 6.7499 53.3285 6.49768 52.5022C6.36076 52.0974 6.16619 51.7008 6.0725 51.2876C5.97162 50.8745 5.87073 50.4614 5.76984 50.0482C5.64012 49.6434 5.64012 49.2137 5.57527 48.8088C5.54644 48.3957 5.43835 47.9908 5.46717 47.5777C5.48879 46.768 5.45276 45.9665 5.62571 45.2146C5.66174 44.8758 5.65454 44.5205 5.70498 44.157C5.77704 43.8017 5.84911 43.4299 5.92117 43.058C5.9572 42.868 5.98603 42.678 6.02206 42.4879C6.08692 42.3061 6.14457 42.1161 6.20942 41.9261C6.33193 41.546 6.45444 41.1659 6.58415 40.7776C6.73549 40.3975 6.93726 40.0339 7.11022 39.6621C7.29758 39.2903 7.44171 38.8937 7.69393 38.5632C8.16955 37.8774 8.5731 37.142 9.15681 36.5471L8.95504 36.8693L10.0504 35.6547L11.2539 34.5475C10.6629 35.0681 10.0072 35.5308 9.4811 36.1174C9.89186 35.5143 10.2666 35.0763 10.771 34.5806C11.4196 33.9444 12.2483 33.399 13.0554 32.7545C13.9346 32.1927 14.8066 31.5399 15.7938 30.9946C17.7035 29.8213 19.8438 28.7719 21.8976 27.7309C24.4775 26.0701 23.8433 27.3838 26.4016 26.004C26.1854 26.1279 26.1133 26.2271 25.926 26.3593C28.7725 25.1529 30.3506 24.5415 33.262 23.3517C33.0242 23.9383 35.2077 22.7733 34.9987 23.112L35.2077 22.8394C35.8995 22.765 37.4849 22.3684 37.2903 22.575L38.5659 21.9553L38.7244 22.1288C40.4827 21.6661 44.2805 20.468 45.2894 20.6498C49.5988 19.1708 56.5601 17.5843 62.109 16.5267C62.8584 16.188 64.4798 15.8409 65.7482 15.5765L67.139 15.56C68.4145 15.246 69.7405 14.6594 70.9656 14.6098C70.9656 14.6428 70.9151 14.6676 70.8358 14.7007C72.1402 14.4198 73.4085 14.3206 74.6047 13.891C76.046 13.6596 77.4657 13.5604 77.0477 13.8662C77.1414 13.4282 80.1104 13.4448 80.1104 13.4448C80.1104 13.4448 81.2706 13.2878 83.3316 13.0151C85.3998 12.7507 88.3689 12.3706 91.9936 11.9905C99.2432 11.2221 109.145 10.4124 119.63 9.93315C130.115 9.42087 141.191 9.22256 150.797 9.10688C160.403 8.98295 168.532 8.93337 173.13 8.54503C173.749 8.36325 175.457 8.30541 174.816 8.03274C176.135 8.00795 176.726 8.40456 176.985 8.20626C175.198 7.99143 177.562 7.69397 175.818 7.36347H176.942C177.18 7.223 175.407 7.46262 175.695 7.20648L175.364 7.5783C174.456 7.47915 173.958 7.37999 173.641 7.23953C172.784 7.35521 172.222 7.85097 170.182 7.55351H170.744C169.08 7.50393 169.736 7.26432 169.39 7.18995L169.757 7.20648L168.359 6.9586C169.418 7.12385 171.177 6.87597 170.262 6.86771C168.28 6.68593 170.773 6.98339 169.282 6.97513C168.359 6.9586 168.626 6.76856 168.669 6.64462L167.012 6.59505C167.069 6.42153 168.107 6.64462 167.444 6.43806L165.347 6.56199C164.965 6.09929 163.07 6.71072 162.118 6.25628C163.625 6.19844 161.989 6.09929 162.227 5.95882L158.537 5.89272C158.191 5.81836 159.51 5.77705 158.948 5.78531C158.256 5.64484 157.809 5.86793 157.434 5.85967C157.117 5.71921 154.682 5.81836 154.79 5.5209C152.289 5.28129 153.73 5.88446 151.403 5.67789C151.1 5.48785 153.255 5.66137 152.224 5.4548L149.803 5.49612C150.026 5.41349 150.278 5.20692 151.179 5.24824C144.643 4.93426 141.105 4.00058 135.124 4.32282C134.273 4.11626 135.729 4.16583 136.327 4.0171C131.996 4.3724 130.216 3.65355 126.519 3.78575L126.454 3.96753C121.287 3.57092 115.097 4.19888 109.26 4.36413L109.959 4.4385C109.166 4.66985 107.876 4.769 106.925 4.91773C106.774 4.84337 107.595 4.47981 105.909 4.68638C106.262 4.71943 106.976 4.73595 106.774 4.8351C101.751 4.71943 91.2009 5.79357 82.9929 6.7603C77.4657 7.61135 71.7078 8.51198 65.986 9.56133C60.2713 10.6189 54.5928 11.8088 49.2457 13.1886C50.8743 12.7755 50.2617 13.3704 49.015 13.577C45.5128 13.6761 43.2067 15.1964 39.7117 15.6096C33.5791 17.51 27.8284 18.4602 22.2291 21.2943L22.0562 21.1373C21.1698 21.3934 20.9824 21.6496 20.0888 22.0462V21.9801C19.0151 22.3767 17.8693 23.0129 16.8244 23.5417C15.7938 24.1449 14.8714 24.6406 14.2661 24.9629L14.2877 25.219C13.0843 25.9874 13.5815 25.4421 12.3997 26.3345L12.3853 26.2105L11.0737 27.4086C11.0449 27.1855 10.1945 27.7474 9.27212 28.5736C8.32088 29.3338 7.35523 30.3997 6.8652 30.7632C6.51209 31.1103 6.12295 31.5978 5.69777 32.1514C5.2726 32.705 4.77536 33.2833 4.34298 34.0105C3.40616 35.3655 2.55581 36.9933 1.88562 38.5053C1.79194 38.6293 1.6262 38.968 1.42442 39.439C1.22985 39.9182 0.956006 40.5131 0.797467 41.2403C0.631721 41.9591 0.3795 42.7275 0.285817 43.5125C0.184929 44.3057 0.0912462 45.0824 0.00477017 45.7599C-0.0528805 48.437 0.408325 51.676 1.59016 54.7084C2.74318 57.749 4.50873 60.5418 6.42561 62.7975L6.5265 62.5248C6.85079 62.9214 7.22552 63.2519 7.57142 63.6237C7.52098 63.6485 7.64348 63.822 7.47053 63.6816C8.08307 64.8218 10.036 65.9868 10.8575 66.8875C10.3963 66.2265 10.0792 66.1852 9.43786 65.6316C8.58751 64.7309 9.60361 65.2928 10.771 66.4578L10.7134 66.4826C11.0233 66.6726 11.3475 66.8379 11.6646 67.0114C11.6646 67.2593 12.4285 67.9286 12.4429 68.1847C12.9329 68.5483 13.423 68.8209 13.9058 69.0853C14.3886 69.3497 14.8498 69.6059 15.311 69.8538C16.2262 70.333 17.1054 70.6718 17.9846 71.0766C18.8565 71.4898 19.7573 71.812 20.687 72.1838C21.6238 72.5639 22.5966 72.9688 23.6704 73.3654C23.1659 73.4315 26.7835 74.423 25.8179 74.5056C28.4698 75.1584 25.4648 74.0512 26.7259 74.1421C27.4537 74.3734 28.2392 74.4974 28.3401 74.6874C27.9726 74.6791 28.8805 75.1088 28.2752 74.9683C28.8589 75.1336 29.4426 75.3154 30.0264 75.4476C30.1849 75.5219 29.7886 75.4723 29.5868 75.4476C31.3956 75.7863 32.9665 76.3151 34.5015 76.6952C35.2654 76.9018 36.022 77.1001 36.7931 77.2819C37.5642 77.4471 38.3425 77.5793 39.1568 77.6702C39.4162 77.5711 37.8813 77.3893 38.1407 77.2819C41.4196 77.6041 40.9728 78.0833 44.0283 78.356L43.3797 78.4552C44.3742 78.4717 44.821 78.3725 46.4136 78.7443C46.673 79.017 45.0227 78.7691 44.2373 78.7443C45.347 78.9261 48.1503 79.2318 47.3216 78.9013C48.6547 79.0088 49.1159 79.2732 49.8222 79.4219C49.851 79.364 48.5971 79.1162 49.3826 79.0996C50.2762 79.2732 51.422 79.4384 52.6182 79.5871C53.8145 79.7111 55.0612 79.8433 56.1637 79.9672C56.1421 80.0251 56.2862 80.1325 56.0917 80.1407C57.886 79.992 57.6627 80.496 60.0984 80.6365V80.653Z" fill="white"/>
<path d="M176.855 69.4654C176.567 69.5728 176.279 69.6802 175.991 69.7711C176.005 69.8207 175.983 69.8951 175.601 70.1016C176.019 69.9033 176.445 69.6968 176.855 69.4737V69.4654Z" fill="white"/>
<path d="M135.268 78.2899C135.16 78.323 135.051 78.3477 134.958 78.3891C135.174 78.356 135.239 78.323 135.268 78.2899Z" fill="white"/>
<path d="M125.099 79.7359C125.827 79.6202 125.172 79.6119 124.811 79.5789C124.797 79.6284 124.811 79.6863 125.099 79.7359Z" fill="white"/>
<path d="M197.329 54.3944C197.242 54.5514 197.199 54.667 197.249 54.6753C197.357 54.4522 197.365 54.3861 197.329 54.3944Z" fill="white"/>
<path d="M159.236 6.94208C159.315 6.97513 159.387 7.00818 159.481 7.05775C159.438 7.0247 159.351 6.99165 159.236 6.94208Z" fill="white"/>
<path d="M162.688 8.38804C162.861 8.44587 163.084 8.51198 163.416 8.58634C163.106 8.47066 162.875 8.41282 162.688 8.38804Z" fill="white"/>
<path d="M184.105 65.4911C183.889 65.6316 183.673 65.7638 183.492 65.9042C183.846 65.7224 184.004 65.5902 184.105 65.4911Z" fill="white"/>
<path d="M164.165 8.77638L165.044 9.09036C165.044 9.09036 165.066 9.06557 165.073 9.04905L164.165 8.77638Z" fill="white"/>
<path d="M158.112 6.58678C158.465 6.68593 158.933 6.8264 159.236 6.94208C158.804 6.74377 158.45 6.63636 158.112 6.58678Z" fill="white"/>
<path d="M196.853 27.8217C196.853 27.8217 196.903 27.8713 196.925 27.8961C197.516 28.4249 197.156 28.0779 196.853 27.8217Z" fill="white"/>
<path d="M168.143 9.71006C168.143 9.71006 168.222 9.74311 168.258 9.75963L168.532 9.79268L168.143 9.71006Z" fill="white"/>
<path d="M154.242 5.44654C154.415 5.48785 154.573 5.51264 154.703 5.5209C154.566 5.47959 154.4 5.43001 154.199 5.36391C154.242 5.40523 154.249 5.43001 154.249 5.44654L154.242 5.44654Z" fill="white"/>
<path d="M185.604 18.0966C185.33 18.0388 185.222 18.0388 185.193 18.0718C185.467 18.2288 185.662 18.2949 185.604 18.0966Z" fill="white"/>
</svg>
