<svg width="128" height="37" viewBox="0 0 128 37" fill="none" xmlns="http://www.w3.org/2000/svg">
<g clip-path="url(#clip0_143_306)">
<path d="M123.169 15.4849V32.1565H0V37.0001H122.644C125.6 37.0001 128 34.5972 128 31.63V15.4849H123.169Z" fill="white"/>
<path d="M28.439 17.5327C29.2399 17.2825 30.0726 17.1254 30.888 16.9218C32.2169 16.5872 33.5691 16.3196 34.7472 15.4585C34.8081 17.2447 34.692 18.9406 33.8274 20.4824C32.9859 21.9835 31.6976 22.8766 29.9885 23.1384C28.3316 23.3944 25.8043 23.1384 25.7144 20.6395C25.6302 18.225 27.8268 17.7217 28.439 17.5327ZM24.4551 26.3732C26.167 26.9899 27.9341 26.9899 29.6838 26.6147C32.185 26.0794 33.8564 24.5347 34.7907 22.1667C34.8197 22.0911 34.8603 22.0184 34.8777 21.9777C34.9677 23.406 35.0576 24.8576 35.1505 26.3034H39.6451C39.5813 25.2969 39.471 24.3107 39.4623 23.3245C39.4275 19.6126 39.4246 15.9007 39.4072 12.1859C39.4072 11.9531 39.4014 11.7175 39.3898 11.4848C39.3347 10.4957 39.1228 9.53863 38.6151 8.68047C37.6343 7.02523 36.1138 6.12052 34.2974 5.66671C32.7886 5.29144 31.2536 5.18963 29.7012 5.27981C26.5413 5.46308 21.9451 6.5976 21.1994 11.5691C21.1588 11.8484 21.153 12.1306 21.1327 12.4244H26.0945C26.1119 12.3284 26.1293 12.2586 26.138 12.1888C26.611 8.32266 31.0621 8.76774 32.6145 9.07319C33.9666 9.33791 34.6775 10.1408 34.7414 11.4935C34.811 12.9189 33.807 13.4426 32.9133 13.6229C31.1753 13.972 29.4227 14.26 27.673 14.5654C25.8478 14.8825 21.4403 15.4032 20.7874 19.6533C20.474 21.7013 20.7323 25.0321 24.4493 26.3761" fill="white"/>
<path d="M86.6603 18.5858C86.6603 16.9887 86.7822 15.4091 87.29 13.879C87.8587 12.1656 89.0019 11.1067 90.7748 10.7198C91.7933 10.4958 92.8234 10.5161 93.8564 10.5161H94.2481V5.64932C90.4557 5.27406 87.969 6.9613 86.5675 10.4318V5.95186H81.626V26.3064H86.6574C86.6574 26.1609 86.6574 21.8788 86.6574 18.5858" fill="white"/>
<path d="M18.1149 22.1581H5.18523V0H0V26.3064H18.1149V22.1581Z" fill="white"/>
<path d="M106.917 9.23628C111.803 9.23628 112.72 12.3257 112.72 16.1394C112.72 19.9532 111.684 23.0426 106.917 23.0426C102.149 23.0426 101.113 19.9532 101.113 16.1394C101.113 12.3257 102.033 9.23628 106.917 9.23628ZM106.917 26.9697C114.29 26.9697 117.821 22.1204 117.821 16.1394C117.821 10.1584 114.412 5.30908 106.917 5.30908C99.4218 5.30908 96.0123 10.1584 96.0123 16.1394C96.0123 22.1204 99.5436 26.9697 106.917 26.9697Z" fill="white"/>
<path d="M67.2919 21.4135C67.2919 24.1305 69.2534 26.3239 73.1184 26.3239L77.8394 26.3094V22.2774H72.1696V9.78606H78.3182V5.91995H72.1493V1.21313H69.619L67.5386 5.68432L63.3196 7.2872V9.79478H67.2919V21.4164V21.4135Z" fill="white"/>
<path d="M52.714 23.5834C49.4903 23.5834 47.8074 21.8525 47.6449 19.7202H42.8949C42.9994 23.9209 46.4349 26.9724 52.7576 26.9724C58.674 26.9724 61.8977 24.4009 61.8977 20.3398C61.8977 17.5821 60.4643 15.4818 57.6904 14.6469C56.4107 14.2629 55.1543 14.0592 53.2799 13.8876C51.7217 13.7451 48.2774 13.6054 48.2774 11.4702C48.2774 9.8586 49.3917 8.69207 52.2469 8.69207C55.6563 8.69207 56.5268 10.3299 56.7241 12.0084H61.5147C61.3725 9.85278 60.444 8.18008 58.7291 6.9932C57.0143 5.80631 54.7829 5.20996 52.0322 5.20996C50.3608 5.20996 48.8636 5.48632 47.5462 6.03904C46.2289 6.59175 45.193 7.37137 44.4415 8.38081C43.6899 9.39024 43.4781 10.5422 43.4781 11.8426C43.4781 13.2243 44.0381 14.5887 44.7868 15.4032C46.2376 16.9799 48.0598 17.4395 52.0496 17.8701C54.9135 18.1813 56.933 18.7108 56.933 20.6715C56.933 22.2336 56.3991 23.5805 52.7082 23.5805" fill="white"/>
</g>
<defs>
<clipPath id="clip0_143_306">
<rect width="128" height="37" fill="white"/>
</clipPath>
</defs>
</svg>
